<svg width="420" height="293" viewBox="0 0 420 293" fill="none" xmlns="http://www.w3.org/2000/svg">
<path d="M210.2 292.429C300.333 292.429 373.4 282.86 373.4 271.057C373.4 259.254 300.333 249.686 210.2 249.686C120.067 249.686 47 259.254 47 271.057C47 282.86 120.067 292.429 210.2 292.429Z" fill="#557DE0"/>
<path d="M62.8157 263.671H363.179C363.179 263.671 389.451 143.496 313.489 176.235C313.489 176.235 314.067 24.0167 223.152 24.0167C132.236 24.0167 135.23 136.218 135.23 136.218C135.23 136.218 18.6652 71.9449 62.8126 263.674L62.8157 263.671Z" fill="#9FC4F8"/>
<g style="mix-blend-mode:overlay" opacity="0.5">
<path d="M210.465 262.598C289.172 262.598 352.976 259.895 352.976 256.56C352.976 253.226 289.172 250.522 210.465 250.522C131.758 250.522 67.9532 253.226 67.9532 256.56C67.9532 259.895 131.758 262.598 210.465 262.598Z" fill="#283044"/>
</g>
<path d="M332.745 216.621L300.695 13.3286C300.264 10.5905 298.664 7.68205 296.45 5.17853C291.258 6.08802 286.056 6.95895 280.851 7.78489C246.762 13.1936 212.441 16.8766 178.113 20.3282C177.515 20.4889 176.916 20.656 176.32 20.8328C175.367 21.1156 174.594 20.7717 174.106 20.1739L171.667 20.656C164.444 21.829 159.524 28.7193 160.68 36.0467L188.992 240.22C190.148 247.548 200.678 251.658 207.901 250.485L321.758 232.012C328.981 230.839 333.901 223.949 332.745 216.621Z" fill="#557DE0"/>
<g style="mix-blend-mode:overlay" opacity="0.5">
<path d="M332.703 216.638L300.653 13.3447C300.223 10.6034 298.62 7.6949 296.405 5.18817C291.235 6.09445 286.059 6.96217 280.873 7.78489C246.783 13.1937 212.462 16.8766 178.135 20.3282C177.536 20.4889 176.938 20.656 176.342 20.8328C175.392 21.1156 174.619 20.7717 174.131 20.1772L171.625 20.6721C164.402 21.8451 159.482 28.7354 160.639 36.0628L188.95 240.236C190.107 247.564 200.637 251.674 207.859 250.501L321.717 232.028C328.94 230.855 333.859 223.965 332.703 216.638Z" fill="#283044"/>
</g>
<path d="M289.097 1.17087L175.24 19.6436C168.017 20.8166 163.097 27.7069 164.254 35.0343L196.303 238.327C197.459 245.655 204.251 250.646 211.474 249.473L325.332 231C332.554 229.827 337.474 222.936 336.318 215.609L304.268 12.3162C303.112 4.98883 296.32 -0.00214845 289.097 1.17087Z" fill="#557DE0"/>
<path d="M291.827 13.4475L176.421 32.1741C174.615 32.4665 173.383 34.1891 173.674 36.0242L202.426 218.399C202.715 220.231 204.412 221.477 206.221 221.185L321.628 202.458C323.434 202.166 324.666 200.443 324.374 198.608L295.623 16.2338C295.334 14.402 293.636 13.155 291.827 13.4475Z" fill="#283044"/>
<path d="M295.626 16.2337L324.378 198.611C324.666 200.443 323.43 202.163 321.625 202.455L206.215 221.182C204.409 221.474 202.718 220.23 202.429 218.399L173.678 36.0208C173.389 34.1889 174.612 32.4631 176.418 32.1707L291.827 13.4441C293.633 13.1517 295.337 14.4018 295.626 16.2337Z" fill="#29478C"/>
<path d="M216.839 19.8642L249.653 14.5381C251.17 14.2919 252.6 15.3422 252.843 16.8813L253.714 22.4093C253.957 23.9484 252.922 25.3988 251.405 25.645L218.591 30.9711C217.074 31.2173 215.644 30.1671 215.401 28.628L214.529 23.0999C214.287 21.5608 215.322 20.1104 216.839 19.8642Z" fill="#557DE0"/>
<path d="M222.096 24.7921C222.369 25.8076 221.779 26.8553 220.781 27.1317C219.78 27.4081 218.748 26.8103 218.475 25.798C218.203 24.7824 218.792 23.7347 219.79 23.4583C220.788 23.182 221.824 23.7797 222.096 24.7921Z" fill="#283044"/>
<path d="M248.396 22.1827C248.358 22.1923 248.32 22.202 248.279 22.2084L228.176 25.4157C227.59 25.5089 227.042 25.104 226.95 24.5094C226.858 23.9149 227.257 23.3525 227.843 23.2657L247.946 20.0584C248.533 19.9652 249.081 20.3701 249.173 20.9647C249.258 21.5174 248.916 22.0381 248.396 22.1827Z" fill="#283044"/>
<path d="M266.374 53.8217L213.017 62.4796C206.023 63.614 201.261 70.2858 202.38 77.3818L210.303 127.626C211.421 134.722 217.997 139.552 224.992 138.418L278.349 129.76C285.344 128.625 290.105 121.953 288.987 114.857L281.064 64.6135C279.946 57.5175 273.369 52.6873 266.374 53.8217Z" fill="white"/>
<g style="mix-blend-mode:overlay" opacity="0.5">
<path d="M279.331 111.895C279.574 113.444 266.143 116.915 249.331 119.64C232.519 122.368 218.691 123.323 218.447 121.771C218.203 120.222 231.635 116.751 248.447 114.026C265.259 111.297 279.087 110.343 279.331 111.895Z" fill="#283044"/>
</g>
<path d="M270.488 102.18L268.045 102.577C266.872 102.767 266.073 103.886 266.261 105.076L267.378 112.162C267.566 113.352 268.669 114.163 269.842 113.972L272.285 113.576C273.458 113.385 274.257 112.266 274.069 111.076L272.952 103.99C272.764 102.8 271.661 101.99 270.488 102.18Z" fill="#283044"/>
<path d="M227.824 109.623C227.419 109.391 226.934 109.292 226.434 109.372L223.991 109.767C223.459 109.854 223.006 110.131 222.683 110.519C222.293 110.989 222.103 111.618 222.204 112.268L223.32 119.351C223.421 120.003 223.798 120.54 224.311 120.861C224.736 121.128 225.252 121.247 225.784 121.163L228.227 120.768C228.724 120.688 229.155 120.44 229.472 120.09C229.902 119.614 230.121 118.952 230.013 118.265L228.898 111.181C228.791 110.497 228.379 109.938 227.824 109.62V109.623Z" fill="#283044"/>
<path d="M272.643 98.3073C272.694 98.7411 272.732 99.1364 272.754 99.4803C272.954 102.254 273.685 105.484 269.561 107.119C267.948 107.756 264.305 108.53 260.472 109.231C254.703 110.291 248.491 111.188 248.07 111.252C247.645 111.326 241.471 112.438 235.664 113.258C231.803 113.804 228.106 114.222 226.376 114.125C221.954 113.875 221.656 110.574 220.991 107.878C220.912 107.55 220.826 107.171 220.744 106.753C220.132 103.716 219.476 98.6479 219.796 96.98C219.822 96.845 219.853 96.7229 219.895 96.6072C220.322 95.3602 221.482 95.1256 221.925 93.8305C221.938 93.7887 221.954 93.7437 221.966 93.6987C221.982 93.6409 221.998 93.5798 222.014 93.5155C222.058 93.3163 222.09 93.0913 222.099 92.8374C222.198 90.44 223.82 77.8677 224.634 75.467C225.492 72.8478 228.888 72.4429 231.35 72.0412C233.697 71.6587 240.91 70.3572 241.576 70.2383C241.576 70.2383 241.585 70.235 241.601 70.235C241.617 70.2318 241.623 70.2286 241.623 70.2286C242.292 70.1354 249.546 69.0877 251.893 68.7085C254.358 68.31 257.71 67.619 259.329 69.8365C260.84 71.8612 266.247 83.2926 267.08 85.539C267.169 85.7832 267.27 85.9921 267.378 86.1753C267.435 86.2685 267.492 86.3553 267.556 86.4356C268.449 87.6151 269.76 87.3387 270.54 88.7463C271.357 90.2246 272.292 95.2285 272.643 98.3073Z" fill="#F49642"/>
<path d="M257.846 95.0579C257.846 95.0579 257.872 95.6588 257.897 96.3112C257.897 96.3209 257.897 96.3305 257.897 96.3434C257.916 96.8544 257.935 97.3943 257.938 97.6867C257.941 97.8538 257.751 98.1399 257.444 98.4869C257.127 98.8501 256.684 99.2743 256.209 99.6857C255.268 100.502 254.2 101.257 253.747 101.331L246.702 102.475C246.702 102.475 246.683 102.475 246.651 102.482L239.609 103.626C239.156 103.7 237.911 103.317 236.764 102.842C236.187 102.604 235.636 102.34 235.221 102.096C234.825 101.861 234.553 101.649 234.508 101.492C234.423 101.212 234.277 100.698 234.138 100.203L234.128 100.171C233.951 99.5443 233.792 98.9626 233.792 98.9626C233.792 98.9626 234.021 98.7505 234.325 98.4869C234.341 98.4709 234.356 98.458 234.372 98.4452C234.394 98.4259 234.42 98.4034 234.445 98.3841C234.486 98.3455 234.527 98.3102 234.569 98.278C234.968 97.9406 235.421 97.5871 235.655 97.5035C236.121 97.3332 245.108 95.9641 245.637 95.8838C246.16 95.7938 255.119 94.2512 255.616 94.2641C255.866 94.2705 256.402 94.4633 256.886 94.6561C256.937 94.6754 256.988 94.6947 257.038 94.7172C257.067 94.7268 257.099 94.7397 257.127 94.7526C257.146 94.7622 257.165 94.7686 257.184 94.7783C257.558 94.9325 257.84 95.0611 257.84 95.0611L257.846 95.0579Z" fill="#283044"/>
<path d="M266.4 88.7879C266.4 88.7879 264.445 90.7997 262.532 92.172C260.621 93.5442 259.684 93.8431 259.614 94.4087C259.544 94.9744 261.379 95.7135 262.006 95.6428C262.63 95.5753 267.724 94.5309 268.538 93.4639C269.355 92.3969 269.377 89.5624 269.019 89.106C268.661 88.6497 266.707 88.4729 266.403 88.7847L266.4 88.7879Z" fill="white"/>
<path d="M230.026 100.833C229.411 100.965 224.254 101.585 223.148 100.833C222.983 100.721 222.825 100.566 222.67 100.38C221.802 99.3259 221.184 97.3109 221.352 96.8417C221.488 96.4657 222.385 95.974 223.059 95.7715C223.363 95.6783 223.62 95.643 223.74 95.7072C223.74 95.7072 226.218 96.9992 228.454 97.6998C230.691 98.4004 231.676 98.3843 231.917 98.9017C232.158 99.4191 230.64 100.698 230.026 100.833Z" fill="white"/>
<path d="M225.289 107.852L232.186 109.064C232.718 109.157 233.019 109.735 232.794 110.233L232.455 110.989C232.329 111.268 232.066 111.455 231.765 111.474L225.451 111.924C225.223 111.94 224.998 111.86 224.83 111.699L223.899 110.812C223.642 110.568 223.566 110.182 223.715 109.854L224.406 108.328C224.561 107.984 224.925 107.788 225.296 107.852H225.289Z" fill="#283044"/>
<path d="M227.466 109.812C227.568 110.465 227.13 111.079 226.487 111.181C225.844 111.284 225.239 110.841 225.138 110.191C225.036 109.539 225.474 108.925 226.114 108.822C226.757 108.72 227.362 109.163 227.463 109.812H227.466Z" fill="white"/>
<path d="M237.651 107.598L236.789 106.358C236.593 106.078 236.263 105.93 235.927 105.975C234.743 106.133 231.907 106.512 231.15 106.599C230.238 106.701 221.979 107.1 220.772 106.904L220.734 106.695C221.932 106.891 230.219 106.499 231.128 106.396C231.882 106.313 234.717 105.933 235.902 105.773C236.314 105.718 236.716 105.895 236.954 106.239L237.815 107.479L237.651 107.595V107.598Z" fill="#283044"/>
<path d="M233.957 98.889L233.944 99.0915C233.89 99.0883 232.664 99.0047 232.275 98.9469C232.094 98.9212 231.764 98.8151 231.311 98.6673C230.763 98.4873 230.013 98.2431 229.135 98.0117C227.611 97.6164 225.159 96.6844 223.693 95.8006C222.651 95.1739 222.134 94.2805 221.928 93.8306C221.96 93.7342 221.992 93.6281 222.017 93.5156C222.083 93.702 222.555 94.8783 223.794 95.6239C225.245 96.4948 227.675 97.4203 229.186 97.8124C230.07 98.0438 230.824 98.2881 231.375 98.468C231.818 98.6127 232.142 98.7187 232.306 98.7444C232.686 98.8023 233.947 98.8858 233.96 98.889H233.957Z" fill="#283044"/>
<path d="M221.39 93.1812C221.489 93.8432 216.993 93.7982 216.658 93.6922C216.528 93.6504 216.3 93.4126 216.097 93.0912C215.995 92.9273 215.9 92.7473 215.824 92.5577C215.663 92.1464 215.612 91.7029 215.85 91.4072C216.407 90.7034 219.689 89.3825 220.323 89.5529C220.953 89.7264 221.387 93.1844 221.387 93.1844L221.39 93.1812Z" fill="#F49642"/>
<path d="M220.94 91.7381L222.695 91.3846L222.407 93.2871L220.61 93.5796L220.94 91.7381Z" fill="#F49642"/>
<path d="M218.229 92.9371L216.492 93.0238C216.391 92.8599 216.296 92.68 216.22 92.4903L218.029 92.3972C218.07 92.3972 218.111 92.4164 218.13 92.4518L218.317 92.7603C218.365 92.8342 218.314 92.9306 218.229 92.9338V92.9371Z" fill="white"/>
<path d="M256.867 103.957C256.617 103.578 255.024 102.935 254.466 103.025C253.934 103.112 247.576 104.143 246.99 104.24C246.99 104.24 246.971 104.24 246.942 104.246C246.353 104.343 239.995 105.374 239.466 105.461C238.908 105.551 237.591 106.666 237.47 107.106C237.35 107.544 238.889 109.067 239.653 109.459C240.388 109.838 247.196 108.63 247.649 108.549C248.102 108.482 254.941 107.476 255.524 106.885C256.126 106.271 257.124 104.336 256.874 103.96L256.867 103.957Z" fill="#283044"/>
<path d="M268.668 100.814L262.487 104.147C262.009 104.404 261.901 105.05 262.269 105.451L262.823 106.062C263.029 106.287 263.336 106.38 263.631 106.306L269.767 104.735C269.989 104.677 270.179 104.529 270.29 104.323L270.901 103.186C271.072 102.871 271.022 102.482 270.784 102.218L269.66 100.984C269.406 100.705 268.997 100.637 268.668 100.814Z" fill="#283044"/>
<path d="M269.669 102.967C269.77 103.62 269.333 104.233 268.69 104.336C268.047 104.439 267.442 103.996 267.34 103.346C267.239 102.694 267.676 102.08 268.319 101.977C268.962 101.874 269.567 102.318 269.669 102.967Z" fill="white"/>
<path d="M256.832 104.484L256.642 104.426L257.08 102.973C257.2 102.572 257.529 102.276 257.938 102.199C259.113 101.974 261.923 101.437 262.668 101.28C263.564 101.09 271.563 98.8372 272.64 98.2748L272.662 98.4901C271.576 99.059 263.605 101.289 262.709 101.479C261.964 101.636 259.151 102.176 257.976 102.398C257.64 102.462 257.371 102.707 257.273 103.034L256.836 104.487L256.832 104.484Z" fill="#283044"/>
<path d="M267.556 86.4354C267.492 86.9303 267.267 87.9362 266.475 88.8553C265.351 90.1569 263.311 91.8216 261.986 92.6765C261.22 93.1714 260.583 93.6438 260.117 93.9877C259.731 94.2705 259.455 94.4762 259.287 94.5597C258.936 94.7365 257.795 95.1993 257.748 95.2186L257.675 95.029C257.675 95.029 258.857 94.5533 259.202 94.3798C259.351 94.3026 259.623 94.1034 260.003 93.8238C260.472 93.4799 261.112 93.0043 261.882 92.5062C263.197 91.6577 265.218 90.0091 266.333 88.7203C267.248 87.6598 267.369 86.4386 267.385 86.175C267.442 86.2682 267.499 86.355 267.562 86.4354H267.556Z" fill="#283044"/>
<path d="M264.901 83.993C264.965 84.4044 263.704 84.7386 261.623 85.0664C258.727 85.526 254.251 85.9695 249.54 86.5801C248.964 86.654 248.384 86.7311 247.801 86.8115C246.927 86.9336 246.049 87.0622 245.175 87.1971C244.883 87.2421 244.592 87.2871 244.297 87.3353C244.126 87.3642 243.955 87.39 243.784 87.4189C241.519 87.7981 239.226 88.2384 237.037 88.6819C229.874 90.1313 223.836 91.5711 223.693 90.6776C223.506 89.4821 225.268 75.6854 225.683 75.2966C225.787 75.197 226.88 74.9591 228.455 74.6538C229.89 74.3742 231.734 74.0432 233.587 73.7218C234.135 73.6254 234.686 73.5322 235.228 73.4358C235.697 73.3555 236.159 73.2751 236.609 73.198C237.55 73.0373 238.434 72.8863 239.2 72.7577C239.869 72.6452 240.452 72.5488 240.905 72.4717C241.427 72.3849 241.779 72.3271 241.902 72.3046C241.902 72.3046 241.912 72.3046 241.925 72.3014C241.937 72.3014 241.947 72.2981 241.947 72.2981C242.527 72.2049 248.276 71.289 252.794 70.6398C255.689 70.2221 258.081 69.9167 258.274 70.0035C258.787 70.2413 264.705 82.7943 264.895 83.9866L264.901 83.993Z" fill="#283044"/>
<path d="M267.86 85.6385C267.971 86.2973 272.225 84.8318 272.513 84.6261C272.624 84.5458 272.767 84.2469 272.862 83.8773C272.909 83.6909 272.944 83.4885 272.954 83.2828C272.979 82.8393 272.89 82.4054 272.573 82.1965C271.829 81.7048 268.3 81.4895 267.755 81.8494C267.21 82.2126 267.86 85.6353 267.86 85.6353V85.6385Z" fill="#F49642"/>
<path d="M267.844 84.1279L266.067 84.3496L266.925 86.0658L268.721 85.7733L267.844 84.1279Z" fill="#F49642"/>
<path d="M270.787 84.4073L272.462 83.9413C272.51 83.755 272.544 83.5525 272.554 83.3468L270.809 83.8321C270.768 83.8417 270.736 83.8739 270.73 83.9156L270.647 84.2659C270.625 84.3495 270.704 84.4266 270.787 84.4041V84.4073Z" fill="white"/>
<path d="M270.831 146.889L236.95 152.388C235.756 152.581 234.613 151.642 234.4 150.289C234.188 148.936 234.983 147.683 236.177 147.49L270.058 141.992C271.252 141.799 272.396 142.737 272.608 144.09C272.821 145.443 272.025 146.696 270.831 146.889Z" fill="#557DE0"/>
<path d="M298.272 153.828L213.458 167.589C212.742 167.705 212.054 167.142 211.928 166.329C211.801 165.519 212.276 164.764 212.995 164.649L297.809 150.887C298.525 150.772 299.213 151.334 299.339 152.147C299.466 152.96 298.991 153.712 298.272 153.828Z" fill="#557DE0"/>
<path d="M299.868 163.951L215.054 177.712C214.338 177.828 213.651 177.266 213.524 176.453C213.397 175.643 213.873 174.887 214.592 174.772L299.406 161.01C300.122 160.895 300.809 161.457 300.936 162.27C301.063 163.083 300.587 163.835 299.868 163.951Z" fill="#557DE0"/>
<path d="M284.723 176.793L233.393 185.123C232.677 185.239 231.99 184.677 231.863 183.864C231.737 183.054 232.212 182.299 232.931 182.183L284.26 173.853C284.976 173.737 285.664 174.299 285.79 175.113C285.917 175.922 285.442 176.678 284.723 176.793Z" fill="#557DE0"/>
<path d="M247.189 191.76L220.465 196.095C216.73 196.703 214.189 200.263 214.785 204.053C215.384 207.842 218.894 210.419 222.629 209.815L249.353 205.479C253.088 204.872 255.629 201.311 255.033 197.522C254.434 193.733 250.924 191.156 247.189 191.76Z" fill="#F49642"/>
<path d="M300.378 183.128L273.654 187.463C269.919 188.07 267.378 191.631 267.974 195.42C268.569 199.209 272.083 201.787 275.817 201.183L302.542 196.847C306.277 196.24 308.817 192.679 308.222 188.89C307.623 185.101 304.113 182.523 300.378 183.128Z" fill="#557DE0"/>
<path d="M195.8 55.7919C194.662 55.3452 193.706 54.635 192.93 53.6644C192.153 52.6938 191.666 51.5594 191.46 50.2642C191.251 48.9434 191.358 47.7029 191.776 46.5459C192.198 45.389 192.869 44.4248 193.798 43.6567C194.726 42.8886 195.828 42.4002 197.105 42.1913C197.795 42.0788 198.486 42.0531 199.177 42.1141C199.867 42.1752 200.472 42.323 200.995 42.5576L200.954 45.6557C199.978 45.4532 199.12 45.4147 198.378 45.5336C197.355 45.7007 196.617 46.1281 196.164 46.8191C195.711 47.51 195.572 48.4195 195.749 49.5476C195.923 50.6499 196.348 51.4597 197.026 51.9804C197.704 52.501 198.562 52.6778 199.595 52.5107C199.991 52.4464 200.355 52.3468 200.688 52.215C201.02 52.08 201.42 51.8711 201.885 51.5819L202.905 54.5675C201.898 55.4095 200.735 55.9365 199.421 56.1486C198.144 56.3543 196.934 56.2354 195.797 55.7887L195.8 55.7919Z" fill="#F49642"/>
<path d="M205.123 41.1888L210.949 40.244L216.873 53.0026L212.368 53.7321L211.465 51.2479L208.053 51.8006L207.901 54.4584L203.59 55.159L205.123 41.192V41.1888ZM210.629 48.9308L208.459 43.281L208.079 49.3453L210.629 48.9308Z" fill="#F49642"/>
<path d="M223.227 48.8213L222.432 46.8963L221.532 47.0409L222.333 52.1154L218.136 52.7967L216.026 39.4211L221.833 38.4794C222.932 38.3027 223.927 38.3091 224.814 38.5051C225.704 38.698 226.423 39.0579 226.978 39.5785C227.532 40.1024 227.871 40.7484 227.991 41.5293C228.127 42.397 228.036 43.1619 227.713 43.8175C227.389 44.4763 226.825 45.0612 226.015 45.5786C226.182 46.0575 226.354 46.4881 226.534 46.8706C226.765 47.3398 227.031 47.6483 227.329 47.7993C227.627 47.9504 228.032 47.9857 228.546 47.9022C228.723 47.8733 229.002 47.8026 229.376 47.6869L229.876 50.8556C229.312 51.1866 228.742 51.3988 228.169 51.492C225.767 51.8808 224.12 50.9938 223.227 48.8245V48.8213ZM221.833 44.1999C222.777 44.0457 223.429 43.8304 223.784 43.554C224.139 43.2776 224.279 42.8791 224.196 42.3617C224.126 41.9214 223.917 41.6257 223.566 41.4779C223.214 41.33 222.695 41.3108 222.004 41.4232L220.683 41.6386L221.107 44.3221L221.836 44.2031L221.833 44.1999Z" fill="#F49642"/>
<path d="M240.189 46.0672L239.393 44.1422L238.494 44.2868L239.295 49.3613L235.098 50.0427L232.988 36.667L238.795 35.7253C239.894 35.5486 240.889 35.555 241.776 35.7511C242.666 35.9439 243.385 36.3038 243.939 36.8245C244.494 37.3483 244.833 37.9943 244.953 38.7752C245.089 39.6429 244.997 40.4078 244.674 41.0634C244.351 41.7222 243.787 42.3071 242.976 42.8245C243.144 43.3034 243.315 43.734 243.496 44.1165C243.727 44.5857 243.993 44.8942 244.291 45.0453C244.589 45.1963 244.994 45.2317 245.507 45.1481C245.685 45.1192 245.964 45.0485 246.337 44.9328L246.838 48.1015C246.274 48.4326 245.704 48.6447 245.13 48.7379C242.729 49.1267 241.082 48.2397 240.189 46.0704V46.0672ZM238.792 41.4491C239.736 41.2948 240.388 41.0795 240.743 40.8031C241.098 40.5267 241.237 40.1282 241.155 39.6108C241.085 39.1705 240.876 38.8748 240.524 38.727C240.173 38.5792 239.653 38.5599 238.963 38.6724L237.642 38.8877L238.066 41.5712L238.795 41.4523L238.792 41.4491Z" fill="#F49642"/>
<path d="M246.366 34.4976L255.622 32.9968L256.088 35.9535L251.488 36.6991L251.872 39.1287L256.069 38.4474L256.456 40.8962L252.258 41.5776L252.667 44.1646L257.267 43.4191L257.732 46.3725L248.476 47.8733L246.366 34.4976Z" fill="#F49642"/>
<path d="M257.767 32.6465L261.619 32.023L268.009 38.3862L266.871 31.1713L270.302 30.6154L272.412 43.991L268.579 44.6145L262.192 38.5116L263.289 45.4726L259.877 46.0253L257.767 32.6497V32.6465Z" fill="#F49642"/>
<path d="M275.31 32.833L272.57 33.2765L272.104 30.3198L282.052 28.7065L282.517 31.6631L279.777 32.1066L281.421 42.5289L276.955 43.252L275.31 32.8297V32.833Z" fill="#F49642"/>
<g style="mix-blend-mode:overlay" opacity="0.2">
<path d="M320.997 177.173L324.377 198.612C324.666 200.443 323.43 202.163 321.624 202.455L269.671 210.885L190.562 143.129L176.405 53.3271L320.997 177.173Z" fill="white"/>
<path d="M311.253 115.356L316.844 150.826L178.001 31.9138L208.115 27.0257L311.253 115.356Z" fill="white"/>
</g>
<path d="M88.7211 87.8906L179.698 88.8867C184.699 89.0807 188.597 93.3484 188.406 98.422L183.456 243.563C183.265 248.636 179.058 252.591 174.057 252.397L79.9434 247.439C74.9422 247.245 71.0442 242.977 71.2354 237.903L79.3255 96.7208C79.5167 91.6473 83.7236 87.6929 88.7247 87.8869L88.7211 87.8906Z" fill="#F49642"/>
<g style="mix-blend-mode:overlay" opacity="0.4">
<path d="M88.7211 87.8906L179.698 88.8867C184.699 89.0807 188.597 93.3484 188.406 98.422L183.456 243.563C183.265 248.636 179.058 252.591 174.057 252.397L79.9434 247.439C74.9422 247.245 71.0442 242.977 71.2354 237.903L79.3255 96.7208C79.5167 91.6473 83.7236 87.6929 88.7247 87.8869L88.7211 87.8906Z" fill="#283044"/>
</g>
<path d="M185.383 97.7993L180.437 242.944C180.242 248.017 176.039 251.972 171.034 251.774L158.642 251.125L146.326 250.476H146.29L140.443 250.166L132.507 249.752L116.246 248.894L98.639 247.973L76.9209 246.824C73.5157 246.693 70.618 244.678 69.1801 241.795C68.5109 240.441 68.1505 238.904 68.213 237.284L76.2957 96.1018C76.4906 91.0283 80.6938 87.0739 85.6986 87.2716L176.675 88.2602C181.676 88.458 185.574 92.722 185.379 97.7993H185.383Z" fill="#F49642"/>
<path d="M84.4442 93.1616C84.4442 93.1616 77.6117 231.408 65.0721 235.217C65.0721 235.217 93.0381 237.172 120.21 238.079C142.472 238.821 164.198 239.981 169.567 229.323C178.194 205.757 178.421 93.6503 178.421 93.6503L84.4479 93.1654L84.4442 93.1616Z" fill="white"/>
<path d="M95.2299 118.795C94.4061 118.299 93.7553 117.623 93.281 116.765C92.8066 115.911 92.5712 114.967 92.5785 113.934C92.5896 112.882 92.8286 111.934 93.303 111.091C93.7773 110.252 94.4245 109.595 95.2409 109.121C96.0573 108.651 96.9766 108.416 97.9952 108.428C98.5431 108.431 99.0837 108.502 99.6096 108.64C100.135 108.778 100.588 108.976 100.963 109.222L100.529 111.617C99.8008 111.334 99.1389 111.188 98.5505 111.184C97.7378 111.177 97.109 111.412 96.6677 111.89C96.2265 112.367 96.0021 113.053 95.9948 113.953C95.9874 114.829 96.2118 115.516 96.6714 116.008C97.1274 116.5 97.7709 116.75 98.5947 116.758C98.9109 116.758 99.2051 116.732 99.4809 116.672C99.753 116.612 100.091 116.504 100.488 116.34L100.897 118.787C100.007 119.306 99.0359 119.563 97.9915 119.552C96.9729 119.545 96.0536 119.291 95.2299 118.791V118.795Z" fill="#557DE0"/>
<path d="M104.339 108.715L108.976 108.752L111.921 119.429L108.336 119.399L107.957 117.351L105.243 117.329L104.784 119.366L101.349 119.34L104.339 108.715ZM107.608 115.445L106.655 110.778L105.578 115.426L107.608 115.441V115.445Z" fill="#557DE0"/>
<path d="M117.39 117.03L117.022 115.434L116.305 115.426L116.272 119.466L112.929 119.436L113.017 108.789L117.64 108.83C118.515 108.838 119.284 108.972 119.946 109.245C120.611 109.513 121.122 109.886 121.486 110.364C121.847 110.838 122.027 111.386 122.023 112.005C122.016 112.695 121.847 113.274 121.512 113.744C121.177 114.21 120.663 114.59 119.968 114.885C120.034 115.277 120.115 115.631 120.203 115.956C120.321 116.348 120.486 116.624 120.699 116.78C120.913 116.937 121.221 117.015 121.63 117.019C121.773 117.019 121.997 117 122.303 116.967L122.281 119.489C121.803 119.668 121.332 119.757 120.876 119.754C118.964 119.739 117.802 118.828 117.39 117.03ZM116.904 113.262C117.658 113.27 118.188 113.188 118.5 113.024C118.813 112.856 118.971 112.565 118.975 112.154C118.975 111.804 118.853 111.546 118.6 111.386C118.346 111.225 117.945 111.14 117.397 111.136L116.345 111.125L116.327 113.262H116.908H116.904Z" fill="#557DE0"/>
<path d="M130.893 117.146L130.525 115.549L129.808 115.542L129.775 119.582L126.432 119.556L126.52 108.909L131.143 108.946C132.018 108.954 132.787 109.092 133.448 109.36C134.114 109.629 134.625 110.002 134.989 110.48C135.35 110.957 135.53 111.505 135.526 112.125C135.519 112.815 135.35 113.393 135.015 113.859C134.68 114.326 134.165 114.706 133.47 115.001C133.537 115.393 133.618 115.751 133.706 116.072C133.824 116.463 133.989 116.739 134.202 116.896C134.416 117.053 134.724 117.131 135.133 117.135C135.276 117.135 135.5 117.12 135.806 117.079L135.783 119.601C135.305 119.783 134.835 119.873 134.379 119.869C132.467 119.854 131.305 118.944 130.893 117.142V117.146ZM130.407 113.382C131.161 113.386 131.691 113.307 132.003 113.139C132.316 112.972 132.474 112.684 132.478 112.27C132.478 111.919 132.356 111.662 132.103 111.502C131.849 111.341 131.448 111.255 130.9 111.252L129.848 111.244L129.83 113.382H130.411H130.407Z" fill="#557DE0"/>
<path d="M137.174 108.999L144.543 109.062L144.521 111.412L140.858 111.382L140.844 113.319L144.186 113.348L144.172 115.299L140.829 115.27L140.811 117.329L144.473 117.359L144.455 119.713L137.085 119.649L137.174 109.002V108.999Z" fill="#557DE0"/>
<path d="M146.25 109.077L149.316 109.103L153.45 114.882L153.498 109.14L156.23 109.163L156.142 119.81L153.089 119.784L148.923 114.206L148.879 119.746L146.161 119.724L146.25 109.077Z" fill="#557DE0"/>
<path d="M159.826 111.547L157.645 111.528L157.667 109.178L165.585 109.245L165.566 111.595L163.386 111.577L163.316 119.873L159.76 119.843L159.83 111.547H159.826Z" fill="#557DE0"/>
<path d="M144.425 131.341C144.425 131.341 144.425 131.341 144.422 131.341L91.428 130.479C91.0382 130.471 90.7256 130.147 90.733 129.751C90.7403 129.36 91.0566 129.043 91.4464 129.046H91.45L144.444 129.908C144.834 129.916 145.146 130.24 145.139 130.636C145.131 131.027 144.815 131.344 144.425 131.341Z" fill="#283044"/>
<path d="M143.726 139.548C143.726 139.548 143.726 139.548 143.723 139.548L90.7068 138.686C90.317 138.678 90.0044 138.354 90.0117 137.958C90.0191 137.567 90.3353 137.25 90.7251 137.253H90.7288L143.745 138.115C144.134 138.123 144.443 138.447 144.44 138.843C144.432 139.234 144.116 139.551 143.726 139.548Z" fill="#283044"/>
<path d="M125.053 147.46C125.053 147.46 125.053 147.46 125.05 147.46L90.3064 146.897C89.9166 146.889 89.604 146.565 89.6113 146.169C89.6187 145.778 89.935 145.461 90.3248 145.464L125.068 146.028C125.458 146.035 125.767 146.36 125.763 146.755C125.756 147.147 125.439 147.464 125.05 147.46H125.053Z" fill="#283044"/>
<path d="M165.871 148.076L148.106 147.889C147.915 147.889 147.731 147.804 147.598 147.666C147.466 147.524 147.4 147.33 147.407 147.136L148.282 130.553C148.301 130.173 148.617 129.875 148.996 129.878C148.996 129.878 148.996 129.878 148.999 129.878L166.764 130.158C166.956 130.162 167.14 130.244 167.268 130.386C167.401 130.527 167.467 130.718 167.456 130.912L166.581 147.401C166.559 147.781 166.246 148.08 165.867 148.076H165.871ZM148.856 146.464L165.209 146.636L166.011 131.576L149.658 131.318L148.86 146.464H148.856Z" fill="#283044"/>
<path d="M142.686 160.182C142.686 160.182 142.686 160.182 142.682 160.182L89.6887 159.32C89.2989 159.312 88.9899 158.988 88.9936 158.592C89.001 158.201 89.3172 157.884 89.707 157.887C89.707 157.887 89.707 157.887 89.7107 157.887L142.704 158.749C143.094 158.757 143.403 159.081 143.399 159.477C143.392 159.868 143.076 160.185 142.686 160.182Z" fill="#283044"/>
<path d="M141.987 168.389L88.9711 167.527C88.5813 167.52 88.2724 167.195 88.2761 166.8C88.2834 166.408 88.5997 166.091 88.9895 166.095H88.9932L142.009 166.956C142.399 166.964 142.708 167.288 142.704 167.684C142.697 168.076 142.38 168.393 141.991 168.389H141.987Z" fill="#283044"/>
<path d="M123.314 176.301L88.5709 175.738C88.1811 175.73 87.8721 175.406 87.8758 175.01C87.8832 174.619 88.1995 174.301 88.5893 174.305L123.333 174.869C123.722 174.876 124.031 175.201 124.027 175.596C124.02 175.988 123.704 176.305 123.314 176.301Z" fill="#283044"/>
<path d="M164.136 176.917L146.371 176.73C146.18 176.73 145.996 176.644 145.863 176.506C145.731 176.365 145.665 176.171 145.672 175.977L146.547 159.394C146.566 159.014 146.882 158.715 147.261 158.719C147.261 158.719 147.261 158.719 147.264 158.719L165.03 158.999C165.221 159.003 165.405 159.085 165.533 159.227C165.666 159.368 165.732 159.559 165.721 159.752L164.846 176.242C164.824 176.622 164.511 176.92 164.132 176.917H164.136ZM147.121 175.305L163.474 175.477L164.276 160.417L147.923 160.159L147.125 175.305H147.121Z" fill="#283044"/>
<path d="M140.95 189.022L87.9566 188.161C87.5668 188.153 87.258 187.829 87.2616 187.433C87.269 187.041 87.5852 186.724 87.975 186.728C87.975 186.728 87.975 186.728 87.9787 186.728L140.972 187.59C141.362 187.597 141.675 187.922 141.667 188.317C141.66 188.709 141.344 189.026 140.954 189.022H140.95Z" fill="#283044"/>
<path d="M140.252 197.229C140.252 197.229 140.252 197.229 140.248 197.229L87.232 196.368C86.8422 196.36 86.5297 196.036 86.5371 195.64C86.5444 195.249 86.8606 194.931 87.2504 194.935H87.2541L140.27 195.797C140.66 195.804 140.969 196.129 140.965 196.524C140.958 196.916 140.641 197.233 140.252 197.229Z" fill="#283044"/>
<path d="M121.578 205.142L86.835 204.579C86.4453 204.571 86.1363 204.247 86.14 203.851C86.1473 203.46 86.4636 203.143 86.8534 203.146L121.597 203.71C121.986 203.717 122.295 204.042 122.292 204.437C122.284 204.829 121.968 205.146 121.578 205.142Z" fill="#283044"/>
<path d="M162.397 205.758L144.631 205.571C144.44 205.571 144.256 205.485 144.124 205.347C143.992 205.206 143.925 205.012 143.936 204.818L144.812 188.235C144.83 187.855 145.146 187.556 145.525 187.56C145.525 187.56 145.525 187.56 145.529 187.56L163.294 187.84C163.485 187.844 163.669 187.926 163.798 188.067C163.93 188.209 163.996 188.399 163.985 188.593L163.11 205.082C163.088 205.463 162.775 205.761 162.397 205.758ZM145.385 204.146L161.738 204.318L162.54 189.257L146.187 189L145.389 204.146H145.385Z" fill="#283044"/>
<path d="M154.927 145.427C154.927 145.427 154.909 145.427 154.901 145.427C154.607 145.416 154.335 145.263 154.166 145.017L150.595 139.801C150.301 139.369 150.404 138.775 150.831 138.473C151.257 138.179 151.846 138.279 152.14 138.716L154.997 142.89L162.569 133.474C162.896 133.064 163.488 133.008 163.892 133.336C164.297 133.668 164.356 134.273 164.029 134.679L155.666 145.08C155.486 145.304 155.214 145.435 154.927 145.431V145.427Z" fill="#557DE0"/>
<path d="M153.188 174.268C153.188 174.268 153.169 174.268 153.162 174.268C152.868 174.257 152.596 174.104 152.427 173.858L148.856 168.642C148.558 168.21 148.665 167.617 149.091 167.314C149.518 167.02 150.106 167.12 150.4 167.557L153.258 171.731L160.829 162.315C161.157 161.905 161.748 161.849 162.153 162.177C162.558 162.509 162.616 163.114 162.285 163.52L153.923 173.921C153.743 174.145 153.471 174.276 153.184 174.272L153.188 174.268Z" fill="#557DE0"/>
<path d="M152.529 202.732C152.529 202.732 152.511 202.732 152.503 202.732C152.209 202.721 151.937 202.568 151.768 202.322L148.197 197.106C147.899 196.674 148.006 196.081 148.433 195.778C148.859 195.484 149.447 195.584 149.742 196.021L152.599 200.195L160.171 190.779C160.498 190.369 161.09 190.313 161.494 190.641C161.899 190.973 161.958 191.578 161.63 191.984L153.268 202.385C153.088 202.609 152.816 202.74 152.529 202.736V202.732Z" fill="#557DE0"/>
<path d="M144.76 80.7504C142.7 80.1572 140.84 80.0379 140.84 78.139V77.2138C140.84 76.02 139.939 75.0501 138.828 75.0501H121.685C120.574 75.0501 119.673 76.02 119.673 77.2138V78.139C119.673 80.0379 117.812 80.1572 115.753 80.7504C113.694 81.3436 114.382 85.3837 114.382 85.3837L130.256 86.0963L146.131 85.3837C146.131 85.3837 146.819 81.3473 144.76 80.7504Z" fill="#283044"/>
<g style="mix-blend-mode:overlay" opacity="0.4">
<path d="M144.76 80.7504C142.7 80.1572 140.84 80.0379 140.84 78.139V77.2138C140.84 76.02 139.939 75.0501 138.828 75.0501H121.685C120.574 75.0501 119.673 76.02 119.673 77.2138V78.139C119.673 80.0379 117.812 80.1572 115.753 80.7504C113.694 81.3436 114.382 85.3837 114.382 85.3837L130.256 86.0963L146.131 85.3837C146.131 85.3837 146.819 81.3473 144.76 80.7504Z" fill="#283044"/>
</g>
<path d="M107.123 96.3328L106.792 86.6632C106.744 85.2493 107.862 84.0779 109.256 84.0779H150.394C151.857 84.0779 152.997 85.365 152.843 86.8386L151.839 96.4783L107.123 96.3328Z" fill="#283044"/>
<path d="M274.746 149.139C286.73 155.018 291.764 169.694 285.969 181.852C280.173 194.01 265.707 199.117 253.726 193.238C241.742 187.358 236.708 172.682 242.503 160.528C248.298 148.37 262.765 143.263 274.749 149.143L274.746 149.139ZM276.599 145.248C262.478 138.32 245.493 144.315 238.664 158.644C231.835 172.97 237.745 190.201 251.869 197.129C265.99 204.056 282.976 198.061 289.804 183.736C296.633 169.411 290.724 152.179 276.599 145.252V145.248Z" fill="white"/>
<path d="M192.205 237.613C191.348 237.725 190.605 238.277 190.23 239.068L188.954 241.757C188.759 242.164 188.469 242.511 188.101 242.768L182.416 246.76C181.997 247.055 181.497 247.215 180.986 247.223L180.276 247.234C179.092 247.252 178.07 248.088 177.808 249.263L177.742 249.554C177.599 250.196 177.216 250.763 176.683 251.136L167.497 257.448C166.427 258.179 164.989 257.996 164.133 257.015L162.981 255.698C162.128 254.721 162.125 253.251 162.97 252.263L170.263 243.779C170.693 243.287 171.292 242.97 171.936 242.903L172.23 242.873C173.41 242.75 174.352 241.824 174.514 240.634L174.609 239.922C174.679 239.407 174.896 238.922 175.234 238.538L179.831 233.3C180.125 232.964 180.504 232.711 180.923 232.565L183.707 231.61C184.527 231.327 185.156 230.648 185.369 229.801L185.755 228.286C185.884 227.79 186.152 227.346 186.527 227.003L206.403 208.97C207.433 208.029 209.018 208.093 209.974 209.111L212.798 212.111L212.842 212.163L215.435 215.371C216.314 216.46 216.181 218.061 215.137 218.986L195.077 236.811C194.695 237.146 194.228 237.363 193.728 237.43L192.198 237.635L192.205 237.613Z" fill="white"/>
<g style="mix-blend-mode:multiply" opacity="0.2">
<path d="M204.906 220.116L163.996 256.851L163.125 255.851L204.035 219.116C204.307 218.874 204.719 218.9 204.958 219.172C205.197 219.448 205.175 219.87 204.906 220.116Z" fill="#F28135"/>
</g>
<path d="M251.572 207.995C256.268 202.049 256.58 194.394 252.473 189.686L239.587 174.917C235.48 170.209 227.952 169.593 221.561 173.6C215.571 177.356 208.599 183.612 204.197 189.19C199.501 195.136 199.188 202.791 203.296 207.499L216.181 222.268C220.289 226.976 227.816 227.592 234.207 223.585C240.198 219.829 247.17 213.573 251.572 207.995ZM245.456 194.226L234.292 181.43C233.318 180.315 233.501 178.535 234.696 177.461C235.892 176.386 237.653 176.424 238.627 177.539L249.792 190.335C250.766 191.45 250.586 193.226 249.391 194.301C248.196 195.375 246.431 195.341 245.456 194.226Z" fill="#F28135"/>
<g style="mix-blend-mode:overlay" opacity="0.4">
<path d="M241.823 205.825C244.846 201.993 245.048 197.069 242.404 194.036L234.108 184.531C231.464 181.498 226.618 181.102 222.506 183.684C218.649 186.101 215.192 189.205 212.357 192.797C209.334 196.629 209.132 201.553 211.78 204.586L220.076 214.091C222.72 217.124 227.566 217.52 231.677 214.938C235.535 212.521 238.992 209.417 241.827 205.825H241.823Z" fill="white"/>
</g>
<path d="M217.483 187.505L216.685 188.222L236.737 211.208L237.536 210.491L217.483 187.505Z" fill="#F28135"/>
<path d="M298.803 195.663C295.339 188.899 288.569 185.508 282.659 187.414L264.133 193.387C258.22 195.293 254.624 202.023 255.642 209.578C256.602 216.654 265.229 244.19 268.472 250.532C271.936 257.295 278.706 260.686 284.616 258.78L303.142 252.807C309.055 250.901 312.652 244.171 311.633 236.617C310.673 229.54 302.046 202.005 298.803 195.663ZM283.976 195.972L267.928 201.147C266.527 201.598 264.997 200.714 264.516 199.169C264.03 197.625 264.777 196.002 266.174 195.551L282.222 190.376C283.623 189.925 285.153 190.813 285.638 192.361C286.123 193.906 285.377 195.525 283.976 195.976V195.972Z" fill="#F28135"/>
<path d="M294.872 249.8C295.328 251.259 294.534 252.822 293.092 253.285C291.655 253.747 290.114 252.941 289.658 251.479C289.202 250.02 289.996 248.457 291.438 247.995C292.875 247.532 294.416 248.338 294.872 249.8Z" fill="white"/>
<g style="mix-blend-mode:overlay" opacity="0.4">
<path d="M293.055 204.344C290.827 199.99 286.469 197.808 282.667 199.035L270.741 202.881C266.939 204.109 264.619 208.44 265.281 213.301C265.898 217.856 272.135 237.769 274.224 241.851C276.452 246.204 280.81 248.386 284.612 247.159L296.538 243.313C300.34 242.086 302.66 237.754 301.999 232.893C301.381 228.338 295.144 208.425 293.055 204.344Z" fill="white"/>
</g>
<path d="M295.26 209.505L266.425 218.804L266.748 219.835L295.583 210.536L295.26 209.505Z" fill="#F28135"/>
<path d="M300.525 226.314L271.689 235.61L272.012 236.641L300.848 227.345L300.525 226.314Z" fill="#F28135"/>
<path d="M284.271 184.848C282.094 188.134 279.218 190.749 275.949 192.588C277.515 193.327 279.097 194.021 280.7 194.67C283.862 192.391 286.595 189.421 288.669 185.859C287.201 185.527 285.738 185.18 284.271 184.848Z" fill="white"/>
<path d="M240.175 172.981C238.749 172.294 237.322 171.6 235.832 171.086C235.825 174.227 236.322 177.331 237.289 180.278C239.308 181.125 241.201 182.262 243.191 183.161C241.47 180.039 240.444 176.558 240.175 172.984V172.981Z" fill="white"/>
</svg>
