<svg width="420" height="293" viewBox="0 0 420 293" fill="none" xmlns="http://www.w3.org/2000/svg">
<g clip-path="url(#clip0_9_584)">
<path d="M28.8846 150.954C41.9351 81.6998 124.502 102.68 160.666 78.6754C187.208 61.056 229.556 5.72517 289.412 27.7214C372.597 58.293 378.768 195.958 298.932 245.742C257.775 271.41 161.396 287.246 91.4305 255.766C58.137 240.785 18.4335 206.417 28.8846 150.954Z" fill="#9FC4F8"/>
<path d="M215.072 292C313.374 292 393.062 281.439 393.062 268.411C393.062 255.383 313.374 244.821 215.072 244.821C116.771 244.821 37.0824 255.383 37.0824 268.411C37.0824 281.439 116.771 292 215.072 292Z" fill="#557DE0"/>
<g filter="url(#filter0_d_9_584)">
<path d="M165.86 58.5351L118.95 76.8066L72.0393 58.5351L25.115 76.8066V225.893L72.0393 207.621L118.95 225.893L165.86 207.621L212.77 225.893V76.8066L165.86 58.5351Z" fill="#557DE0"/>
<path d="M212.77 89.0815L180.376 68.3325L172.95 61.2942L169.139 59.8161L178.891 69.0645L159.723 97.6824L152.395 90.9115L157.705 61.7165L156.024 62.3781L151.05 89.6868L148.402 87.2375C148.136 86.9982 147.757 86.97 147.463 87.153L116.105 107.283L109.996 73.3579L108.315 72.6963L114.634 107.775H69.6435L78.4707 87.7583C78.6388 87.3783 78.4707 86.9137 78.0924 86.7448L59.6533 78.2143L92.0338 66.3477L89.862 65.5031L57.6777 77.2994L42.2511 70.1625L40.2475 70.9367L56.1925 78.3129L39.7011 91.8828L33.1297 73.7098L31.7005 74.2729L38.1458 92.108L25.1152 89.1238V90.7144L37.6414 93.5861L25.1152 103.904V105.903L39.4348 94.1069L67.4717 108.916L54.273 138.843C54.273 138.843 54.2589 138.913 54.2449 138.955C54.2449 138.998 54.2169 139.04 54.2169 139.082C54.2169 139.138 54.2169 139.209 54.2169 139.265C54.2169 139.293 54.2169 139.321 54.2169 139.349L63.2122 173.148L48.9766 171.853L39.9673 157.72L25.0731 134.352V137.224L34.6289 152.216L28.59 157.283L25.0871 151.315V154.355L35.3715 171.838C35.4276 171.937 35.5116 172.007 35.5957 172.078C35.6237 172.092 35.6658 172.106 35.6938 172.12C35.7358 172.148 35.7919 172.176 35.8479 172.19C35.8759 172.19 35.904 172.19 35.932 172.19C35.932 172.19 35.946 172.19 35.96 172.19L45.9361 173.105L25.0871 184.479V186.239L48.7104 173.359L62.7499 174.64L45.5859 196.064L25.0871 205.89V207.607L43.358 198.852L25.0871 221.67V224.133L46.5667 197.317L55.1697 193.193C56.6829 195.755 59.4572 197.472 62.6238 197.472C63.8848 197.472 65.0758 197.191 66.1687 196.712L72.3057 207.762L74.5615 208.635L67.5138 195.966C68.4105 195.347 69.1951 194.572 69.7976 193.657L123.966 223.936L125.829 223.204L105.401 211.788L103.425 199.612L122.537 204.553C122.537 204.553 122.663 204.581 122.733 204.581C123.055 204.581 123.349 204.384 123.461 204.06L129.893 185.169L145.88 203.905L143.554 216.307L145.249 215.645L147.169 205.397L153.25 212.52L154.777 211.929L147.533 203.455L149.677 191.996L153.754 191.715C153.838 191.743 153.922 191.799 154.02 191.799C154.118 191.799 154.231 191.771 154.329 191.729C154.357 191.729 154.371 191.687 154.399 191.673L184.411 189.561L212.714 211.915V209.944L185.336 188.322L176.285 150.371L188.755 145.98L212.714 189.913V186.689L190.226 145.445L203.579 140.743L212.728 165.208V160.802L204.77 139.49L181.301 70.7818L212.728 90.9256V89.0956L212.77 89.0815ZM35.7779 169.389L29.4307 158.592L35.5116 153.482L38.5241 158.212L35.7638 169.389H35.7779ZM37.0249 170.726L39.673 160.014L47.0851 171.641L37.0249 170.726ZM48.8365 194.516L54.0348 188.027C54.0207 188.266 53.9927 188.491 53.9927 188.73C53.9927 189.8 54.1889 190.814 54.5532 191.771L48.8365 194.502V194.516ZM147.827 88.7578L159.078 99.1745C159.135 99.3435 159.219 99.4842 159.373 99.5968C159.443 99.6391 159.527 99.6531 159.611 99.6672L174.953 113.871L168.971 128.553L158.882 120.81C158.882 120.81 158.742 120.74 158.672 120.712C158.658 120.712 158.644 120.698 158.63 120.684L131.588 112.547L117.394 108.282L147.799 88.7719L147.827 88.7578ZM176.172 114.983L179.255 117.826L173.861 132.283L170.246 129.51L176.158 114.969L176.172 114.983ZM124.891 150.005L112.771 137.759L131.672 114.18L140.962 116.982L132.751 125.413C132.583 125.582 132.513 125.808 132.541 126.033C132.569 126.258 132.695 126.469 132.891 126.596L143.54 133.536L124.905 149.991L124.891 150.005ZM139.687 138.998L150.658 149.935L137.697 179.102L112.995 162.562L139.687 138.983V138.998ZM134.502 125.808L142.615 117.474L156.865 121.754L144.731 132.48L134.502 125.808ZM115.475 109.31L130.075 113.702L111.678 136.647L104.504 129.397L101.113 109.296H115.475V109.31ZM99.5439 109.31L103.019 129.904C103.047 130.059 103.117 130.214 103.229 130.326L123.728 151.033L111.832 161.548L70.0919 109.31H99.5439ZM40.7379 93.0089L57.7478 79.0026L76.7753 87.8146L68.1163 107.466L40.7379 93.0089ZM68.6767 110.014L110.137 161.886H96.8957L55.9823 138.8L68.6767 110.014ZM55.9543 191.095C55.6881 190.349 55.52 189.561 55.52 188.73C55.52 184.775 58.7146 181.565 62.6518 181.565C64.6834 181.565 66.5049 182.438 67.808 183.804L66.6731 184.676C65.6362 183.649 64.2211 183.001 62.6518 183.001C59.4992 183.001 56.9491 185.577 56.9491 188.73C56.9491 189.336 57.0752 189.913 57.2434 190.462L55.9403 191.081L55.9543 191.095ZM62.2595 188.083L58.6445 189.814C58.5604 189.477 58.4904 189.125 58.4904 188.745C58.4904 186.436 60.3539 184.564 62.6518 184.564C63.7167 184.564 64.6834 184.986 65.4261 185.648L62.2455 188.083H62.2595ZM63.9829 192.7C63.5625 192.841 63.1282 192.939 62.6658 192.939C61.2927 192.939 60.0737 192.25 59.3171 191.222L62.3435 189.772L63.9829 192.714V192.7ZM66.3648 186.872C66.6451 187.435 66.8272 188.069 66.8272 188.745C66.8272 189.209 66.7291 189.645 66.603 190.054L64.0669 188.632L66.3788 186.858L66.3648 186.872ZM62.6658 195.91C60.1017 195.91 57.8739 194.53 56.6129 192.503L57.9019 191.884C58.9247 193.446 60.6762 194.474 62.6658 194.474C63.4084 194.474 64.095 194.319 64.7395 194.066L65.4541 195.332C64.5994 195.698 63.6606 195.91 62.6658 195.91ZM65.328 191.94L64.6554 190.743L65.8464 191.405C65.6923 191.602 65.5101 191.771 65.314 191.94H65.328ZM66.7852 194.572L66.0846 193.305C66.5189 192.982 66.8973 192.602 67.2195 192.165L68.4805 192.869C68.0182 193.531 67.4437 194.094 66.7992 194.572H66.7852ZM69.2372 191.532L67.9621 190.828C68.2143 190.18 68.3685 189.491 68.3685 188.745C68.3685 187.717 68.0742 186.76 67.5978 185.929L68.7468 185.056C69.4053 186.14 69.7976 187.393 69.7976 188.745C69.7976 189.73 69.6015 190.673 69.2372 191.532ZM69.055 182.875C67.4717 181.129 65.1879 180.031 62.6658 180.031C61.7831 180.031 60.9424 180.172 60.1297 180.411L64.8796 174.485C64.8796 174.485 64.8936 174.443 64.9076 174.429C64.9497 174.372 64.9777 174.302 65.0057 174.231C65.0057 174.189 65.0337 174.161 65.0337 174.133C65.0337 174.119 65.0337 174.105 65.0477 174.077C65.0477 174.006 65.0477 173.95 65.0197 173.88C65.0197 173.851 65.0197 173.823 65.0197 173.809L56.2065 140.715L95.2984 162.773L69.055 182.889V182.875ZM103.719 210.817L70.5823 192.292C71.0587 191.208 71.3389 190.011 71.3389 188.745C71.3389 187.041 70.8345 185.451 69.9938 184.099L96.1531 164.054L101.772 198.669L103.733 210.803L103.719 210.817ZM122.27 202.863L103.201 197.937L97.6103 163.435H111.398L128.786 183.79L122.284 202.863H122.27ZM149.018 190.476C148.668 190.504 148.388 190.758 148.318 191.109L146.286 201.934L115.951 166.405L151.624 190.293L149.018 190.476ZM153.488 189.688L139 179.975L152.283 150.076C152.409 149.78 152.353 149.442 152.129 149.217L140.864 137.97L158.476 122.415L163.506 126.272L153.502 189.674L153.488 189.688ZM175.164 149.119C174.785 149.245 174.575 149.639 174.673 150.034L183.739 188.027L154.987 190.054L164.879 127.342L187.564 144.755L175.164 149.119ZM189.301 144.15L175.136 133.282L180.474 118.98L202.626 139.476L189.315 144.164L189.301 144.15ZM202.374 137.125L180.684 117.066L176.425 113.125L160.886 98.7522L168.102 87.9695L173.608 95.0782C173.762 95.2753 173.987 95.3738 174.211 95.3738C174.267 95.3738 174.337 95.3738 174.393 95.3598L187.059 92.3192L202.374 137.139V137.125ZM186.555 90.8271L174.519 93.7128L169.013 86.59L179.675 70.6552L186.555 90.813V90.8271Z" fill="#DB8C4B"/>
<path d="M184.972 97.809L116.092 111.632L127.567 88.9829L146.356 66.1364L137.543 69.5712L123.84 86.2239C123.728 86.3506 123.644 86.4914 123.56 86.6462L93.6873 145.599L92.2021 66.4039L87.5503 64.588L89.1056 147.795L54.6234 101.666C54.2451 101.159 53.6846 100.836 53.0681 100.765C52.4516 100.681 51.8211 100.864 51.3447 101.244L25.1013 122.148V128.074L35.5258 119.769L51.3167 162.224C51.639 163.097 52.4516 163.688 53.3764 163.73L94.6681 165.462L80.6146 211L84.9302 212.675L98.6193 168.291L112.645 187.055C113.359 188.012 114.676 188.266 115.685 187.647L135.553 175.555L125.998 223.134L131.112 221.149L140.92 172.289L145.684 169.389L174.477 151.878L212.728 190.49V183.916L176.467 147.317C175.724 146.557 174.547 146.416 173.637 146.965L145.221 164.251L115.559 116.475L184.537 102.637L212.728 134.577V127.581L187.116 98.5551C186.569 97.9357 185.742 97.6542 184.93 97.8231L184.972 97.809ZM55.1278 159.141L39.3509 116.714L52.3676 106.339L93.0148 160.718L55.1278 159.127V159.141ZM141.312 166.644L137.669 168.854C137.669 168.854 137.627 168.882 137.599 168.896L115.125 182.565L94.2758 154.665L112.07 119.543L141.312 166.63V166.644Z" fill="#F8C1A8"/>
<path opacity="0.15" d="M72.0393 207.621L25.115 225.893V76.8066L72.0393 58.5351V207.621Z" fill="white"/>
<path opacity="0.15" d="M165.86 207.621L118.95 225.893V76.8067L165.86 58.5352V207.621Z" fill="white"/>
<path d="M191.095 148.852C191.095 150.654 183.949 152.132 175.136 152.132C166.323 152.132 159.177 150.668 159.177 148.852C159.177 147.036 166.323 145.572 175.136 145.572C183.949 145.572 191.095 147.036 191.095 148.852Z" fill="#DB8C4B"/>
<path opacity="0.25" d="M187.354 148.851C187.354 150.231 181.876 151.357 175.136 151.357C168.397 151.357 162.918 150.231 162.918 148.851C162.918 147.472 168.397 146.346 175.136 146.346C181.876 146.346 187.354 147.472 187.354 148.851Z" fill="white"/>
<path d="M164.641 125.498C164.641 119.67 169.349 114.955 175.136 114.955C180.923 114.955 185.631 119.684 185.631 125.498C185.631 129.918 179.592 142.39 176.677 148.176C176.033 149.443 174.225 149.443 173.595 148.176C170.68 142.404 164.641 129.918 164.641 125.498Z" fill="#29478C"/>
<path d="M169.181 125.498C169.181 122.19 171.843 119.516 175.136 119.516C178.429 119.516 181.091 122.19 181.091 125.498C181.091 128.806 178.429 131.481 175.136 131.481C171.843 131.481 169.181 128.806 169.181 125.498Z" fill="#F28135"/>
<path d="M68.929 161.647C68.929 163.449 61.7832 164.927 52.97 164.927C44.1568 164.927 37.011 163.463 37.011 161.647C37.011 159.831 44.1568 158.367 52.97 158.367C61.7832 158.367 68.929 159.831 68.929 161.647Z" fill="#DB8C4B"/>
<path opacity="0.25" d="M65.2019 161.647C65.2019 163.026 59.7235 164.152 52.984 164.152C46.2445 164.152 40.766 163.026 40.766 161.647C40.766 160.267 46.2445 159.141 52.984 159.141C59.7235 159.141 65.2019 160.267 65.2019 161.647Z" fill="white"/>
<path d="M42.4753 138.308C42.4753 132.481 47.1832 127.765 52.9699 127.765C58.7566 127.765 63.4645 132.495 63.4645 138.308C63.4645 142.728 57.4255 155.2 54.5112 160.986C53.8666 162.253 52.0592 162.253 51.4286 160.986C48.5143 155.215 42.4753 142.728 42.4753 138.308Z" fill="#29478C"/>
<path d="M47.0293 138.308C47.0293 135 49.6915 132.325 52.9842 132.325C56.2768 132.325 58.939 135 58.939 138.308C58.939 141.616 56.2768 144.29 52.9842 144.29C49.6915 144.29 47.0293 141.616 47.0293 138.308Z" fill="#F28135"/>
<path d="M125.577 185.817C125.577 187.014 120.855 187.985 115.041 187.985C109.226 187.985 104.504 187.014 104.504 185.817C104.504 184.621 109.226 183.649 115.041 183.649C120.855 183.649 125.577 184.621 125.577 185.817Z" fill="#DB8C4B"/>
<path opacity="0.25" d="M123.111 185.817C123.111 186.732 119.496 187.478 115.041 187.478C110.585 187.478 106.97 186.732 106.97 185.817C106.97 184.902 110.585 184.156 115.041 184.156C119.496 184.156 123.111 184.902 123.111 185.817Z" fill="white"/>
<path d="M108.105 170.389C108.105 166.546 111.216 163.421 115.041 163.421C118.866 163.421 121.977 166.546 121.977 170.389C121.977 173.303 117.983 181.552 116.064 185.367C115.643 186.211 114.452 186.211 114.018 185.367C112.084 181.552 108.105 173.303 108.105 170.389Z" fill="#29478C"/>
<path d="M111.104 170.389C111.104 168.207 112.869 166.434 115.041 166.434C117.213 166.434 118.978 168.207 118.978 170.389C118.978 172.571 117.213 174.345 115.041 174.345C112.869 174.345 111.104 172.571 111.104 170.389Z" fill="#F28135"/>
<path d="M112.771 116.982C118.59 116.982 123.307 116.011 123.307 114.814C123.307 113.617 118.59 112.646 112.771 112.646C106.952 112.646 102.234 113.617 102.234 114.814C102.234 116.011 106.952 116.982 112.771 116.982Z" fill="#DB8C4B"/>
<path opacity="0.25" d="M120.841 114.814C120.841 115.729 117.227 116.475 112.771 116.475C108.315 116.475 104.7 115.729 104.7 114.814C104.7 113.899 108.315 113.153 112.771 113.153C117.227 113.153 120.841 113.899 120.841 114.814Z" fill="white"/>
<path d="M105.835 99.3862C105.835 95.5432 108.946 92.4182 112.771 92.4182C116.596 92.4182 119.707 95.5432 119.707 99.3862C119.707 102.3 115.713 110.549 113.794 114.364C113.373 115.208 112.182 115.208 111.748 114.364C109.815 110.549 105.835 102.3 105.835 99.3862Z" fill="#29478C"/>
<path d="M108.834 99.3861C108.834 97.2042 110.599 95.4305 112.771 95.4305C114.943 95.4305 116.708 97.2042 116.708 99.3861C116.708 101.568 114.943 103.342 112.771 103.342C110.599 103.342 108.834 101.568 108.834 99.3861Z" fill="#F28135"/>
</g>
<path d="M74.0816 202.513C73.9539 203.513 73.9251 204.517 74.0445 205.521C74.2629 207.313 74.9673 209.039 75.3875 210.811C75.9436 213.138 75.9972 215.519 76.0301 217.893C76.0507 219.855 76.0425 221.863 75.3545 223.734C74.1187 227.082 70.8108 229.733 69.9333 233.164C69.5049 234.844 69.6944 236.591 69.5214 238.308C69.3937 239.578 69.0023 240.913 68.1455 241.93H64.2196C64.7963 240.246 65.3154 238.536 65.7603 236.835C66.1681 235.263 66.5471 233.579 66.5471 231.894C66.5471 231.583 66.5389 231.268 66.5265 230.961C66.4894 230.139 66.4606 229.372 66.6501 228.617C66.8643 227.762 67.3586 226.982 67.8777 226.157C68.0342 225.899 68.199 225.642 68.3514 225.385C69.8756 222.792 70.5636 219.9 70.337 217.009C70.2793 216.295 70.164 215.578 70.0569 214.885C69.9086 213.939 69.7521 212.947 69.7479 211.989C69.7397 208.637 71.5481 205.401 73.1383 202.547C73.163 202.497 73.1795 202.443 73.1795 202.397L74.094 202.513H74.0816Z" fill="#29478C"/>
<path d="M75.4822 196.996C74.9054 198.809 74.3205 200.655 74.0816 202.513L73.167 202.397C73.167 202.285 73.1094 202.186 73.0146 202.128C72.8663 202.04 72.6768 202.098 72.5944 202.244C70.9631 205.168 69.1094 208.475 69.1258 211.993C69.1258 213.009 69.2906 214.013 69.443 214.988C69.5501 215.669 69.6572 216.378 69.7149 217.067C69.9291 219.83 69.2741 222.601 67.8158 225.074C67.6675 225.327 67.5069 225.58 67.3503 225.833C66.8272 226.663 66.2916 227.522 66.0486 228.472C65.8385 229.31 65.8714 230.164 65.9044 230.986C65.9168 231.293 65.9291 231.596 65.9291 231.898C65.9291 233.512 65.5584 235.151 65.1588 236.678C64.6974 238.433 64.166 240.196 63.5687 241.93H61.5172C61.443 238.93 61.3771 235.931 61.303 232.931C61.2535 230.882 61.2165 228.774 62.0197 226.841C62.856 224.833 64.5409 223.153 65.4883 221.178C66.8601 218.341 66.6047 215.15 66.4894 212.084C66.374 209.014 66.4853 205.753 68.4379 203.169C69.27 202.065 70.3905 201.144 71.5028 200.236C72.8292 199.153 74.1598 198.07 75.4822 196.987V196.996Z" fill="#29478C"/>
<path d="M58.4193 194.407C58.4275 194.378 58.4317 194.34 58.4317 194.311L59.3544 194.27C59.3833 195.473 59.5192 196.668 59.7993 197.842C60.306 199.929 61.2741 201.87 61.9703 203.899C62.8889 206.567 63.3297 209.375 63.7334 212.163C64.0671 214.478 64.3802 216.847 63.9929 219.154C63.3009 223.273 60.4461 226.845 60.1248 231.011C59.9682 233.052 60.4337 235.085 60.5326 237.134C60.615 238.785 60.4049 240.561 59.548 241.934H55.8817C56.1701 239.926 56.4008 237.897 56.5697 235.881C56.7221 233.981 56.8292 231.948 56.5655 229.978C56.5161 229.608 56.4543 229.247 56.3884 228.878C56.2236 227.912 56.0712 226.999 56.1412 226.069C56.2195 225.016 56.5985 223.979 56.9651 222.979C57.0887 222.655 57.2082 222.327 57.3153 222.004C58.4069 218.755 58.6253 215.271 57.9414 211.914C57.7726 211.085 57.5501 210.259 57.3318 209.454C57.0269 208.346 56.718 207.205 56.5614 206.056C56.0135 202.074 57.2906 198.004 58.4193 194.407Z" fill="#29478C"/>
<path d="M59.8611 187.582C59.581 189.798 59.2968 192.046 59.3544 194.27L58.4317 194.311C58.4317 194.183 58.3534 194.063 58.2216 194.021C58.0568 193.967 57.8838 194.063 57.8344 194.224C56.6809 197.883 55.3792 202.024 55.9476 206.148C56.1165 207.33 56.4296 208.496 56.7386 209.62C56.9528 210.412 57.1752 211.23 57.34 212.043C57.9991 215.291 57.789 218.664 56.7345 221.805C56.6232 222.124 56.5038 222.444 56.3925 222.763C56.0094 223.804 55.614 224.883 55.5316 226.028C55.4533 227.028 55.6222 228.028 55.787 228.986C55.8488 229.343 55.9106 229.704 55.96 230.061C56.2154 231.973 56.1083 233.964 55.96 235.827C55.7911 237.86 55.5604 239.905 55.2638 241.93H53.097C52.5779 238.59 52.0589 235.25 51.5398 231.907C51.1649 229.496 50.7901 227.02 51.2803 224.63C51.787 222.145 53.1835 219.934 53.8138 217.482C54.72 213.943 53.9621 210.217 53.3606 206.612C52.7592 203.011 52.3472 199.153 53.8673 195.83C54.5182 194.415 55.4821 193.183 56.442 191.959C57.5872 190.503 58.7283 189.043 59.8694 187.582H59.8611Z" fill="#29478C"/>
<path d="M41.8055 202.057C42.0568 203.086 42.407 204.086 42.9137 205.048C43.787 206.691 45.0929 208.143 46.1434 209.715C47.5275 211.777 48.4667 214.026 49.3689 216.27C50.1186 218.129 50.8519 220.037 50.8849 222.004C50.9013 222.842 50.7901 223.667 50.6171 224.497C50.0692 227.132 48.891 229.733 49.2247 232.392C49.4348 234.105 50.2628 235.715 50.7324 237.387C51.1526 238.897 51.2433 240.586 50.3946 241.93H47.0167C46.9384 240.27 46.8025 238.598 46.6047 236.951C46.4152 235.354 46.1516 233.653 45.5295 232.052C45.4142 231.753 45.2865 231.463 45.1588 231.172C44.8251 230.405 44.5079 229.679 44.4091 228.911C44.2978 228.044 44.475 227.181 44.6645 226.26C44.7221 225.974 44.7798 225.684 44.8334 225.397C45.3277 222.531 44.9075 219.598 43.6222 216.913C43.305 216.254 42.9302 215.602 42.5718 214.972C42.0774 214.105 41.5625 213.209 41.2082 212.296C39.9559 209.11 40.4791 205.563 40.9405 202.43C40.9487 202.376 40.9405 202.323 40.9281 202.281L41.8097 202.049L41.8055 202.057Z" fill="#29478C"/>
<path d="M41.1258 196.564C41.2453 198.398 41.373 200.265 41.8055 202.057L40.924 202.289C40.8828 202.186 40.7921 202.107 40.6768 202.086C40.5038 202.065 40.3514 202.177 40.3266 202.347C39.857 205.558 39.3215 209.197 40.6315 212.532C41.0064 213.495 41.5295 214.408 42.0403 215.291C42.3905 215.909 42.7571 216.548 43.0661 217.191C44.2978 219.755 44.6933 222.56 44.2237 225.298C44.1742 225.58 44.1166 225.862 44.0589 226.14C43.8694 227.069 43.6758 228.028 43.7993 228.998C43.9065 229.853 44.2566 230.654 44.5903 231.425C44.7139 231.712 44.8416 231.998 44.9528 232.284C45.5172 233.732 45.7767 235.23 45.9909 237.034C46.1845 238.661 46.3205 240.304 46.3987 241.938H44.0383C43.0043 239.445 41.9703 236.956 40.9363 234.466C40.133 232.529 39.3174 230.542 39.3668 228.492C39.4162 226.368 40.3967 224.319 40.5738 222.199C40.8251 219.137 39.4039 216.179 38.1639 213.292C36.924 210.408 35.8241 207.284 36.718 204.31C37.1011 203.044 37.8302 201.874 38.5511 200.717C39.408 199.335 40.269 197.958 41.1299 196.577L41.1258 196.564Z" fill="#29478C"/>
<path d="M70.9179 249.53L67.5893 273.165H42.9137L42.7778 272.194L64.4256 270.157L66.2423 252.384L41.5007 249.53H70.9138H70.9179Z" fill="#E59F03"/>
<path d="M53.0929 241.934H55.2597C55.1897 242.436 55.1114 242.934 55.029 243.432C55.0043 243.602 55.1155 243.759 55.2844 243.788H55.3339C55.4822 243.788 55.614 243.681 55.6428 243.531C55.7252 243 55.8117 242.469 55.8859 241.934H63.5605C63.4492 242.258 63.338 242.577 63.2227 242.896C63.165 243.054 63.2474 243.233 63.408 243.295C63.4451 243.303 63.4781 243.311 63.5151 243.311C63.6428 243.311 63.7623 243.233 63.8035 243.108C63.9436 242.718 64.0795 242.328 64.2113 241.934H71.9889L70.9219 249.53H41.5048L66.2463 252.385L64.4297 270.162L42.7818 272.199L38.5182 241.934H46.3987C46.4193 242.44 46.4399 242.938 46.4523 243.44C46.4564 243.61 46.5924 243.743 46.7613 243.743H46.7695C46.9425 243.739 47.0743 243.598 47.0702 243.423C47.0579 242.926 47.0414 242.432 47.0167 241.934H53.097H53.0929Z" fill="#FFB600"/>
<path d="M66.5388 231.898C66.5388 233.583 66.1598 235.263 65.752 236.839C65.3071 238.54 64.788 240.25 64.2113 241.934H63.5604C64.1577 240.196 64.6892 238.437 65.1505 236.682C65.5501 235.155 65.9209 233.516 65.9209 231.903C65.9209 231.6 65.9085 231.297 65.8962 230.99C65.8673 230.164 65.8302 229.31 66.0403 228.476C66.2834 227.522 66.8189 226.663 67.3421 225.837C67.4986 225.584 67.6593 225.331 67.8076 225.078C69.2659 222.601 69.925 219.834 69.7067 217.071C69.649 216.387 69.5378 215.677 69.4348 214.993C69.2824 214.018 69.1176 213.014 69.1176 211.997C69.1052 208.479 70.9549 205.173 72.5862 202.248C72.6686 202.103 72.8581 202.045 73.0064 202.132C73.1011 202.19 73.1588 202.289 73.1588 202.401C73.1588 202.451 73.1464 202.505 73.1176 202.551C71.5234 205.409 69.719 208.641 69.7273 211.993C69.7314 212.956 69.8838 213.943 70.0362 214.889C70.1475 215.586 70.2587 216.304 70.3164 217.013C70.547 219.905 69.8591 222.796 68.3308 225.389C68.1783 225.646 68.0136 225.904 67.857 226.161C67.338 226.986 66.8436 227.766 66.6294 228.621C66.4399 229.376 66.4729 230.144 66.5058 230.965C66.5182 231.276 66.5264 231.591 66.5264 231.898H66.5388Z" fill="#6E90E5"/>
<path d="M64.2113 241.934C64.0795 242.328 63.9436 242.718 63.8035 243.108C63.7582 243.233 63.6387 243.311 63.5151 243.311C63.4781 243.311 63.4451 243.303 63.408 243.295C63.2515 243.233 63.165 243.054 63.2227 242.896C63.338 242.577 63.4534 242.258 63.5605 241.934H64.2113Z" fill="#FFB600"/>
<path d="M57.3318 209.454C57.5502 210.255 57.7767 211.084 57.9415 211.914C58.6295 215.27 58.407 218.76 57.3154 222.004C57.2041 222.327 57.0847 222.655 56.9652 222.979C56.5986 223.979 56.2237 225.016 56.1413 226.069C56.0713 226.999 56.2237 227.911 56.3885 228.878C56.4544 229.247 56.5162 229.608 56.5656 229.978C56.8293 231.948 56.7221 233.981 56.5697 235.881C56.4008 237.897 56.1743 239.926 55.8818 241.934H55.2556C55.5522 239.909 55.7829 237.864 55.9518 235.831C56.1001 233.964 56.2072 231.977 55.9518 230.065C55.9024 229.708 55.8406 229.347 55.7788 228.99C55.614 228.028 55.4451 227.032 55.5234 226.032C55.6058 224.891 56.0012 223.808 56.3843 222.767C56.4997 222.448 56.6192 222.128 56.7263 221.809C57.7808 218.668 57.9909 215.291 57.3318 212.047C57.1629 211.234 56.9446 210.417 56.7304 209.624C56.4214 208.5 56.1042 207.334 55.9394 206.152C55.371 202.028 56.6727 197.888 57.8262 194.228C57.8756 194.067 58.0486 193.971 58.2134 194.025C58.3452 194.071 58.4235 194.191 58.4235 194.316C58.4235 194.345 58.4194 194.382 58.4111 194.411C57.2865 198.008 56.0054 202.078 56.5532 206.06C56.7057 207.21 57.0188 208.351 57.3236 209.458L57.3318 209.454Z" fill="#6E90E5"/>
<path d="M55.6429 243.531C55.6182 243.681 55.4863 243.788 55.3339 243.788H55.2845C55.1156 243.759 55.0043 243.598 55.0291 243.432C55.1073 242.934 55.1856 242.436 55.2598 241.934H55.8859C55.8118 242.469 55.7294 243 55.6429 243.531Z" fill="#FFB600"/>
<path d="M47.0661 243.423C47.0702 243.598 46.9384 243.739 46.7654 243.743H46.7572C46.5883 243.743 46.4523 243.61 46.4482 243.44C46.4359 242.938 46.4194 242.44 46.3947 241.934H47.0085C47.0291 242.432 47.0497 242.926 47.062 243.423H47.0661Z" fill="#FFB600"/>
<path d="M41.2082 212.304C41.5625 213.217 42.0774 214.113 42.5718 214.98C42.9343 215.611 43.305 216.262 43.6222 216.922C44.9075 219.606 45.3236 222.539 44.8334 225.406C44.7798 225.692 44.7221 225.982 44.6645 226.269C44.475 227.185 44.2978 228.048 44.4091 228.92C44.5038 229.687 44.821 230.413 45.1588 231.181C45.2865 231.471 45.4142 231.766 45.5296 232.06C46.1516 233.657 46.4152 235.358 46.6047 236.96C46.8025 238.607 46.9384 240.279 47.0167 241.938H46.4029C46.3246 240.304 46.1887 238.661 45.9951 237.034C45.7808 235.23 45.5213 233.736 44.957 232.284C44.8457 231.998 44.718 231.712 44.5944 231.425C44.2608 230.654 43.9065 229.853 43.8035 228.998C43.6799 228.028 43.8735 227.073 44.063 226.14C44.1207 225.862 44.1784 225.58 44.2278 225.298C44.6974 222.56 44.302 219.755 43.0702 217.191C42.7613 216.548 42.3988 215.909 42.0445 215.291C41.5337 214.403 41.0105 213.495 40.6356 212.532C39.3256 209.197 39.8612 205.558 40.3308 202.347C40.3555 202.177 40.512 202.065 40.6809 202.086C40.7963 202.107 40.8869 202.19 40.9281 202.289C40.9405 202.335 40.9487 202.385 40.9405 202.439C40.4791 205.571 39.9559 209.118 41.2082 212.304Z" fill="#6E90E5"/>
<path d="M268.127 70.7401L370.308 71.8602C375.925 72.0783 380.303 76.8775 380.088 82.5828L374.529 245.797C374.314 251.502 369.589 255.949 363.972 255.731L258.268 250.156C252.651 249.937 248.273 245.138 248.488 239.433L257.574 80.6699C257.789 74.9645 262.514 70.5178 268.131 70.7359L268.127 70.7401Z" fill="#F49642"/>
<g style="mix-blend-mode:overlay" opacity="0.4">
<path d="M268.127 70.7401L370.308 71.8602C375.925 72.0783 380.303 76.8775 380.088 82.5828L374.529 245.797C374.314 251.502 369.589 255.949 363.972 255.731L258.268 250.156C252.651 249.937 248.273 245.138 248.488 239.433L257.574 80.6699C257.789 74.9645 262.514 70.5178 268.131 70.7359L268.127 70.7401Z" fill="#283044"/>
</g>
<path d="M376.693 81.8827L371.138 245.101C370.919 250.806 366.198 255.253 360.577 255.031L346.659 254.301L332.827 253.571H332.785L326.218 253.223L317.305 252.757L299.042 251.792L279.266 250.756L254.874 249.464C251.049 249.317 247.794 247.052 246.179 243.809C245.428 242.286 245.023 240.558 245.093 238.737L254.171 79.9739C254.39 74.2686 259.111 69.8218 264.732 70.0441L366.913 71.1558C372.53 71.3782 376.908 76.1732 376.689 81.8827H376.693Z" fill="#F49642"/>
<path d="M263.323 76.6673C263.323 76.6673 255.649 232.129 241.565 236.412C241.565 236.412 272.976 238.61 303.493 239.63C328.498 240.464 352.899 241.769 358.929 229.784C368.618 203.283 368.874 77.2169 368.874 77.2169L263.327 76.6715L263.323 76.6673Z" fill="white"/>
<path d="M275.437 105.492C274.512 104.934 273.781 104.175 273.248 103.21C272.716 102.249 272.451 101.188 272.459 100.026C272.472 98.8429 272.74 97.7773 273.273 96.8292C273.806 95.8853 274.533 95.147 275.45 94.6142C276.367 94.0856 277.399 93.8213 278.543 93.8339C279.159 93.8381 279.766 93.9178 280.356 94.073C280.947 94.2283 281.455 94.4506 281.876 94.7275L281.389 97.4207C280.571 97.1019 279.828 96.9383 279.167 96.9341C278.254 96.9257 277.548 97.19 277.052 97.727C276.557 98.2639 276.305 99.0358 276.296 100.047C276.288 101.033 276.54 101.805 277.056 102.358C277.569 102.912 278.291 103.193 279.216 103.202C279.572 103.202 279.902 103.172 280.212 103.105C280.517 103.038 280.897 102.916 281.343 102.732L281.802 105.484C280.802 106.067 279.712 106.356 278.539 106.344C277.395 106.335 276.362 106.05 275.437 105.488V105.492Z" fill="#557DE0"/>
<path d="M285.668 94.1569L290.876 94.1988L294.184 106.205L290.157 106.172L289.732 103.868L286.684 103.843L286.167 106.134L282.31 106.104L285.668 94.1569ZM289.34 101.725L288.27 96.4768L287.06 101.704L289.34 101.721V101.725Z" fill="#557DE0"/>
<path d="M300.326 103.508L299.913 101.712L299.108 101.704L299.071 106.247L295.316 106.213L295.416 94.2407L300.607 94.2868C301.59 94.2952 302.453 94.4462 303.197 94.7525C303.944 95.0545 304.518 95.474 304.927 96.011C305.332 96.5438 305.534 97.1604 305.53 97.8568C305.522 98.6329 305.332 99.2832 304.956 99.8117C304.58 100.336 304.002 100.764 303.222 101.095C303.296 101.536 303.387 101.934 303.486 102.299C303.618 102.74 303.804 103.05 304.043 103.227C304.283 103.403 304.63 103.491 305.088 103.495C305.249 103.495 305.501 103.474 305.844 103.436L305.819 106.272C305.283 106.474 304.754 106.574 304.242 106.57C302.094 106.553 300.789 105.53 300.326 103.508ZM299.781 99.2706C300.628 99.279 301.223 99.1867 301.574 99.0021C301.925 98.8133 302.102 98.4861 302.106 98.0246C302.106 97.6303 301.97 97.3408 301.685 97.1605C301.4 96.9801 300.95 96.8836 300.335 96.8794L299.153 96.8668L299.133 99.2706H299.785H299.781Z" fill="#557DE0"/>
<path d="M315.492 103.638L315.079 101.842L314.274 101.834L314.236 106.377L310.482 106.348L310.581 94.3751L315.773 94.417C316.756 94.4254 317.619 94.5806 318.362 94.8827C319.11 95.1847 319.684 95.6042 320.093 96.1412C320.498 96.6782 320.7 97.2948 320.696 97.9912C320.688 98.7673 320.498 99.4176 320.122 99.9419C319.746 100.466 319.168 100.894 318.387 101.226C318.462 101.666 318.552 102.069 318.652 102.43C318.784 102.87 318.97 103.181 319.209 103.357C319.449 103.533 319.796 103.621 320.254 103.625C320.415 103.625 320.667 103.608 321.01 103.562L320.985 106.398C320.448 106.604 319.92 106.704 319.407 106.7C317.26 106.683 315.954 105.66 315.492 103.634V103.638ZM314.947 99.405C315.793 99.4092 316.388 99.3211 316.739 99.1323C317.09 98.9435 317.268 98.6205 317.272 98.1548C317.272 97.7605 317.136 97.471 316.851 97.2907C316.566 97.1103 316.116 97.0138 315.5 97.0096L314.319 97.0012L314.298 99.405H314.951H314.947Z" fill="#557DE0"/>
<path d="M322.547 94.4758L330.824 94.5471L330.799 97.1901L326.685 97.1565L326.669 99.3337L330.423 99.3673L330.406 101.561L326.652 101.528L326.631 103.843L330.745 103.877L330.724 106.524L322.448 106.453L322.547 94.48V94.4758Z" fill="#557DE0"/>
<path d="M332.74 94.5638L336.185 94.5932L340.827 101.091L340.881 94.6352L343.95 94.6603L343.85 106.633L340.422 106.604L335.743 100.332L335.693 106.562L332.641 106.537L332.74 94.5638Z" fill="#557DE0"/>
<path d="M347.989 97.3414L345.539 97.3204L345.564 94.6775L354.457 94.753L354.436 97.3959L351.987 97.3749L351.908 106.705L347.914 106.671L347.993 97.3414H347.989Z" fill="#557DE0"/>
<path d="M330.691 119.6C330.691 119.6 330.691 119.6 330.687 119.6L271.167 118.631C270.729 118.623 270.378 118.258 270.386 117.813C270.395 117.373 270.75 117.016 271.188 117.02H271.192L330.712 117.989C331.15 117.998 331.501 118.363 331.492 118.808C331.484 119.248 331.129 119.605 330.691 119.6Z" fill="#283044"/>
<path d="M329.906 128.829C329.906 128.829 329.906 128.829 329.902 128.829L270.357 127.86C269.919 127.852 269.568 127.487 269.576 127.042C269.585 126.602 269.94 126.245 270.378 126.249H270.382L329.927 127.218C330.364 127.227 330.711 127.592 330.707 128.036C330.699 128.477 330.344 128.833 329.906 128.829Z" fill="#283044"/>
<path d="M308.933 137.727C308.933 137.727 308.933 137.727 308.929 137.727L269.907 137.094C269.47 137.085 269.118 136.72 269.127 136.276C269.135 135.835 269.49 135.479 269.928 135.483L308.95 136.116C309.388 136.125 309.735 136.49 309.731 136.934C309.722 137.375 309.367 137.731 308.929 137.727H308.933Z" fill="#283044"/>
<path d="M354.778 138.419L334.825 138.21C334.61 138.21 334.404 138.113 334.255 137.958C334.106 137.798 334.032 137.58 334.04 137.362L335.023 118.715C335.044 118.287 335.399 117.952 335.825 117.956C335.825 117.956 335.824 117.956 335.829 117.956L355.782 118.27C355.996 118.275 356.203 118.367 356.347 118.526C356.496 118.686 356.57 118.9 356.558 119.118L355.575 137.66C355.55 138.088 355.199 138.424 354.774 138.419H354.778ZM335.668 136.607L354.034 136.8L354.935 119.864L336.568 119.575L335.672 136.607H335.668Z" fill="#283044"/>
<path d="M328.738 152.032C328.738 152.032 328.738 152.032 328.733 152.032L269.213 151.063C268.776 151.055 268.429 150.69 268.433 150.245C268.441 149.805 268.796 149.448 269.234 149.452C269.234 149.452 269.234 149.452 269.238 149.452L328.758 150.421C329.196 150.43 329.543 150.795 329.539 151.24C329.531 151.68 329.175 152.037 328.738 152.032Z" fill="#283044"/>
<path d="M327.952 161.262L268.408 160.293C267.97 160.284 267.623 159.919 267.627 159.475C267.635 159.034 267.99 158.678 268.428 158.682H268.432L327.977 159.651C328.415 159.659 328.762 160.024 328.758 160.469C328.75 160.909 328.394 161.266 327.957 161.262H327.952Z" fill="#283044"/>
<path d="M306.98 170.159L267.958 169.526C267.52 169.517 267.173 169.152 267.177 168.708C267.186 168.267 267.541 167.911 267.979 167.915L307.001 168.548C307.438 168.557 307.785 168.922 307.781 169.366C307.773 169.807 307.418 170.163 306.98 170.159Z" fill="#283044"/>
<path d="M352.829 170.852L332.876 170.642C332.662 170.642 332.455 170.545 332.306 170.39C332.158 170.231 332.083 170.013 332.092 169.795L333.075 151.147C333.095 150.719 333.45 150.384 333.876 150.388C333.876 150.388 333.876 150.388 333.88 150.388L353.833 150.703C354.048 150.707 354.254 150.799 354.399 150.959C354.547 151.118 354.622 151.332 354.609 151.55L353.626 170.092C353.602 170.52 353.251 170.856 352.825 170.852H352.829ZM333.719 169.039L352.086 169.232L352.986 152.297L334.619 152.007L333.723 169.039H333.719Z" fill="#283044"/>
<path d="M326.788 184.465L267.268 183.496C266.83 183.487 266.484 183.122 266.488 182.678C266.496 182.237 266.851 181.881 267.289 181.885C267.289 181.885 267.289 181.885 267.293 181.885L326.813 182.854C327.251 182.862 327.602 183.227 327.594 183.672C327.585 184.112 327.23 184.469 326.792 184.465H326.788Z" fill="#283044"/>
<path d="M326.003 193.694C326.003 193.694 326.003 193.694 325.999 193.694L266.454 192.725C266.016 192.716 265.665 192.351 265.674 191.907C265.682 191.466 266.037 191.11 266.475 191.114H266.479L326.024 192.083C326.462 192.091 326.809 192.456 326.805 192.901C326.796 193.342 326.441 193.698 326.003 193.694Z" fill="#283044"/>
<path d="M305.031 202.592L266.009 201.958C265.571 201.95 265.224 201.585 265.228 201.14C265.236 200.7 265.591 200.343 266.029 200.348L305.051 200.981C305.489 200.989 305.836 201.354 305.832 201.799C305.824 202.24 305.468 202.596 305.031 202.592Z" fill="#283044"/>
<path d="M350.876 203.284L330.923 203.074C330.708 203.074 330.502 202.978 330.353 202.823C330.204 202.663 330.13 202.445 330.142 202.227L331.125 183.58C331.146 183.152 331.501 182.816 331.926 182.82C331.926 182.82 331.926 182.82 331.931 182.82L351.883 183.135C352.098 183.139 352.305 183.232 352.449 183.391C352.598 183.55 352.672 183.764 352.66 183.982L351.677 202.525C351.652 202.953 351.301 203.288 350.876 203.284ZM331.769 201.472L350.136 201.665L351.037 184.729L332.67 184.44L331.774 201.472H331.769Z" fill="#283044"/>
<path d="M342.486 135.441C342.486 135.441 342.466 135.441 342.457 135.441C342.127 135.429 341.821 135.257 341.631 134.98L337.621 129.115C337.291 128.628 337.406 127.961 337.885 127.621C338.364 127.29 339.025 127.403 339.356 127.894L342.565 132.588L351.069 122C351.436 121.539 352.101 121.476 352.556 121.845C353.01 122.218 353.076 122.898 352.709 123.355L343.316 135.051C343.114 135.303 342.808 135.45 342.486 135.445V135.441Z" fill="#557DE0"/>
<path d="M340.533 167.873C340.533 167.873 340.512 167.873 340.504 167.873C340.173 167.861 339.868 167.689 339.678 167.412L335.667 161.547C335.333 161.061 335.453 160.394 335.932 160.054C336.411 159.722 337.072 159.836 337.402 160.326L340.611 165.021L349.115 154.432C349.483 153.971 350.148 153.908 350.602 154.277C351.056 154.65 351.122 155.33 350.751 155.787L341.359 167.483C341.156 167.735 340.851 167.882 340.529 167.878L340.533 167.873Z" fill="#557DE0"/>
<path d="M339.793 199.882C339.793 199.882 339.772 199.882 339.764 199.882C339.433 199.869 339.128 199.697 338.938 199.42L334.927 193.556C334.593 193.069 334.713 192.402 335.192 192.062C335.671 191.731 336.332 191.844 336.662 192.335L339.871 197.029L348.375 186.441C348.743 185.979 349.408 185.916 349.862 186.286C350.316 186.659 350.383 187.339 350.015 187.796L340.623 199.492C340.421 199.743 340.115 199.89 339.793 199.886V199.882Z" fill="#557DE0"/>
<path d="M331.067 62.7108C328.754 62.0437 326.664 61.9095 326.664 59.7742V58.7338C326.664 57.3914 325.652 56.3007 324.405 56.3007H305.15C303.903 56.3007 302.891 57.3914 302.891 58.7338V59.7742C302.891 61.9095 300.801 62.0437 298.488 62.7108C296.175 63.3778 296.947 67.9211 296.947 67.9211L314.777 68.7223L332.607 67.9211C332.607 67.9211 333.38 63.382 331.067 62.7108Z" fill="#283044"/>
<g style="mix-blend-mode:overlay" opacity="0.4">
<path d="M331.067 62.7108C328.754 62.0437 326.664 61.9095 326.664 59.7742V58.7338C326.664 57.3914 325.652 56.3007 324.405 56.3007H305.15C303.903 56.3007 302.891 57.3914 302.891 58.7338V59.7742C302.891 61.9095 300.801 62.0437 298.488 62.7108C296.175 63.3778 296.947 67.9211 296.947 67.9211L314.777 68.7223L332.607 67.9211C332.607 67.9211 333.38 63.382 331.067 62.7108Z" fill="#283044"/>
</g>
<path d="M288.795 80.2336L288.423 69.36C288.369 67.77 289.625 66.4528 291.19 66.4528H337.395C339.038 66.4528 340.319 67.9001 340.145 69.5571L339.018 80.3972L288.795 80.2336Z" fill="#283044"/>
</g>
<path d="M120.711 229.325C139.752 229.325 155.24 244.526 155.717 263.467C155.285 242.683 139.776 225.981 120.711 225.981C101.645 225.981 86.1363 242.683 85.7044 263.467C86.1811 244.526 101.673 229.325 120.711 229.325ZM323.841 214.262C323.898 215.555 324.22 217.08 324.9 218.886C327.581 226.002 338.107 231.702 344.614 233.137C346.338 233.521 347.776 233.602 348.717 233.333C349.642 233.068 350.086 232.461 349.826 231.466C350.29 232.754 350.685 233.998 351.028 235.18H351.024C353.961 246.064 336.509 246.149 335.943 246.149H352.951C354.805 246.149 356.313 247.658 356.313 249.517V268.76C356.313 270.619 354.805 272.128 352.951 272.128H334.447C335.083 269.649 335.425 267.051 335.425 264.376C335.425 247.324 321.604 233.492 304.563 233.492C287.523 233.492 273.701 247.324 273.701 264.376C273.701 267.055 274.043 269.649 274.679 272.128H149.918C150.574 269.653 150.921 267.059 150.921 264.376C150.921 247.674 137.393 234.137 120.702 234.137C104.012 234.137 90.484 247.674 90.484 264.376C90.484 267.059 90.8304 269.653 91.4905 272.128H78.7895C76.6951 272.128 75 270.432 75 268.34V249.937C75 248.889 75.4238 247.947 76.1083 247.258C76.7929 246.573 77.7423 246.149 78.7895 246.149H85.6799C85.6799 246.149 76.5566 235.845 87.3098 203.893C87.3098 203.889 87.3139 203.885 87.3139 203.88C87.7254 202.865 88.1451 201.866 88.573 200.888H92.5948C93.5931 200.888 94.5384 200.627 95.3697 200.158C96.4862 199.53 97.3826 198.527 97.8634 197.279L97.8879 197.226L99.64 192.696L101.038 189.071L102.989 184.027L105.642 177.164L107.9 171.329L109.081 168.262H109.085L103.45 162.619C102.847 162.015 102.5 161.196 102.492 160.34C102.488 160.327 102.488 160.307 102.488 160.295H205.058C205.058 160.295 223.712 159.801 245.508 164.805C260.21 170.721 277.368 181.327 287.824 200.121H300.688C301.055 200.121 301.413 200.125 301.776 200.129C313.956 200.288 323.23 203.102 330.303 207.273C330.303 207.273 329.118 207.322 327.765 207.872C326.477 208.394 325.035 209.369 324.309 211.171C323.967 212.011 323.78 213.031 323.837 214.27L323.841 214.262ZM304.567 229.325C323.609 229.325 339.097 244.526 339.573 263.467C339.142 242.683 323.633 225.981 304.567 225.981C285.502 225.981 269.993 242.683 269.561 263.467C270.038 244.526 285.53 229.325 304.567 229.325ZM87.322 243.083H87.3791C87.7499 243.05 88.027 242.728 87.9984 242.353C86.4297 223.241 96.2335 204.382 96.3313 204.19L96.8529 203.195H89.5265C89.1557 203.195 88.8501 203.497 88.8501 203.872C88.8501 204.247 89.1557 204.549 89.5265 204.549H94.6444C92.6355 208.733 85.2561 225.484 86.6497 242.463C86.6782 242.814 86.9757 243.083 87.322 243.083ZM120.711 200.113H275.355C254.574 168.34 216.357 168.25 216.357 168.25H125.8C123.07 168.25 120.637 169.975 119.729 172.548L118.791 175.125L117.125 179.696L114.969 185.621L112.431 192.59L111.571 194.955C110.683 197.475 112.549 200.117 115.218 200.117H120.719L120.711 200.113ZM112.427 224.407C112.801 224.407 113.103 224.106 113.103 223.73V203.872C113.103 203.497 112.801 203.195 112.427 203.195C112.052 203.195 111.75 203.497 111.75 203.872V223.73C111.75 224.106 112.052 224.407 112.427 224.407ZM128.127 213.699H136.675C137.829 213.699 138.77 212.762 138.77 211.604C138.77 210.445 137.833 209.508 136.675 209.508H128.127C126.973 209.508 126.032 210.441 126.032 211.604C126.032 212.766 126.969 213.699 128.127 213.699ZM193.294 255.683C196.586 261.726 203.522 268.927 217.853 268.927C218.227 268.927 218.529 268.625 218.529 268.25C218.529 267.875 218.227 267.573 217.853 267.573C206.883 267.573 199.019 263.357 194.48 255.034C191.081 248.808 190.918 242.52 190.918 242.455V209.512C190.918 209.137 190.613 208.835 190.242 208.835C189.871 208.835 189.566 209.137 189.566 209.512V242.467C189.57 242.753 189.737 249.167 193.294 255.683ZM200.792 213.699H209.34C210.494 213.699 211.435 212.762 211.435 211.604C211.435 210.445 210.498 209.508 209.34 209.508H200.792C199.63 209.508 198.693 210.441 198.693 211.604C198.693 212.766 199.63 213.699 200.792 213.699ZM276.619 237.085C276.993 237.085 277.295 236.783 277.295 236.408V209.512C277.295 209.137 276.993 208.835 276.619 208.835C276.244 208.835 275.942 209.137 275.942 209.512V236.408C275.942 236.783 276.248 237.085 276.619 237.085Z" fill="#F49642"/>
<path d="M324.313 211.167C323.971 212.007 323.784 213.027 323.841 214.266L344.614 233.138C346.338 233.521 347.776 233.602 348.717 233.333L324.318 211.167H324.313Z" fill="#CED5D8"/>
<path d="M344.614 233.138L323.841 214.266C323.898 215.559 324.22 217.084 324.9 218.89C327.581 226.006 338.107 231.706 344.614 233.142V233.138Z" fill="#B8C0C4"/>
<path d="M348.717 233.333C349.642 233.068 350.086 232.461 349.826 231.466C349.821 231.458 349.821 231.449 349.817 231.437C349.748 231.258 349.687 231.074 349.614 230.891C349.61 230.879 349.606 230.866 349.601 230.854C348.966 229.158 348.204 227.392 347.299 225.606L327.773 207.864C326.485 208.386 325.043 209.361 324.318 211.163L348.717 233.329V233.333Z" fill="#B8C0C4"/>
<path d="M347.299 225.606C346.884 224.782 346.431 223.959 345.954 223.131C342.601 217.357 337.642 211.587 330.312 207.265C330.312 207.265 329.126 207.314 327.773 207.864L347.299 225.606Z" fill="#CED5D8"/>
<path d="M133.591 251.483C140.701 258.602 140.701 270.142 133.591 277.266C126.476 284.381 114.945 284.381 107.83 277.266C100.716 270.146 100.716 258.606 107.83 251.483C114.941 244.367 126.472 244.367 133.591 251.483ZM132.544 276.218C139.08 269.677 139.08 259.075 132.544 252.531C126.012 245.994 115.413 245.994 108.873 252.531C102.342 259.071 102.342 269.673 108.873 276.218C115.409 282.758 126.008 282.758 132.544 276.218Z" fill="#1D3260"/>
<path d="M120.711 248.853C120.711 248.853 116.122 248.853 116.937 250.945C117.76 253.04 119.297 257.591 120.711 257.591C122.124 257.591 123.665 253.04 124.484 250.945C125.307 248.853 120.711 248.853 120.711 248.853Z" fill="#65727A"/>
<path d="M109.745 253.395C109.745 253.395 106.498 256.645 108.556 257.55C110.617 258.447 114.92 260.58 115.919 259.577C116.921 258.578 114.79 254.268 113.894 252.209C112.993 250.149 109.745 253.395 109.745 253.395Z" fill="#65727A"/>
<path d="M107.296 260.596C105.202 259.773 105.202 264.372 105.202 264.372C105.202 264.372 105.202 268.968 107.296 268.148C109.387 267.333 113.938 265.787 113.938 264.372C113.938 262.957 109.387 261.416 107.296 260.596Z" fill="#65727A"/>
<path d="M108.556 271.194C106.498 272.095 109.745 275.349 109.745 275.349C109.745 275.349 112.989 278.595 113.894 276.536C114.79 274.477 116.921 270.167 115.919 269.167C114.92 268.164 110.617 270.297 108.556 271.194Z" fill="#65727A"/>
<path d="M116.937 277.8C116.122 279.892 120.711 279.892 120.711 279.892C120.711 279.892 125.303 279.892 124.484 277.8C123.669 275.704 122.124 271.153 120.711 271.153C119.297 271.153 117.76 275.704 116.937 277.8Z" fill="#65727A"/>
<path d="M125.502 269.167C124.504 270.167 126.631 274.477 127.532 276.536C128.428 278.595 131.68 275.349 131.68 275.349C131.68 275.349 134.923 272.099 132.866 271.194C130.808 270.297 126.505 268.164 125.502 269.167Z" fill="#65727A"/>
<path d="M134.129 260.596C132.034 261.412 127.487 262.957 127.487 264.372C127.487 265.787 132.034 267.328 134.129 268.148C136.223 268.972 136.223 264.372 136.223 264.372C136.223 264.372 136.223 259.777 134.129 260.596Z" fill="#65727A"/>
<path d="M127.532 252.209C126.631 254.268 124.504 258.578 125.502 259.577C126.505 260.58 130.808 258.447 132.866 257.55C134.923 256.649 131.68 253.395 131.68 253.395C131.68 253.395 128.432 250.149 127.532 252.209Z" fill="#65727A"/>
<path d="M124.484 277.8C123.669 275.704 122.124 271.153 120.71 271.153C119.297 271.153 117.76 275.704 116.937 277.8C116.122 279.892 120.71 279.892 120.71 279.892C120.71 279.892 125.303 279.892 124.484 277.8ZM116.937 250.945C117.76 253.04 119.297 257.591 120.71 257.591C122.124 257.591 123.665 253.04 124.484 250.945C125.307 248.853 120.71 248.853 120.71 248.853C120.71 248.853 116.122 248.853 116.937 250.945ZM132.865 271.194C130.808 270.297 126.505 268.164 125.502 269.167C124.504 270.167 126.631 274.477 127.532 276.536C128.428 278.595 131.68 275.349 131.68 275.349C131.68 275.349 134.923 272.099 132.865 271.194ZM134.129 260.596C132.034 261.412 127.487 262.957 127.487 264.372C127.487 265.787 132.034 267.328 134.129 268.148C136.223 268.972 136.223 264.372 136.223 264.372C136.223 264.372 136.223 259.777 134.129 260.596ZM125.502 259.577C126.505 260.58 130.808 258.447 132.865 257.55C134.923 256.649 131.68 253.395 131.68 253.395C131.68 253.395 128.432 250.149 127.532 252.209C126.631 254.268 124.504 258.578 125.502 259.577ZM107.296 268.148C109.387 267.333 113.938 265.787 113.938 264.372C113.938 262.957 109.387 261.416 107.296 260.596C105.202 259.773 105.202 264.372 105.202 264.372C105.202 264.372 105.202 268.968 107.296 268.148ZM132.544 252.531C139.079 259.071 139.079 269.673 132.544 276.218C126.012 282.758 115.413 282.758 108.873 276.218C102.342 269.677 102.342 259.075 108.873 252.531C115.409 245.994 126.008 245.994 132.544 252.531ZM115.919 259.577C116.921 258.578 114.79 254.268 113.893 252.209C112.993 250.149 109.745 253.395 109.745 253.395C109.745 253.395 106.498 256.645 108.556 257.55C110.617 258.447 114.92 260.58 115.919 259.577ZM113.893 276.536C114.79 274.477 116.921 270.167 115.919 269.167C114.92 268.164 110.617 270.297 108.556 271.194C106.498 272.095 109.745 275.349 109.745 275.349C109.745 275.349 112.989 278.595 113.893 276.536ZM120.71 269.412C123.494 269.412 125.747 267.153 125.747 264.372C125.747 261.591 123.494 259.332 120.71 259.332C117.927 259.332 115.674 261.591 115.674 264.372C115.674 267.153 117.932 269.412 120.71 269.412Z" fill="#ABB4B9"/>
<path d="M124.269 267.935C126.236 265.967 126.236 262.776 124.269 260.808C122.302 258.84 119.114 258.84 117.147 260.808C115.18 262.776 115.18 265.967 117.147 267.935C119.114 269.904 122.302 269.904 124.269 267.935Z" fill="#B8C0C4"/>
<path d="M92.6315 192.439C92.0243 193.593 91.4213 194.787 90.8223 196.015L95.3738 200.15C96.4902 199.522 97.3867 198.518 97.8675 197.271L97.892 197.218L92.6315 192.439Z" fill="#0C193B"/>
<path d="M96.747 185.156C96.1236 186.18 95.496 187.244 94.8685 188.349L99.6441 192.687L101.042 189.062L96.747 185.156Z" fill="#0C193B"/>
<path d="M99.4893 180.834L102.994 184.018L105.646 177.156L103.454 175.17C102.244 176.797 100.903 178.693 99.4893 180.838V180.834Z" fill="#0C193B"/>
<path d="M107.904 171.321L109.085 168.254C109.012 168.332 108.274 169.123 107.072 170.566L107.904 171.321Z" fill="#0C193B"/>
<path d="M88.5812 200.879H92.603C93.6013 200.879 94.5466 200.618 95.3779 200.149L90.8264 196.015C90.0685 197.581 89.3146 199.203 88.5852 200.883L88.5812 200.879Z" fill="#192D59"/>
<path d="M92.6315 192.439L97.892 197.218L99.6441 192.687L94.8685 188.349C94.1228 189.654 93.3731 191.016 92.6315 192.439Z" fill="#192D59"/>
<path d="M99.4893 180.834C98.5969 182.175 97.6801 183.619 96.7469 185.156L101.042 189.062L102.994 184.018L99.4893 180.834Z" fill="#192D59"/>
<path d="M105.65 177.156L107.908 171.321L107.076 170.566C106.123 171.704 104.884 173.249 103.458 175.166L105.65 177.152V177.156Z" fill="#192D59"/>
<path d="M260.299 167.198L263.571 170.171C266.949 171.443 270.307 172.874 273.583 174.493L271.574 172.674C268.176 170.754 264.427 168.911 260.299 167.202V167.198Z" fill="#264172"/>
<path d="M271.574 172.67L273.583 174.489C275.637 175.5 277.658 176.585 279.634 177.747C277.201 176.03 274.52 174.322 271.574 172.666V172.67Z" fill="#192D59"/>
<path d="M217.853 157.563C217.853 157.563 230.386 158.7 245.516 164.796C251.408 166.142 257.528 167.899 263.571 170.171L260.299 167.198C249.122 162.562 235.158 158.908 217.853 157.563Z" fill="#192D59"/>
<path d="M263.571 170.171L296.528 200.117H300.696C300.696 200.117 300.346 199.375 299.559 198.094L273.583 174.493C270.307 172.878 266.949 171.447 263.571 170.171Z" fill="#192D59"/>
<path d="M178.959 168.25L186.848 200.113H194.182L186.302 168.25H178.959Z" fill="#F9CAB1"/>
<path d="M133.456 188.451L135.319 195.982L136.345 200.113H143.684L138.868 180.638L136.667 171.765L135.799 168.25H128.457L133.456 188.451Z" fill="#F9CAB1"/>
<path d="M114.965 185.621L112.427 192.585L120.711 200.113H130.918L114.965 185.621Z" fill="#192D59"/>
<path d="M118.787 175.125L117.125 179.696L135.107 196.035L135.319 195.982L133.456 188.451L118.787 175.125Z" fill="#192D59"/>
<path d="M136.667 171.765L138.868 180.638L160.297 200.113H167.872L136.667 171.765Z" fill="#192D59"/>
<path d="M139.238 168.25L174.31 200.113H185.405L150.334 168.25H139.238Z" fill="#192D59"/>
<path d="M187.532 168.25L222.604 200.113H230.175L195.103 168.25H187.532Z" fill="#192D59"/>
<path d="M201.545 168.25L236.617 200.113H247.712L212.641 168.25H201.545Z" fill="#192D59"/>
<path d="M273.583 174.489L299.559 198.09C297.261 194.347 291.288 185.967 279.634 177.751C277.658 176.585 275.637 175.504 273.583 174.493V174.489Z" fill="#0C193B"/>
<path d="M263.571 170.171C257.524 167.9 251.408 166.142 245.516 164.796C260.218 170.713 277.376 181.319 287.832 200.113H296.528L263.571 170.167V170.171Z" fill="#0C193B"/>
<path d="M111.563 194.955C110.674 197.475 112.541 200.117 115.21 200.117H120.71L112.427 192.59L111.567 194.955H111.563Z" fill="#0C193B"/>
<path d="M117.125 179.696L114.965 185.621L130.918 200.113H136.345L135.318 195.982L135.107 196.035L117.125 179.696Z" fill="#0C193B"/>
<path d="M119.724 172.548L118.787 175.125L133.456 188.451L128.457 168.25H125.8C123.07 168.25 120.637 169.975 119.728 172.548H119.724Z" fill="#0C193B"/>
<path d="M138.868 180.638L143.684 200.113H160.297L138.868 180.638Z" fill="#0C193B"/>
<path d="M135.799 168.25L136.667 171.765L167.872 200.113H174.31L139.238 168.25H135.799Z" fill="#0C193B"/>
<path d="M150.334 168.25L185.405 200.113H186.848L178.959 168.25H150.334Z" fill="#0C193B"/>
<path d="M186.302 168.25L194.182 200.113H222.604L187.532 168.25H186.302Z" fill="#0C193B"/>
<path d="M195.103 168.25L230.175 200.113H236.617L201.545 168.25H195.103Z" fill="#0C193B"/>
<path d="M216.357 168.25C216.357 168.25 254.574 168.34 275.355 200.113H247.712L212.641 168.25H216.357ZM249.554 195.725C250.019 197.132 251.335 198.086 252.822 198.086H265.482C268.078 198.086 269.37 194.971 267.56 193.107C264.59 190.045 259.488 186.62 251.323 186.139C248.914 185.996 247.13 188.353 247.884 190.645L249.554 195.725Z" fill="#0C193B"/>
<path d="M304.567 259.332C301.788 259.332 299.531 261.591 299.531 264.372C299.531 267.153 301.788 269.412 304.567 269.412C307.346 269.412 309.604 267.153 309.604 264.372C309.604 261.591 307.346 259.332 304.567 259.332Z" fill="#B8C0C4"/>
<path d="M293.598 253.395C293.598 253.395 290.355 256.645 292.412 257.55C294.47 258.447 298.777 260.58 299.775 259.577C300.778 258.578 298.647 254.268 297.75 252.209C296.85 250.149 293.598 253.395 293.598 253.395Z" fill="#65727A"/>
<path d="M291.149 260.596C289.059 259.773 289.059 264.372 289.059 264.372C289.059 264.372 289.059 268.968 291.149 268.148C293.244 267.333 297.791 265.787 297.791 264.372C297.791 262.957 293.244 261.416 291.149 260.596Z" fill="#65727A"/>
<path d="M292.412 271.194C290.355 272.095 293.598 275.349 293.598 275.349C293.598 275.349 296.846 278.595 297.75 276.536C298.647 274.477 300.778 270.167 299.775 269.167C298.777 268.164 294.47 270.297 292.412 271.194Z" fill="#65727A"/>
<path d="M300.794 277.8C299.971 279.892 304.567 279.892 304.567 279.892C304.567 279.892 309.156 279.892 308.341 277.8C307.526 275.704 305.981 271.153 304.567 271.153C303.153 271.153 301.613 275.704 300.794 277.8Z" fill="#65727A"/>
<path d="M309.359 269.167C308.357 270.167 310.488 274.477 311.384 276.536C312.285 278.595 315.532 275.349 315.532 275.349C315.532 275.349 318.78 272.099 316.722 271.194C314.664 270.297 310.358 268.164 309.359 269.167Z" fill="#65727A"/>
<path d="M317.981 260.596C315.891 261.412 311.344 262.957 311.344 264.372C311.344 265.787 315.891 267.328 317.981 268.148C320.076 268.972 320.076 264.372 320.076 264.372C320.076 264.372 320.076 259.777 317.981 260.596Z" fill="#65727A"/>
<path d="M311.384 252.209C310.488 254.268 308.357 258.578 309.359 259.577C310.358 260.58 314.664 258.447 316.722 257.55C318.78 256.649 315.532 253.395 315.532 253.395C315.532 253.395 312.289 250.149 311.384 252.209Z" fill="#65727A"/>
<path d="M304.567 248.853C304.567 248.853 299.975 248.853 300.794 250.945C301.609 253.04 303.153 257.591 304.567 257.591C305.981 257.591 307.522 253.04 308.341 250.945C309.156 248.853 304.567 248.853 304.567 248.853Z" fill="#65727A"/>
<path d="M317.448 251.483C324.558 258.602 324.558 270.142 317.448 277.266C310.333 284.381 298.802 284.381 291.683 277.266C284.572 270.146 284.572 258.606 291.683 251.483C298.797 244.367 310.329 244.367 317.448 251.483ZM316.4 276.218C322.932 269.677 322.932 259.075 316.4 252.531C309.864 245.994 299.27 245.994 292.73 252.531C286.194 259.071 286.194 269.673 292.73 276.218C299.266 282.758 309.86 282.758 316.4 276.218Z" fill="#1D3260"/>
<path d="M291.149 268.148C293.244 267.333 297.791 265.787 297.791 264.372C297.791 262.957 293.244 261.416 291.149 260.596C289.059 259.773 289.059 264.372 289.059 264.372C289.059 264.372 289.059 268.968 291.149 268.148ZM309.359 259.577C310.358 260.58 314.665 258.447 316.722 257.55C318.78 256.649 315.532 253.395 315.532 253.395C315.532 253.395 312.289 250.149 311.384 252.209C310.488 254.268 308.357 258.578 309.359 259.577ZM317.981 260.596C315.891 261.412 311.344 262.957 311.344 264.372C311.344 265.787 315.891 267.328 317.981 268.148C320.076 268.972 320.076 264.372 320.076 264.372C320.076 264.372 320.076 259.777 317.981 260.596ZM308.336 277.8C307.522 275.704 305.977 271.153 304.563 271.153C303.149 271.153 301.609 275.704 300.79 277.8C299.967 279.892 304.563 279.892 304.563 279.892C304.563 279.892 309.151 279.892 308.336 277.8ZM300.794 250.945C301.609 253.04 303.153 257.591 304.567 257.591C305.981 257.591 307.522 253.04 308.341 250.945C309.155 248.853 304.567 248.853 304.567 248.853C304.567 248.853 299.975 248.853 300.794 250.945ZM316.722 271.194C314.665 270.297 310.358 268.164 309.359 269.167C308.357 270.167 310.488 274.477 311.384 276.536C312.285 278.595 315.532 275.349 315.532 275.349C315.532 275.349 318.78 272.099 316.722 271.194ZM292.73 252.531C299.266 245.994 309.86 245.994 316.4 252.531C322.932 259.071 322.932 269.673 316.4 276.218C309.864 282.758 299.27 282.758 292.73 276.218C286.194 269.677 286.194 259.075 292.73 252.531ZM299.775 259.577C300.778 258.578 298.647 254.268 297.75 252.209C296.85 250.149 293.598 253.395 293.598 253.395C293.598 253.395 290.355 256.645 292.412 257.55C294.47 258.447 298.777 260.58 299.775 259.577ZM297.75 276.536C298.647 274.477 300.778 270.167 299.775 269.167C298.777 268.164 294.47 270.297 292.412 271.194C290.355 272.095 293.598 275.349 293.598 275.349C293.598 275.349 296.846 278.595 297.75 276.536ZM304.567 269.412C307.346 269.412 309.604 267.153 309.604 264.372C309.604 261.591 307.346 259.332 304.567 259.332C301.788 259.332 299.531 261.591 299.531 264.372C299.531 267.153 301.788 269.412 304.567 269.412Z" fill="#ABB4B9"/>
<path d="M148.655 264.372C148.655 279.818 136.142 292.341 120.706 292.341C105.271 292.341 92.7659 279.818 92.7659 264.372C92.7659 248.926 105.279 236.404 120.706 236.404C136.133 236.404 148.655 248.926 148.655 264.372ZM133.591 277.262C140.701 270.142 140.701 258.602 133.591 251.479C126.476 244.363 114.945 244.363 107.83 251.479C100.716 258.598 100.716 270.138 107.83 277.262C114.941 284.377 126.472 284.377 133.591 277.262Z" fill="#0C193B"/>
<path d="M304.567 292.341C289.132 292.341 276.619 279.818 276.619 264.372C276.619 248.926 289.132 236.404 304.567 236.404C320.003 236.404 332.516 248.926 332.516 264.372C332.516 279.818 320.007 292.341 304.567 292.341ZM317.448 277.262C324.558 270.142 324.558 258.602 317.448 251.479C310.333 244.363 298.802 244.363 291.683 251.479C284.573 258.598 284.573 270.138 291.683 277.262C298.798 284.377 310.329 284.377 317.448 277.262Z" fill="#0C193B"/>
<path d="M128.127 209.508C126.973 209.508 126.032 210.441 126.032 211.604C126.032 212.766 126.969 213.699 128.127 213.699H136.675C137.829 213.699 138.77 212.762 138.77 211.604C138.77 210.445 137.833 209.508 136.675 209.508H128.127Z" fill="#F49642"/>
<path d="M200.792 209.508C199.63 209.508 198.693 210.441 198.693 211.604C198.693 212.766 199.63 213.699 200.792 213.699H209.34C210.494 213.699 211.435 212.762 211.435 211.604C211.435 210.445 210.498 209.508 209.34 209.508H200.792Z" fill="#F49642"/>
<path d="M205.066 160.287C205.066 160.287 223.72 159.793 245.516 164.796C230.387 158.7 217.853 157.563 217.853 157.563C213.154 157.192 208.212 157 203.012 157H105.781C103.967 157 102.496 158.472 102.496 160.287H205.066Z" fill="#F9CAB1"/>
<path d="M87.318 203.889C82.4976 215.763 78.7977 230.104 78.7977 246.145H85.6881C85.6881 246.145 76.5648 235.841 87.318 203.889Z" fill="#F49642"/>
<path d="M120.711 225.985C101.645 225.985 86.1363 242.687 85.7043 263.471C86.1811 244.53 101.673 229.329 120.711 229.329C139.748 229.329 155.24 244.53 155.717 263.471C155.285 242.687 139.776 225.985 120.711 225.985Z" fill="#F49642"/>
<path d="M304.567 225.985C285.502 225.985 269.993 242.687 269.561 263.471C270.038 244.53 285.53 229.329 304.567 229.329C323.605 229.329 339.097 244.53 339.574 263.471C339.142 242.687 323.633 225.985 304.567 225.985Z" fill="#F49642"/>
<path d="M352.951 246.145C352.951 246.145 352.825 241.509 351.024 235.176H351.019C353.957 246.06 336.505 246.145 335.939 246.145H352.947H352.951Z" fill="#F49642"/>
<path d="M275.942 209.508V236.404C275.942 236.779 276.248 237.081 276.619 237.081C276.989 237.081 277.295 236.779 277.295 236.404V209.508C277.295 209.132 276.993 208.831 276.619 208.831C276.244 208.831 275.942 209.132 275.942 209.508Z" fill="#F49642"/>
<path d="M94.6444 204.553C92.6355 208.737 85.2562 225.488 86.6497 242.467C86.6782 242.818 86.9757 243.087 87.3221 243.087H87.3791C87.7499 243.054 88.027 242.732 87.9985 242.357C86.4297 223.245 96.2335 204.386 96.3313 204.195L96.8529 203.2H89.5265C89.1557 203.2 88.8501 203.501 88.8501 203.876C88.8501 204.252 89.1557 204.553 89.5265 204.553H94.6444Z" fill="#F49642"/>
<path d="M251.323 186.139C248.914 185.996 247.13 188.353 247.883 190.645L249.554 195.725C250.019 197.132 251.335 198.086 252.822 198.086H265.482C268.078 198.086 269.37 194.971 267.56 193.107C264.59 190.045 259.488 186.62 251.323 186.139Z" fill="#F9CAB1"/>
<path d="M193.294 255.683C196.586 261.726 203.522 268.927 217.853 268.927C218.227 268.927 218.529 268.625 218.529 268.25C218.529 267.875 218.227 267.573 217.853 267.573C206.883 267.573 199.019 263.357 194.48 255.034C191.081 248.808 190.918 242.52 190.918 242.455V209.512C190.918 209.137 190.613 208.835 190.242 208.835C189.871 208.835 189.566 209.137 189.566 209.512V242.467C189.57 242.753 189.737 249.167 193.294 255.683Z" fill="#F49642"/>
<path d="M111.75 203.876V223.735C111.75 224.11 112.052 224.411 112.427 224.411C112.801 224.411 113.103 224.11 113.103 223.735V203.876C113.103 203.501 112.801 203.2 112.427 203.2C112.052 203.2 111.75 203.501 111.75 203.876Z" fill="#F49642"/>
<defs>
<filter id="filter0_d_9_584" x="16.0731" y="58.5351" width="196.697" height="176.358" filterUnits="userSpaceOnUse" color-interpolation-filters="sRGB">
<feFlood flood-opacity="0" result="BackgroundImageFix"/>
<feColorMatrix in="SourceAlpha" type="matrix" values="0 0 0 0 0 0 0 0 0 0 0 0 0 0 0 0 0 0 127 0" result="hardAlpha"/>
<feOffset dx="-5" dy="5"/>
<feGaussianBlur stdDeviation="2"/>
<feColorMatrix type="matrix" values="0 0 0 0 0 0 0 0 0 0 0 0 0 0 0 0 0 0 0.25 0"/>
<feBlend mode="normal" in2="BackgroundImageFix" result="effect1_dropShadow_9_584"/>
<feBlend mode="normal" in="SourceGraphic" in2="effect1_dropShadow_9_584" result="shape"/>
</filter>
<clipPath id="clip0_9_584">
<rect width="386" height="292" fill="white" transform="translate(17)"/>
</clipPath>
</defs>
</svg>
