<svg width="420" height="293" viewBox="0 0 420 293" fill="none" xmlns="http://www.w3.org/2000/svg">
<g clip-path="url(#clip0_9_580)">
<path d="M6.75565 151.369C19.6645 83.3008 101.335 103.921 137.107 80.3282C163.36 63.0105 205.249 8.62713 264.455 30.2467C346.736 60.2948 352.84 195.603 273.872 244.534C233.161 269.763 137.828 285.327 68.6226 254.386C35.6904 239.662 -3.58199 205.883 6.75565 151.369Z" fill="#9FC4F8"/>
<path d="M196.922 290C294.156 290 372.98 279.62 372.98 266.815C372.98 254.01 294.156 243.629 196.922 243.629C99.688 243.629 20.8643 254.01 20.8643 266.815C20.8643 279.62 99.688 290 196.922 290Z" fill="#557DE0"/>
<path d="M407.939 190.208L320.858 137.195C318.816 135.951 316.408 135.441 314.037 135.747L280.73 140.045C274.035 140.91 269.87 147.76 272.181 154.109L283.68 185.682C284.499 187.929 286.059 189.833 288.101 191.077L375.182 244.09C380.153 247.116 386.632 245.537 389.656 240.563L411.46 204.692C414.483 199.717 412.906 193.234 407.935 190.208H407.939ZM282.661 156.188C280.514 154.88 279.829 152.074 281.137 149.925C282.445 147.776 285.248 147.091 287.396 148.4C289.543 149.709 290.228 152.514 288.92 154.663C287.612 156.812 284.808 157.497 282.661 156.188Z" fill="#FFB600"/>
<path d="M352.091 178.452L353.293 186.665L355.676 188.116L361.907 177.869L359.067 176.14L355.746 181.6L354.544 173.388L352.16 171.936L345.93 182.183L348.77 183.912L352.091 178.452ZM359.902 190.689L362.799 192.451L367.632 184.499L370.761 186.404L372.159 184.104L362.987 178.522L361.589 180.821L364.735 182.738L359.902 190.689ZM375.003 197.156L379.347 199.799L378.935 202.278L381.95 204.113L383.645 191.105L380.793 189.368L370.044 196.863L372.998 198.661L375.007 197.156H375.003ZM380.467 193.062L379.791 197.14L377.163 195.542L380.467 193.067V193.062ZM329.085 194.074C328.033 194.42 327.027 194.563 326.065 194.498C325.104 194.433 324.175 194.127 323.274 193.576C322.5 193.103 321.864 192.545 321.367 191.896C320.87 191.248 320.54 190.547 320.369 189.788C320.198 189.03 320.185 188.239 320.332 187.411C320.475 186.583 320.797 185.764 321.29 184.952C321.783 184.141 322.361 183.48 323.03 182.97C323.698 182.461 324.407 182.11 325.157 181.91C325.906 181.71 326.685 181.686 327.487 181.829C328.29 181.971 329.076 182.277 329.855 182.75C330.755 183.301 331.456 183.986 331.957 184.809C332.458 185.633 332.793 186.591 332.968 187.688L338.249 186.677C338.033 184.964 337.422 183.378 336.415 181.926C335.409 180.475 334.031 179.215 332.283 178.151C330.788 177.241 329.26 176.638 327.695 176.34C326.134 176.047 324.619 176.055 323.156 176.373C321.689 176.691 320.332 177.29 319.081 178.171C317.83 179.052 316.763 180.214 315.886 181.657C315.01 183.101 314.468 184.581 314.261 186.098C314.053 187.615 314.147 189.099 314.538 190.547C314.929 191.994 315.613 193.348 316.595 194.596C317.577 195.847 318.812 196.928 320.312 197.837C322.06 198.902 323.812 199.542 325.572 199.758C327.328 199.974 329.011 199.795 330.625 199.22L329.093 194.061L329.085 194.074ZM348.326 188.443L328.457 202.298L333.917 205.622L337.629 202.841L345.657 207.726L344.895 212.305L350.465 215.697L353.598 191.656L348.326 188.447V188.443ZM341.619 199.852L347.731 195.273L346.48 202.808L341.623 199.852H341.619ZM368.956 218.78C370.431 218.931 371.788 218.723 373.023 218.14C374.339 217.52 375.431 216.497 376.295 215.074C377.171 213.63 377.59 212.174 377.546 210.702C377.501 209.23 377.024 207.832 376.111 206.51C375.199 205.189 373.878 204.003 372.147 202.947L363.496 197.678L351.981 216.619L357.335 219.877L360.395 214.845L363.317 216.623L363.687 223.747L369.421 227.237L368.956 218.784V218.78ZM368.83 213.304C367.982 213.455 367 213.194 365.884 212.513L362.909 210.702L366.283 205.157L369.258 206.967C370.374 207.648 371.059 208.398 371.315 209.222C371.568 210.042 371.425 210.898 370.892 211.779C370.366 212.643 369.677 213.153 368.834 213.308L368.83 213.304ZM345.681 178.966L340.327 175.708L341.468 173.832L346.019 176.601L347.335 174.436L342.784 171.667L343.835 169.938L348.998 173.082L350.359 170.843L342.328 165.954L336.097 176.201L344.32 181.209L345.681 178.97V178.966ZM329.826 168.65L331.407 169.612L331.607 173.465L334.708 175.353L334.455 170.774C335.254 170.856 335.987 170.746 336.655 170.432C337.369 170.097 337.959 169.543 338.428 168.772C338.901 167.993 339.129 167.202 339.104 166.407C339.08 165.612 338.823 164.853 338.326 164.14C337.833 163.426 337.116 162.782 336.179 162.211L331.497 159.361L325.267 169.608L328.164 171.374L329.818 168.65H329.826ZM333.013 163.406L334.622 164.384C335.225 164.751 335.596 165.159 335.735 165.604C335.873 166.048 335.796 166.509 335.506 166.986C335.221 167.455 334.85 167.728 334.394 167.814C333.938 167.895 333.404 167.753 332.801 167.386L331.191 166.407L333.017 163.406H333.013Z" fill="white"/>
<path d="M327.65 144.412C327.785 144.188 327.715 143.898 327.491 143.764L326.147 142.944C325.923 142.81 325.633 142.879 325.499 143.103C325.364 143.328 325.434 143.617 325.658 143.752L327.002 144.571C327.227 144.706 327.516 144.637 327.65 144.412ZM299.477 194.363L298.133 193.544C297.909 193.409 297.619 193.478 297.485 193.703C297.35 193.927 297.42 194.216 297.644 194.351L298.988 195.171C299.213 195.305 299.502 195.236 299.636 195.012C299.771 194.787 299.702 194.498 299.477 194.363ZM287.339 185.91C287.066 185.49 286.829 185.05 286.63 184.593C286.524 184.353 286.247 184.247 286.006 184.349C285.766 184.455 285.66 184.732 285.762 184.972C285.982 185.474 286.247 185.963 286.544 186.424C286.585 186.485 286.634 186.534 286.695 186.571C286.846 186.661 287.041 186.665 287.196 186.563C287.416 186.42 287.477 186.126 287.335 185.91H287.339ZM296.25 192.398L294.906 191.578C294.681 191.444 294.392 191.513 294.258 191.737C294.123 191.961 294.193 192.251 294.417 192.386L295.761 193.205C295.985 193.34 296.275 193.27 296.409 193.046C296.544 192.822 296.474 192.532 296.25 192.398ZM330.877 146.378C331.012 146.153 330.943 145.864 330.719 145.729L329.374 144.91C329.15 144.775 328.86 144.844 328.726 145.069C328.592 145.293 328.661 145.583 328.885 145.717L330.23 146.537C330.454 146.671 330.743 146.602 330.877 146.378ZM324.423 142.451C324.558 142.227 324.488 141.937 324.264 141.803L322.919 140.983C322.695 140.848 322.406 140.918 322.272 141.142C322.137 141.366 322.206 141.656 322.431 141.79L323.775 142.61C323.999 142.744 324.289 142.675 324.423 142.451ZM334.105 148.343C334.239 148.119 334.17 147.829 333.946 147.695L332.601 146.875C332.377 146.741 332.088 146.81 331.953 147.034C331.819 147.258 331.888 147.548 332.112 147.683L333.457 148.502C333.681 148.637 333.97 148.567 334.105 148.343ZM289.828 188.471C289.421 188.19 289.03 187.872 288.671 187.525C288.484 187.346 288.186 187.35 288.003 187.537C287.824 187.725 287.828 188.023 288.015 188.206C288.41 188.585 288.838 188.94 289.291 189.25C289.299 189.254 289.307 189.258 289.315 189.266C289.527 189.397 289.804 189.34 289.951 189.132C290.097 188.916 290.044 188.622 289.828 188.475V188.471ZM317.838 138.781C317.903 138.528 317.749 138.271 317.496 138.206C316.962 138.072 316.416 137.982 315.87 137.937C315.609 137.917 315.381 138.108 315.361 138.369C315.345 138.553 315.438 138.724 315.585 138.814C315.646 138.85 315.715 138.875 315.789 138.879C316.286 138.92 316.779 139.001 317.264 139.124C317.516 139.189 317.773 139.034 317.838 138.781ZM321.2 140.485C321.334 140.261 321.265 139.972 321.041 139.837L320.287 139.376C320.079 139.25 319.867 139.132 319.656 139.022C319.423 138.903 319.138 138.993 319.02 139.225C318.906 139.446 318.983 139.719 319.195 139.845C319.203 139.849 319.216 139.858 319.224 139.862C319.419 139.964 319.611 140.07 319.798 140.184L320.552 140.645C320.776 140.779 321.065 140.71 321.2 140.485ZM293.023 190.436L291.678 189.617C291.454 189.482 291.165 189.552 291.03 189.776C290.896 190 290.965 190.29 291.189 190.424L292.534 191.244C292.758 191.378 293.048 191.309 293.182 191.085C293.316 190.861 293.247 190.571 293.023 190.436ZM302.705 196.329L301.36 195.509C301.136 195.374 300.847 195.444 300.712 195.668C300.578 195.892 300.647 196.182 300.871 196.316L302.216 197.136C302.44 197.271 302.729 197.201 302.864 196.977C302.998 196.753 302.929 196.463 302.705 196.329ZM305.932 198.29L304.587 197.47C304.363 197.336 304.074 197.405 303.939 197.629C303.805 197.854 303.874 198.143 304.098 198.278L305.443 199.097C305.667 199.232 305.956 199.163 306.091 198.938C306.225 198.714 306.156 198.425 305.932 198.29ZM347.013 156.201C347.148 155.976 347.079 155.687 346.855 155.552L345.51 154.733C345.286 154.598 344.996 154.667 344.862 154.892C344.728 155.116 344.797 155.406 345.021 155.54L346.366 156.36C346.59 156.494 346.879 156.425 347.013 156.201ZM322.064 208.113L320.719 207.293C320.495 207.159 320.206 207.228 320.071 207.452C319.937 207.677 320.006 207.966 320.23 208.101L321.575 208.92C321.799 209.055 322.088 208.986 322.223 208.761C322.357 208.537 322.288 208.248 322.064 208.113ZM350.237 158.162C350.371 157.938 350.302 157.648 350.078 157.514L348.733 156.694C348.509 156.56 348.22 156.629 348.085 156.853C347.951 157.077 348.02 157.367 348.244 157.501L349.589 158.321C349.813 158.456 350.102 158.386 350.237 158.162ZM315.613 204.186L314.269 203.367C314.045 203.232 313.755 203.301 313.621 203.526C313.486 203.75 313.556 204.039 313.78 204.174L315.124 204.994C315.349 205.128 315.638 205.059 315.772 204.835C315.907 204.61 315.838 204.321 315.613 204.186ZM318.837 206.148L317.492 205.328C317.268 205.193 316.978 205.263 316.844 205.487C316.71 205.711 316.779 206.001 317.003 206.135L318.348 206.955C318.572 207.09 318.861 207.02 318.996 206.796C319.13 206.572 319.061 206.282 318.837 206.148ZM337.332 150.309C337.466 150.084 337.397 149.795 337.173 149.66L335.828 148.841C335.604 148.706 335.315 148.775 335.18 149C335.046 149.224 335.115 149.513 335.339 149.648L336.684 150.468C336.908 150.602 337.197 150.533 337.332 150.309ZM309.159 200.255L307.814 199.436C307.59 199.301 307.301 199.371 307.166 199.595C307.032 199.819 307.101 200.109 307.325 200.243L308.67 201.063C308.894 201.197 309.184 201.128 309.318 200.904C309.452 200.679 309.383 200.39 309.159 200.255ZM340.559 152.27C340.694 152.046 340.624 151.756 340.4 151.622L339.055 150.802C338.831 150.667 338.542 150.737 338.408 150.961C338.273 151.185 338.342 151.475 338.567 151.609L339.911 152.429C340.135 152.563 340.425 152.494 340.559 152.27ZM312.386 202.221L311.042 201.401C310.817 201.267 310.528 201.336 310.394 201.56C310.259 201.785 310.328 202.074 310.553 202.209L311.897 203.028C312.121 203.163 312.411 203.093 312.545 202.869C312.68 202.645 312.61 202.355 312.386 202.221ZM343.786 154.235C343.921 154.011 343.851 153.721 343.627 153.587L342.283 152.767C342.059 152.633 341.769 152.702 341.635 152.926C341.5 153.151 341.57 153.44 341.794 153.575L343.138 154.394C343.362 154.529 343.652 154.46 343.786 154.235ZM285.607 142.459C285.697 142.512 285.803 142.537 285.913 142.524L287.473 142.324C287.73 142.292 287.913 142.055 287.881 141.794C287.848 141.538 287.612 141.354 287.351 141.387L285.79 141.586C285.534 141.619 285.35 141.856 285.383 142.117C285.403 142.263 285.489 142.39 285.607 142.459ZM293.096 141.493C293.186 141.546 293.292 141.57 293.402 141.558L294.963 141.358C295.219 141.325 295.403 141.089 295.37 140.828C295.338 140.571 295.101 140.388 294.84 140.42L293.28 140.62C293.023 140.653 292.84 140.889 292.872 141.15C292.893 141.297 292.978 141.419 293.096 141.493ZM300.59 140.526C300.68 140.579 300.785 140.604 300.895 140.592L302.456 140.392C302.713 140.359 302.896 140.123 302.864 139.862C302.831 139.605 302.595 139.421 302.334 139.454L300.773 139.654C300.517 139.686 300.333 139.923 300.366 140.184C300.386 140.331 300.472 140.453 300.59 140.526ZM296.845 141.011C296.935 141.065 297.041 141.089 297.151 141.077L298.711 140.877C298.968 140.844 299.151 140.608 299.119 140.347C299.086 140.09 298.85 139.906 298.589 139.939L297.029 140.139C296.772 140.172 296.588 140.408 296.621 140.669C296.641 140.816 296.727 140.938 296.845 141.011ZM289.352 141.978C289.441 142.031 289.547 142.055 289.657 142.043L291.218 141.843C291.475 141.811 291.658 141.574 291.625 141.313C291.593 141.056 291.356 140.873 291.096 140.905L289.535 141.105C289.278 141.138 289.095 141.374 289.128 141.635C289.148 141.782 289.234 141.904 289.352 141.978ZM278.35 144.502C278.387 144.551 278.431 144.592 278.484 144.624C278.643 144.722 278.855 144.718 279.014 144.6C279.413 144.302 279.841 144.033 280.281 143.805C280.514 143.686 280.603 143.401 280.485 143.169C280.367 142.936 280.082 142.846 279.849 142.965C279.364 143.217 278.892 143.511 278.452 143.841C278.244 143.996 278.199 144.294 278.354 144.502H278.35ZM285.868 182.558L285.33 181.078C285.24 180.834 284.971 180.707 284.727 180.797C284.482 180.887 284.356 181.156 284.446 181.4L284.984 182.881C285.02 182.987 285.094 183.068 285.183 183.121C285.301 183.195 285.452 183.211 285.591 183.162C285.835 183.072 285.962 182.803 285.872 182.558H285.868ZM408.75 200.961C408.721 201.157 408.815 201.34 408.97 201.438C409.023 201.471 409.08 201.491 409.145 201.499C409.402 201.54 409.642 201.36 409.683 201.104C409.765 200.561 409.805 200.007 409.797 199.456C409.797 199.195 409.581 198.987 409.32 198.987C409.06 198.987 408.852 199.203 408.856 199.464C408.86 199.962 408.827 200.467 408.75 200.957V200.961ZM408.196 202.979C408.012 203.44 407.784 203.889 407.528 204.317C407.393 204.541 407.462 204.831 407.686 204.965C407.911 205.1 408.2 205.03 408.334 204.806C408.62 204.333 408.868 203.84 409.072 203.33C409.17 203.089 409.052 202.812 408.811 202.714C408.571 202.616 408.294 202.735 408.196 202.975V202.979ZM308.083 139.56C308.173 139.613 308.279 139.637 308.389 139.625L309.95 139.425C310.206 139.393 310.39 139.156 310.357 138.895C310.324 138.638 310.088 138.455 309.827 138.487L308.267 138.687C308.01 138.72 307.827 138.956 307.859 139.217C307.88 139.364 307.965 139.491 308.083 139.56ZM311.828 139.079C311.918 139.132 312.024 139.156 312.134 139.144L313.694 138.944C313.951 138.912 314.134 138.675 314.102 138.414C314.069 138.157 313.833 137.974 313.572 138.006L312.011 138.206C311.755 138.239 311.571 138.475 311.604 138.736C311.624 138.883 311.71 139.005 311.828 139.079ZM304.335 140.045C304.424 140.098 304.53 140.123 304.64 140.11L306.201 139.911C306.457 139.878 306.641 139.641 306.608 139.38C306.576 139.124 306.339 138.94 306.079 138.973L304.518 139.172C304.261 139.205 304.078 139.442 304.11 139.703C304.131 139.849 304.216 139.972 304.335 140.045ZM353.464 160.127C353.598 159.903 353.529 159.614 353.305 159.479L351.96 158.659C351.736 158.525 351.447 158.594 351.312 158.819C351.178 159.043 351.247 159.332 351.471 159.467L352.816 160.286C353.04 160.421 353.329 160.352 353.464 160.127ZM281.989 171.904L281.451 170.423C281.361 170.179 281.092 170.052 280.848 170.142C280.603 170.232 280.477 170.501 280.567 170.746L281.104 172.226C281.141 172.332 281.214 172.413 281.304 172.466C281.422 172.54 281.573 172.556 281.712 172.507C281.956 172.417 282.082 172.148 281.993 171.904H281.989ZM275.978 147.417C276.202 147.552 276.492 147.475 276.626 147.25L276.659 147.193C276.907 146.785 277.189 146.394 277.494 146.031C277.661 145.831 277.637 145.534 277.437 145.366C277.237 145.199 276.94 145.224 276.773 145.423C276.435 145.823 276.125 146.251 275.852 146.704L275.811 146.769C275.681 146.993 275.75 147.279 275.974 147.413H275.978V147.417ZM284.576 179.007L284.038 177.527C283.949 177.282 283.68 177.156 283.435 177.245C283.191 177.335 283.064 177.604 283.154 177.849L283.692 179.329C283.729 179.435 283.802 179.517 283.892 179.57C284.01 179.643 284.16 179.659 284.299 179.61C284.543 179.521 284.67 179.252 284.58 179.003L284.576 179.007ZM283.28 175.455L282.742 173.975C282.653 173.73 282.384 173.604 282.139 173.694C281.895 173.783 281.769 174.053 281.858 174.301L282.396 175.781C282.433 175.887 282.506 175.969 282.596 176.022C282.714 176.095 282.865 176.112 283.003 176.063C283.248 175.973 283.374 175.704 283.284 175.459L283.28 175.455ZM279.401 164.804L278.863 163.324C278.774 163.08 278.505 162.953 278.26 163.043C278.016 163.133 277.889 163.402 277.979 163.646L278.517 165.127C278.554 165.233 278.627 165.314 278.717 165.367C278.835 165.441 278.986 165.457 279.124 165.408C279.369 165.318 279.495 165.049 279.405 164.8L279.401 164.804ZM280.697 168.352L280.159 166.872C280.069 166.627 279.801 166.501 279.556 166.59C279.312 166.68 279.185 166.949 279.275 167.194L279.813 168.674C279.849 168.78 279.923 168.862 280.012 168.915C280.131 168.988 280.281 169.004 280.42 168.956C280.664 168.866 280.791 168.597 280.701 168.352H280.697ZM278.109 161.253L277.572 159.773C277.482 159.528 277.213 159.402 276.969 159.491C276.724 159.581 276.598 159.85 276.687 160.095L277.225 161.575C277.262 161.681 277.335 161.763 277.425 161.816C277.543 161.889 277.69 161.905 277.832 161.856C278.077 161.767 278.203 161.498 278.114 161.253H278.109ZM275.758 149.159C275.84 148.91 275.701 148.645 275.453 148.563C275.204 148.482 274.939 148.62 274.858 148.869C274.691 149.391 274.56 149.933 274.479 150.476C274.45 150.671 274.544 150.855 274.699 150.949C274.752 150.981 274.809 151.002 274.874 151.014C275.131 151.055 275.371 150.875 275.412 150.618C275.485 150.125 275.599 149.636 275.754 149.163L275.758 149.159ZM275.343 152.706C275.322 152.445 275.094 152.254 274.833 152.274C274.573 152.294 274.381 152.523 274.401 152.784C274.446 153.33 274.536 153.876 274.67 154.411C274.703 154.537 274.78 154.639 274.882 154.7C274.988 154.765 275.115 154.786 275.241 154.753C275.493 154.692 275.648 154.435 275.583 154.182C275.461 153.697 275.379 153.2 275.339 152.706H275.343ZM284.136 142.28C284.103 142.023 283.867 141.839 283.606 141.872L283.207 141.925C282.799 141.978 282.396 142.055 282.005 142.153C281.752 142.218 281.597 142.475 281.663 142.728C281.695 142.855 281.773 142.952 281.875 143.018C281.98 143.083 282.107 143.103 282.237 143.071C282.592 142.981 282.962 142.912 283.329 142.863L283.729 142.81C283.985 142.777 284.169 142.541 284.136 142.28ZM276.814 157.701L276.276 156.221C276.186 155.976 275.917 155.85 275.673 155.94C275.428 156.029 275.302 156.299 275.392 156.543L275.929 158.023C275.966 158.129 276.039 158.211 276.129 158.264C276.247 158.337 276.398 158.354 276.537 158.305C276.781 158.215 276.907 157.946 276.818 157.697L276.814 157.701ZM376.943 241.207C376.47 241.06 376.005 240.869 375.557 240.644C375.325 240.526 375.04 240.62 374.921 240.852C374.811 241.072 374.889 241.342 375.097 241.468C375.109 241.476 375.117 241.48 375.129 241.488C375.618 241.737 376.136 241.945 376.657 242.108C376.906 242.186 377.171 242.047 377.248 241.798C377.326 241.55 377.187 241.285 376.938 241.207H376.943ZM407.035 206.042C406.81 205.907 406.521 205.976 406.387 206.201L405.568 207.546C405.433 207.77 405.502 208.06 405.727 208.195C405.951 208.329 406.24 208.26 406.374 208.036L407.193 206.69C407.328 206.466 407.259 206.176 407.035 206.042ZM405.123 191.574C405.258 191.35 405.189 191.06 404.965 190.926L403.591 190.09C403.367 189.955 403.078 190.025 402.943 190.249C402.809 190.473 402.878 190.763 403.102 190.897L404.476 191.733C404.7 191.868 404.989 191.798 405.123 191.574ZM380.488 241.59C379.99 241.635 379.489 241.639 378.992 241.603C378.731 241.582 378.507 241.778 378.487 242.039C378.475 242.222 378.564 242.39 378.711 242.479C378.772 242.516 378.845 242.54 378.923 242.545C379.469 242.585 380.023 242.581 380.573 242.532C380.834 242.508 381.025 242.279 381.001 242.018C380.976 241.758 380.748 241.566 380.488 241.59ZM373.691 239.543L372.346 238.724C372.122 238.589 371.833 238.659 371.698 238.883C371.564 239.107 371.633 239.397 371.857 239.531L373.202 240.351C373.426 240.485 373.715 240.416 373.85 240.192C373.984 239.967 373.915 239.678 373.691 239.543ZM409.512 197.173C409.382 196.639 409.206 196.113 408.994 195.607C408.893 195.366 408.616 195.256 408.375 195.358C408.135 195.46 408.025 195.737 408.127 195.978C408.322 196.435 408.477 196.916 408.595 197.397C408.628 197.523 408.705 197.625 408.807 197.691C408.909 197.752 409.039 197.776 409.166 197.748C409.418 197.687 409.573 197.43 409.512 197.177V197.173ZM407.756 194.257C407.968 194.102 408.012 193.809 407.858 193.597C407.536 193.152 407.173 192.732 406.782 192.345C406.594 192.157 406.297 192.165 406.114 192.349C405.93 192.536 405.934 192.834 406.118 193.018C406.472 193.368 406.802 193.748 407.092 194.151C407.128 194.204 407.177 194.245 407.226 194.278C407.385 194.375 407.589 194.371 407.748 194.257H407.756ZM367.236 235.613L365.892 234.793C365.668 234.658 365.378 234.728 365.244 234.952C365.109 235.176 365.179 235.466 365.403 235.6L366.747 236.42C366.972 236.554 367.261 236.485 367.395 236.261C367.53 236.037 367.461 235.747 367.236 235.613ZM395.413 185.666C395.548 185.441 395.479 185.152 395.254 185.017L393.91 184.198C393.686 184.063 393.396 184.132 393.262 184.357C393.127 184.581 393.197 184.871 393.421 185.005L394.765 185.825C394.99 185.959 395.279 185.89 395.413 185.666ZM370.464 237.578L369.119 236.758C368.895 236.624 368.606 236.693 368.471 236.917C368.337 237.142 368.406 237.431 368.63 237.566L369.975 238.385C370.199 238.52 370.488 238.451 370.623 238.226C370.757 238.002 370.688 237.713 370.464 237.578ZM398.641 187.631C398.775 187.407 398.706 187.117 398.482 186.983L397.137 186.163C396.913 186.029 396.624 186.098 396.489 186.322C396.355 186.546 396.424 186.836 396.648 186.97L397.993 187.79C398.217 187.925 398.506 187.855 398.641 187.631ZM401.864 189.592C401.998 189.368 401.929 189.079 401.705 188.944L400.36 188.124C400.136 187.99 399.847 188.059 399.712 188.283C399.578 188.508 399.647 188.797 399.871 188.932L401.216 189.751C401.44 189.886 401.729 189.817 401.864 189.592ZM401.142 215.73C400.918 215.595 400.629 215.665 400.495 215.889L399.676 217.235C399.541 217.459 399.61 217.748 399.834 217.883C400.059 218.018 400.348 217.948 400.482 217.724L401.301 216.378C401.436 216.154 401.367 215.865 401.142 215.73ZM399.182 218.959C398.958 218.825 398.669 218.894 398.535 219.119L397.716 220.464C397.581 220.688 397.65 220.978 397.874 221.112C398.099 221.247 398.388 221.178 398.522 220.953L399.341 219.608C399.476 219.384 399.407 219.094 399.182 218.959ZM364.013 233.651L362.669 232.832C362.445 232.697 362.155 232.766 362.021 232.991C361.886 233.215 361.956 233.504 362.18 233.639L363.524 234.459C363.748 234.593 364.038 234.524 364.172 234.3C364.307 234.075 364.237 233.786 364.013 233.651ZM397.218 222.189C396.994 222.054 396.705 222.124 396.571 222.348L395.752 223.694C395.617 223.918 395.686 224.207 395.91 224.342C396.135 224.477 396.424 224.407 396.558 224.183L397.377 222.837C397.512 222.613 397.443 222.324 397.218 222.189ZM405.07 209.271C404.846 209.136 404.557 209.206 404.423 209.43L403.604 210.776C403.469 211 403.538 211.289 403.762 211.424C403.987 211.559 404.276 211.489 404.41 211.265L405.229 209.919C405.364 209.695 405.295 209.406 405.07 209.271ZM403.106 212.501C402.882 212.366 402.593 212.435 402.459 212.66L401.64 214.005C401.505 214.229 401.574 214.519 401.798 214.654C402.023 214.788 402.312 214.719 402.446 214.494L403.265 213.149C403.4 212.925 403.331 212.635 403.106 212.501ZM393.29 228.644C393.066 228.509 392.777 228.579 392.642 228.803L391.823 230.149C391.689 230.373 391.758 230.662 391.982 230.797C392.207 230.931 392.496 230.862 392.63 230.638L393.449 229.292C393.584 229.068 393.515 228.778 393.29 228.644ZM389.366 235.103C389.142 234.968 388.853 235.038 388.719 235.262L387.899 236.607C387.765 236.832 387.834 237.121 388.058 237.256C388.283 237.39 388.572 237.321 388.706 237.097L389.525 235.751C389.66 235.527 389.591 235.237 389.366 235.103ZM387.37 238.312C387.166 238.141 386.873 238.169 386.706 238.369C386.384 238.752 386.029 239.107 385.654 239.429C385.455 239.6 385.434 239.898 385.601 240.094C385.634 240.135 385.675 240.167 385.715 240.192C385.887 240.294 386.107 240.281 386.266 240.147C386.681 239.792 387.072 239.397 387.427 238.977C387.594 238.777 387.569 238.479 387.37 238.312ZM384.55 240.799C384.432 240.567 384.147 240.477 383.914 240.595C383.474 240.824 383.01 241.019 382.537 241.174C382.289 241.256 382.154 241.521 382.236 241.77C382.272 241.88 382.346 241.97 382.439 242.027C382.553 242.096 382.696 242.116 382.83 242.072C383.352 241.9 383.866 241.688 384.35 241.435C384.583 241.317 384.672 241.032 384.554 240.799H384.55ZM391.33 231.873C391.106 231.739 390.817 231.808 390.683 232.032L389.864 233.378C389.729 233.602 389.798 233.892 390.022 234.026C390.247 234.161 390.536 234.092 390.67 233.867L391.489 232.522C391.624 232.297 391.555 232.008 391.33 231.873ZM395.254 225.418C395.03 225.284 394.741 225.353 394.607 225.577L393.788 226.923C393.653 227.147 393.722 227.437 393.946 227.571C394.171 227.706 394.46 227.637 394.594 227.412L395.413 226.067C395.548 225.843 395.479 225.553 395.254 225.418ZM334.973 215.971L333.628 215.151C333.404 215.016 333.115 215.086 332.98 215.31C332.846 215.534 332.915 215.824 333.139 215.958L334.484 216.778C334.708 216.913 334.997 216.843 335.131 216.619C335.266 216.395 335.197 216.105 334.973 215.971ZM366.373 167.985C366.507 167.761 366.438 167.471 366.214 167.337L364.869 166.517C364.645 166.383 364.356 166.452 364.221 166.676C364.087 166.9 364.156 167.19 364.38 167.324L365.725 168.144C365.949 168.279 366.238 168.209 366.373 167.985ZM325.291 210.078L323.946 209.259C323.722 209.124 323.433 209.194 323.298 209.418C323.164 209.642 323.233 209.932 323.457 210.066L324.802 210.886C325.026 211.02 325.315 210.951 325.45 210.727C325.584 210.502 325.515 210.213 325.291 210.078ZM392.186 183.7C392.321 183.476 392.251 183.186 392.027 183.052L390.683 182.232C390.458 182.098 390.169 182.167 390.035 182.391C389.9 182.616 389.969 182.905 390.194 183.04L391.538 183.859C391.762 183.994 392.052 183.924 392.186 183.7ZM341.427 219.901L340.082 219.082C339.858 218.947 339.569 219.017 339.434 219.241C339.3 219.465 339.369 219.755 339.593 219.889L340.938 220.709C341.162 220.843 341.451 220.774 341.586 220.55C341.72 220.326 341.651 220.036 341.427 219.901ZM369.6 169.95C369.734 169.726 369.665 169.437 369.441 169.302L368.096 168.482C367.872 168.348 367.583 168.417 367.448 168.642C367.314 168.866 367.383 169.155 367.607 169.29L368.952 170.109C369.176 170.244 369.465 170.175 369.6 169.95ZM338.2 217.936L336.855 217.116C336.631 216.982 336.342 217.051 336.207 217.275C336.073 217.5 336.142 217.789 336.366 217.924L337.711 218.743C337.935 218.878 338.224 218.809 338.359 218.584C338.493 218.36 338.424 218.071 338.2 217.936ZM328.518 212.044L327.174 211.224C326.949 211.09 326.66 211.159 326.526 211.383C326.391 211.608 326.46 211.897 326.685 212.032L328.029 212.851C328.253 212.986 328.543 212.916 328.677 212.692C328.812 212.468 328.742 212.178 328.518 212.044ZM356.691 162.093C356.825 161.869 356.756 161.579 356.532 161.445L355.187 160.625C354.963 160.49 354.674 160.56 354.54 160.784C354.405 161.008 354.474 161.298 354.698 161.432L356.043 162.252C356.267 162.386 356.557 162.317 356.691 162.093ZM359.918 164.058C360.053 163.834 359.983 163.544 359.759 163.41L358.415 162.59C358.191 162.456 357.901 162.525 357.767 162.749C357.632 162.974 357.702 163.263 357.926 163.398L359.27 164.217C359.494 164.352 359.784 164.283 359.918 164.058ZM363.145 166.02C363.28 165.795 363.211 165.506 362.986 165.371L361.642 164.552C361.418 164.417 361.128 164.486 360.994 164.711C360.859 164.935 360.929 165.224 361.153 165.359L362.498 166.179C362.722 166.313 363.011 166.244 363.145 166.02ZM331.745 214.005L330.401 213.186C330.177 213.051 329.887 213.12 329.753 213.345C329.618 213.569 329.688 213.858 329.912 213.993L331.256 214.813C331.481 214.947 331.77 214.878 331.904 214.654C332.039 214.429 331.969 214.14 331.745 214.005ZM372.827 171.916C372.961 171.692 372.892 171.402 372.668 171.268L371.323 170.448C371.099 170.313 370.81 170.383 370.676 170.607C370.541 170.831 370.61 171.121 370.834 171.255L372.179 172.075C372.403 172.209 372.693 172.14 372.827 171.916ZM344.65 221.863L343.305 221.043C343.081 220.909 342.792 220.978 342.658 221.202C342.523 221.426 342.592 221.716 342.816 221.851L344.161 222.67C344.385 222.805 344.675 222.735 344.809 222.511C344.943 222.287 344.874 221.997 344.65 221.863ZM357.559 229.72L356.214 228.901C355.99 228.766 355.701 228.836 355.566 229.06C355.432 229.284 355.501 229.574 355.725 229.708L357.07 230.528C357.294 230.662 357.583 230.593 357.718 230.369C357.852 230.144 357.783 229.855 357.559 229.72ZM388.959 181.735C389.093 181.511 389.024 181.221 388.8 181.086L387.455 180.267C387.231 180.132 386.942 180.202 386.807 180.426C386.673 180.65 386.742 180.94 386.966 181.074L388.311 181.894C388.535 182.028 388.824 181.959 388.959 181.735ZM360.786 231.686L359.441 230.866C359.217 230.732 358.928 230.801 358.794 231.025C358.659 231.249 358.728 231.539 358.952 231.674L360.297 232.493C360.521 232.628 360.811 232.558 360.945 232.334C361.08 232.11 361.01 231.82 360.786 231.686ZM354.332 227.755L352.987 226.935C352.763 226.801 352.474 226.87 352.339 227.094C352.205 227.319 352.274 227.608 352.498 227.743L353.843 228.562C354.067 228.697 354.356 228.628 354.491 228.403C354.625 228.179 354.556 227.89 354.332 227.755ZM385.732 179.773C385.866 179.549 385.797 179.26 385.573 179.125L384.228 178.306C384.004 178.171 383.715 178.24 383.58 178.465C383.446 178.689 383.515 178.978 383.739 179.113L385.084 179.932C385.308 180.067 385.597 179.998 385.732 179.773ZM347.877 223.828L346.533 223.009C346.309 222.874 346.019 222.943 345.885 223.168C345.75 223.392 345.82 223.681 346.044 223.816L347.388 224.636C347.612 224.77 347.902 224.701 348.036 224.477C348.171 224.252 348.101 223.963 347.877 223.828ZM376.05 173.877C376.185 173.653 376.115 173.363 375.891 173.229L374.547 172.409C374.322 172.275 374.033 172.344 373.899 172.568C373.764 172.793 373.833 173.082 374.058 173.217L375.402 174.036C375.626 174.171 375.916 174.101 376.05 173.877ZM382.505 177.808C382.639 177.584 382.57 177.294 382.346 177.16L381.001 176.34C380.777 176.206 380.488 176.275 380.353 176.499C380.219 176.723 380.288 177.013 380.512 177.147L381.857 177.967C382.081 178.102 382.37 178.032 382.505 177.808ZM351.105 225.794L349.76 224.974C349.536 224.839 349.246 224.909 349.112 225.133C348.977 225.357 349.047 225.647 349.271 225.781L350.616 226.601C350.84 226.736 351.129 226.666 351.263 226.442C351.398 226.218 351.329 225.928 351.105 225.794ZM379.277 175.843C379.412 175.618 379.343 175.329 379.118 175.194L377.774 174.375C377.55 174.24 377.26 174.309 377.126 174.534C376.991 174.758 377.061 175.047 377.285 175.182L378.629 176.002C378.854 176.136 379.143 176.067 379.277 175.843Z" fill="white"/>
<path d="M74.8203 205.585C74.6939 206.568 74.6654 207.554 74.7836 208.541C74.9995 210.303 75.6963 211.999 76.112 213.74C76.662 216.028 76.715 218.368 76.7476 220.701C76.768 222.629 76.7598 224.603 76.0794 226.442C74.8569 229.733 71.5849 232.338 70.717 235.71C70.2932 237.362 70.4807 239.079 70.3095 240.767C70.1832 242.014 69.7961 243.327 68.9485 244.326H65.0653C65.6358 242.671 66.1492 240.991 66.5893 239.319C66.9927 237.774 67.3675 236.118 67.3675 234.463C67.3675 234.157 67.3594 233.847 67.3472 233.545C67.3105 232.738 67.282 231.983 67.4694 231.241C67.6813 230.401 68.1703 229.635 68.6837 228.823C68.8385 228.57 69.0015 228.318 69.1523 228.065C70.6599 225.516 71.3404 222.674 71.1163 219.832C71.0593 219.131 70.9452 218.425 70.8392 217.744C70.6925 216.815 70.5377 215.84 70.5336 214.898C70.5255 211.603 72.3143 208.423 73.8871 205.617C73.9116 205.569 73.9279 205.516 73.9279 205.471L74.8325 205.585H74.8203Z" fill="#29478C"/>
<path d="M76.2057 200.162C75.6352 201.944 75.0566 203.758 74.8203 205.585L73.9157 205.471C73.9157 205.361 73.8586 205.263 73.7649 205.206C73.6182 205.12 73.4308 205.177 73.3493 205.32C71.7357 208.195 69.9021 211.444 69.9184 214.902C69.9184 215.901 70.0813 216.888 70.2321 217.846C70.3381 218.515 70.444 219.212 70.501 219.889C70.7129 222.605 70.065 225.329 68.6226 227.759C68.4759 228.008 68.317 228.257 68.1621 228.505C67.6446 229.321 67.1149 230.165 66.8745 231.099C66.6667 231.922 66.6993 232.762 66.7319 233.57C66.7441 233.871 66.7564 234.169 66.7564 234.467C66.7564 236.053 66.3896 237.664 65.9944 239.164C65.538 240.889 65.0124 242.622 64.4215 244.326H62.3923C62.3189 241.378 62.2537 238.43 62.1804 235.482C62.1315 233.468 62.0948 231.396 62.8894 229.496C63.7166 227.523 65.3832 225.871 66.3203 223.93C67.6772 221.141 67.4246 218.005 67.3105 214.992C67.1964 211.975 67.3064 208.77 69.2379 206.229C70.061 205.145 71.1693 204.239 72.2695 203.346C73.5816 202.282 74.8977 201.218 76.2057 200.154V200.162Z" fill="#29478C"/>
<path d="M59.328 197.617C59.3362 197.589 59.3403 197.552 59.3403 197.523L60.253 197.483C60.2815 198.665 60.416 199.84 60.6931 200.994C61.1943 203.045 62.1518 204.953 62.8405 206.947C63.7491 209.569 64.1851 212.329 64.5845 215.069C64.9145 217.345 65.2242 219.673 64.8412 221.94C64.1566 225.989 61.3328 229.5 61.015 233.594C60.8601 235.6 61.3206 237.598 61.4184 239.613C61.4999 241.236 61.2921 242.981 60.4445 244.331H56.818C57.1032 242.357 57.3314 240.363 57.4985 238.381C57.6492 236.514 57.7552 234.516 57.4944 232.579C57.4455 232.216 57.3844 231.861 57.3192 231.498C57.1562 230.548 57.0054 229.651 57.0747 228.738C57.1521 227.702 57.527 226.683 57.8896 225.7C58.0119 225.382 58.1301 225.06 58.236 224.742C59.3158 221.549 59.5318 218.124 58.8554 214.825C58.6883 214.009 58.4683 213.198 58.2523 212.407C57.9508 211.318 57.6452 210.197 57.4903 209.067C56.9484 205.153 58.2116 201.153 59.328 197.617Z" fill="#29478C"/>
<path d="M60.7542 190.909C60.4771 193.087 60.196 195.297 60.253 197.483L59.3403 197.523C59.3403 197.397 59.2629 197.279 59.1325 197.238C58.9695 197.185 58.7983 197.279 58.7494 197.438C57.6085 201.034 56.3209 205.104 56.8832 209.157C57.0503 210.319 57.3599 211.465 57.6656 212.57C57.8774 213.349 58.0975 214.152 58.2605 214.951C58.9124 218.144 58.7046 221.459 57.6615 224.546C57.5515 224.86 57.4333 225.174 57.3233 225.488C56.9443 226.511 56.5531 227.571 56.4717 228.697C56.3942 229.68 56.5613 230.662 56.7243 231.604C56.7854 231.955 56.8465 232.31 56.8954 232.66C57.1481 234.54 57.0421 236.497 56.8954 238.328C56.7284 240.326 56.5002 242.337 56.2068 244.326H54.0635C53.5501 241.044 53.0366 237.761 52.5232 234.475C52.1524 232.106 51.7816 229.671 52.2665 227.323C52.7677 224.88 54.149 222.707 54.7725 220.297C55.6689 216.819 54.9192 213.157 54.3243 209.614C53.7293 206.074 53.3219 202.282 54.8255 199.016C55.4693 197.625 56.4228 196.414 57.3722 195.211C58.505 193.78 59.6337 192.345 60.7624 190.909H60.7542Z" fill="#29478C"/>
<path d="M42.8946 205.136C43.1432 206.148 43.4895 207.13 43.9907 208.076C44.8546 209.691 46.1462 211.118 47.1853 212.664C48.5544 214.69 49.4835 216.9 50.3758 219.106C51.1174 220.933 51.8427 222.809 51.8753 224.742C51.8916 225.565 51.7816 226.377 51.6105 227.192C51.0685 229.782 49.9032 232.338 50.2332 234.952C50.441 236.636 51.2601 238.218 51.7246 239.861C52.1402 241.346 52.2298 243.005 51.3904 244.326H48.0492C47.9717 242.695 47.8373 241.052 47.6417 239.433C47.4542 237.863 47.1935 236.192 46.5782 234.618C46.4641 234.324 46.3378 234.039 46.2114 233.753C45.8814 232.999 45.5676 232.285 45.4698 231.531C45.3598 230.679 45.535 229.83 45.7225 228.925C45.7795 228.644 45.8366 228.358 45.8895 228.077C46.3785 225.259 45.9629 222.377 44.6916 219.738C44.3778 219.09 44.007 218.45 43.6525 217.83C43.1635 216.978 42.6542 216.097 42.3038 215.2C41.065 212.068 41.5825 208.582 42.0389 205.503C42.0471 205.45 42.0389 205.397 42.0267 205.357L42.8987 205.128L42.8946 205.136Z" fill="#29478C"/>
<path d="M42.2223 199.738C42.3404 201.54 42.4667 203.375 42.8946 205.136L42.0226 205.365C41.9818 205.263 41.8922 205.185 41.7781 205.165C41.607 205.144 41.4562 205.255 41.4318 205.422C40.9672 208.578 40.4375 212.154 41.7333 215.432C42.1041 216.378 42.6216 217.275 43.1269 218.144C43.4732 218.752 43.8359 219.379 44.1415 220.012C45.3598 222.532 45.751 225.288 45.2865 227.979C45.2376 228.256 45.1805 228.534 45.1235 228.807C44.936 229.72 44.7445 230.662 44.8668 231.616C44.9727 232.456 45.3191 233.243 45.6491 234.002C45.7714 234.283 45.8977 234.565 46.0077 234.846C46.5659 236.269 46.8226 237.741 47.0345 239.515C47.226 241.113 47.3605 242.728 47.4379 244.335H45.1031C44.0803 241.884 43.0576 239.437 42.0348 236.991C41.2402 235.087 40.4334 233.133 40.4823 231.119C40.5312 229.031 41.501 227.017 41.6762 224.933C41.9248 221.924 40.519 219.017 39.2925 216.179C38.066 213.345 36.9781 210.274 37.8623 207.35C38.2412 206.107 38.9625 204.957 39.6755 203.819C40.5231 202.461 41.3747 201.108 42.2263 199.75L42.2223 199.738Z" fill="#29478C"/>
<path d="M71.6908 251.797L68.3984 275.027H43.9907L43.8562 274.073L65.269 272.071L67.066 254.602L42.593 251.797H71.6868H71.6908Z" fill="#E59F03"/>
<path d="M54.0594 244.331H56.2027C56.1335 244.824 56.056 245.313 55.9745 245.803C55.9501 245.97 56.0601 246.125 56.2272 246.153H56.2761C56.4228 246.153 56.5532 246.047 56.5817 245.9C56.6632 245.379 56.7487 244.857 56.8221 244.331H64.4134C64.3033 244.649 64.1933 244.963 64.0792 245.277C64.0222 245.432 64.1037 245.607 64.2626 245.668C64.2993 245.676 64.3319 245.684 64.3685 245.684C64.4948 245.684 64.613 245.607 64.6538 245.485C64.7923 245.101 64.9268 244.718 65.0572 244.331H72.7503L71.6949 251.797H42.5971L67.0701 254.602L65.2731 272.075L43.8603 274.077L39.6429 244.331H47.4379C47.4583 244.828 47.4787 245.317 47.4909 245.811C47.495 245.978 47.6295 246.108 47.7965 246.108H47.8047C47.9758 246.104 48.1062 245.966 48.1021 245.794C48.0899 245.305 48.0736 244.82 48.0492 244.331H54.0635H54.0594Z" fill="#FFB600"/>
<path d="M67.3594 234.467C67.3594 236.122 66.9845 237.774 66.5811 239.323C66.141 240.995 65.6276 242.675 65.0571 244.331H64.4133C65.0042 242.622 65.5298 240.893 65.9862 239.168C66.3814 237.668 66.7482 236.057 66.7482 234.471C66.7482 234.173 66.7359 233.875 66.7237 233.574C66.6952 232.762 66.6585 231.922 66.8663 231.103C67.1067 230.165 67.6365 229.321 68.1539 228.509C68.3088 228.261 68.4677 228.012 68.6144 227.763C70.0569 225.329 70.7088 222.609 70.4929 219.893C70.4358 219.22 70.3258 218.523 70.2239 217.85C70.0732 216.892 69.9102 215.905 69.9102 214.906C69.8979 211.449 71.7275 208.199 73.3411 205.324C73.4226 205.181 73.61 205.124 73.7567 205.21C73.8504 205.267 73.9075 205.365 73.9075 205.475C73.9075 205.524 73.8953 205.577 73.8667 205.622C72.2898 208.431 70.5051 211.608 70.5132 214.902C70.5173 215.848 70.6681 216.819 70.8188 217.748C70.9289 218.433 71.0389 219.139 71.0959 219.836C71.3241 222.678 70.6436 225.52 69.1319 228.069C68.9811 228.322 68.8181 228.575 68.6633 228.827C68.1499 229.639 67.6609 230.405 67.449 231.245C67.2616 231.988 67.2942 232.742 67.3268 233.549C67.339 233.855 67.3471 234.165 67.3471 234.467H67.3594Z" fill="#6E90E5"/>
<path d="M65.0572 244.331C64.9268 244.718 64.7923 245.101 64.6538 245.485C64.6089 245.607 64.4908 245.684 64.3685 245.684C64.3319 245.684 64.2992 245.676 64.2626 245.668C64.1077 245.607 64.0222 245.432 64.0792 245.277C64.1933 244.963 64.3074 244.649 64.4133 244.331H65.0572Z" fill="#FFB600"/>
<path d="M58.2523 212.407C58.4683 213.194 58.6924 214.009 58.8554 214.825C59.5359 218.124 59.3159 221.553 58.236 224.742C58.126 225.06 58.0079 225.382 57.8897 225.7C57.527 226.683 57.1562 227.702 57.0747 228.738C57.0055 229.651 57.1562 230.548 57.3192 231.498C57.3844 231.861 57.4455 232.216 57.4944 232.579C57.7552 234.516 57.6493 236.514 57.4985 238.381C57.3315 240.363 57.1073 242.357 56.818 244.331H56.1987C56.4921 242.341 56.7202 240.33 56.8873 238.332C57.034 236.497 57.1399 234.544 56.8873 232.664C56.8384 232.314 56.7773 231.959 56.7162 231.608C56.5532 230.662 56.3861 229.684 56.4635 228.701C56.545 227.58 56.9362 226.515 57.3151 225.492C57.4292 225.178 57.5474 224.864 57.6534 224.55C58.6965 221.463 58.9043 218.144 58.2523 214.955C58.0853 214.156 57.8693 213.353 57.6574 212.574C57.3518 211.469 57.0381 210.323 56.8751 209.161C56.3128 205.108 57.6004 201.038 58.7413 197.442C58.7902 197.283 58.9613 197.189 59.1243 197.242C59.2547 197.287 59.3322 197.405 59.3322 197.527C59.3322 197.556 59.3281 197.593 59.3199 197.621C58.2075 201.157 56.9403 205.157 57.4822 209.071C57.633 210.201 57.9427 211.322 58.2442 212.411L58.2523 212.407Z" fill="#6E90E5"/>
<path d="M56.5817 245.9C56.5572 246.047 56.4268 246.153 56.2761 246.153H56.2272C56.0601 246.125 55.9501 245.966 55.9745 245.803C56.0519 245.313 56.1294 244.824 56.2027 244.331H56.8221C56.7487 244.857 56.6672 245.379 56.5817 245.9Z" fill="#FFB600"/>
<path d="M48.0981 245.794C48.1021 245.966 47.9717 246.104 47.8006 246.108H47.7924C47.6254 246.108 47.4909 245.978 47.4868 245.811C47.4746 245.317 47.4583 244.828 47.4339 244.331H48.041C48.0614 244.82 48.0818 245.305 48.094 245.794H48.0981Z" fill="#FFB600"/>
<path d="M42.3037 215.208C42.6542 216.105 43.1635 216.986 43.6525 217.838C44.0111 218.458 44.3778 219.098 44.6915 219.747C45.9629 222.385 46.3744 225.268 45.8895 228.085C45.8366 228.367 45.7795 228.652 45.7225 228.933C45.535 229.835 45.3598 230.683 45.4698 231.539C45.5635 232.293 45.8773 233.007 46.2114 233.761C46.3377 234.047 46.4641 234.336 46.5782 234.626C47.1934 236.196 47.4542 237.867 47.6417 239.441C47.8373 241.06 47.9717 242.704 48.0491 244.335H47.442C47.3646 242.728 47.2301 241.113 47.0386 239.515C46.8267 237.741 46.57 236.273 46.0118 234.846C45.9017 234.565 45.7754 234.283 45.6532 234.002C45.3231 233.243 44.9727 232.456 44.8708 231.616C44.7486 230.662 44.9401 229.724 45.1275 228.807C45.1846 228.534 45.2416 228.257 45.2905 227.979C45.7551 225.288 45.3639 222.532 44.1455 220.012C43.8399 219.38 43.4813 218.752 43.1309 218.144C42.6257 217.271 42.1082 216.378 41.7374 215.432C40.4416 212.154 40.9713 208.578 41.4358 205.422C41.4603 205.255 41.6151 205.145 41.7822 205.165C41.8963 205.185 41.9859 205.267 42.0267 205.365C42.0389 205.41 42.047 205.458 42.0389 205.512C41.5825 208.59 41.065 212.076 42.3037 215.208Z" fill="#6E90E5"/>
<path d="M96.3579 128.954C96.3579 120.44 89.4593 113.536 80.9512 113.536C72.4432 113.536 65.5446 120.44 65.5446 128.954C65.5446 140.388 80.9512 161.603 80.9512 161.603C80.9512 161.603 96.3579 139.87 96.3579 128.954Z" fill="#557DE0"/>
<path d="M80.9553 136.126C84.9138 136.126 88.1228 132.915 88.1228 128.954C88.1228 124.993 84.9138 121.781 80.9553 121.781C76.9968 121.781 73.7878 124.993 73.7878 128.954C73.7878 132.915 76.9968 136.126 80.9553 136.126Z" fill="#F49642"/>
<path d="M45.2483 134.035H16.4806C14.0887 134.035 12.1532 135.976 12.1532 138.365V154.072C12.1532 156.466 14.0927 158.403 16.4806 158.403H18.9173L12.1532 167.924L28.0691 158.403H45.2524C47.6442 158.403 49.5797 156.462 49.5797 154.072V138.365C49.5797 135.972 47.6402 134.035 45.2524 134.035H45.2483Z" fill="#6E90E5"/>
<path d="M44.0992 132.848H15.3274C12.9355 132.848 11 134.789 11 137.179V152.886C11 155.279 12.9396 157.216 15.3274 157.216H17.7641L11 166.741L26.916 157.22H44.0992C46.4911 157.22 48.4266 155.279 48.4266 152.89V137.183C48.4266 134.789 46.487 132.852 44.0992 132.852V132.848Z" fill="white"/>
<path d="M41.1817 139.401H18.306C17.7804 139.401 17.3525 139.829 17.3525 140.355C17.3525 140.881 17.7804 141.309 18.306 141.309H41.1776C41.7032 141.309 42.1311 140.881 42.1311 140.355C42.1311 139.829 41.7032 139.401 41.1776 139.401H41.1817Z" fill="#6E90E5"/>
<path d="M41.1817 144.526H18.306C17.7804 144.526 17.3525 144.955 17.3525 145.481C17.3525 146.007 17.7804 146.435 18.306 146.435H41.1776C41.7032 146.435 42.1311 146.007 42.1311 145.481C42.1311 144.955 41.7032 144.526 41.1776 144.526H41.1817Z" fill="#6E90E5"/>
<path d="M41.1817 149.652H18.306C17.7804 149.652 17.3525 150.08 17.3525 150.606C17.3525 151.132 17.7804 151.56 18.306 151.56H41.1776C41.7032 151.56 42.1311 151.132 42.1311 150.606C42.1311 150.08 41.7032 149.652 41.1776 149.652H41.1817Z" fill="#6E90E5"/>
<path d="M32.2172 162.798H60.985C63.3768 162.798 65.3123 164.739 65.3123 167.129V182.836C65.3123 185.229 63.3728 187.166 60.985 187.166H58.5483L65.3123 196.687L49.3964 187.166H32.2132C29.8213 187.166 27.8858 185.225 27.8858 182.836V167.129C27.8858 164.735 29.8254 162.798 32.2132 162.798H32.2172Z" fill="#6E90E5"/>
<path d="M33.3704 161.616H62.1381C64.53 161.616 66.4655 163.557 66.4655 165.946V181.653C66.4655 184.047 64.5259 185.984 62.1381 185.984H59.7014L66.4655 195.505L50.5495 185.984H33.3663C30.9744 185.984 29.0389 184.043 29.0389 181.653V165.946C29.0389 163.553 30.9785 161.616 33.3663 161.616H33.3704Z" fill="white"/>
<path d="M52.3261 174.787C52.0205 174.265 51.6171 173.845 51.1159 173.522C50.6147 173.2 50.0646 172.943 49.4575 172.752C48.9115 172.576 48.3655 172.434 47.8195 172.311V169.384C48.121 169.433 48.4307 169.498 48.7403 169.583C49.4412 169.775 50.1461 170.065 50.8592 170.452L52.1672 167.3C51.4256 166.872 50.5781 166.546 49.6286 166.325C49.0337 166.187 48.4307 166.093 47.8195 166.04V163.724H45.2483V166.081C44.413 166.183 43.6754 166.374 43.0438 166.66C42.0578 167.104 41.3202 167.687 40.8272 168.417C40.3341 169.147 40.0897 169.959 40.0897 170.86C40.0897 171.659 40.2486 172.32 40.5623 172.842C40.8761 173.363 41.2836 173.783 41.7848 174.106C42.2859 174.428 42.836 174.689 43.4432 174.888C44.0462 175.088 44.6493 175.251 45.2524 175.378V178.24C44.686 178.175 44.1196 178.057 43.5491 177.873C42.673 177.596 41.8948 177.241 41.2265 176.813L39.8329 179.941C40.546 180.426 41.471 180.821 42.6079 181.131C43.4635 181.364 44.3437 181.506 45.2524 181.564V183.863H47.8235V181.482C48.5896 181.376 49.2619 181.193 49.8487 180.927C50.8266 180.483 51.5601 179.896 52.0531 179.158C52.5462 178.424 52.7906 177.621 52.7906 176.748C52.7906 175.961 52.6358 175.308 52.3302 174.787H52.3261ZM45.2483 171.671C45.0568 171.598 44.8897 171.512 44.743 171.423C44.4374 171.231 44.2826 170.97 44.2826 170.64C44.2826 170.383 44.36 170.154 44.5189 169.955C44.6697 169.763 44.9142 169.608 45.2483 169.49V171.675V171.671ZM48.3655 177.702C48.2392 177.841 48.0558 177.955 47.8195 178.049V176.083C47.9335 176.136 48.0436 176.197 48.1414 176.259C48.4551 176.458 48.614 176.732 48.614 177.074C48.614 177.319 48.5325 177.527 48.3695 177.706L48.3655 177.702Z" fill="#6E90E5"/>
<path d="M189.344 40.2182L282.997 41.2436C288.145 41.4433 292.158 45.8365 291.961 51.0593L286.866 200.469C286.669 205.692 282.338 209.762 277.19 209.563L180.309 204.459C175.16 204.259 171.148 199.866 171.344 194.643L179.672 49.3081C179.869 44.0854 184.2 40.0147 189.348 40.2144L189.344 40.2182Z" fill="#F49642"/>
<g style="mix-blend-mode:overlay" opacity="0.4">
<path d="M189.344 40.2182L282.997 41.2436C288.145 41.4433 292.158 45.8365 291.961 51.0593L286.866 200.469C286.669 205.692 282.338 209.762 277.19 209.563L180.309 204.459C175.16 204.259 171.148 199.866 171.344 194.643L179.672 49.3081C179.869 44.0854 184.2 40.0147 189.348 40.2144L189.344 40.2182Z" fill="#283044"/>
</g>
<path d="M288.849 50.4182L283.758 199.832C283.557 205.054 279.231 209.125 274.079 208.922L261.322 208.253L248.644 207.585H248.606L242.587 207.266L234.418 206.84L217.679 205.957L199.554 205.008L177.197 203.826C173.692 203.691 170.709 201.617 169.229 198.649C168.54 197.255 168.169 195.673 168.233 194.006L176.554 48.6709C176.754 43.4481 181.081 39.3774 186.233 39.581L279.885 40.5987C285.034 40.8022 289.046 45.1916 288.846 50.4182H288.849Z" fill="#F49642"/>
<path d="M184.942 45.6442C184.942 45.6442 177.908 187.957 165 191.878C165 191.878 193.788 193.89 221.759 194.823C244.676 195.588 267.041 196.782 272.568 185.81C281.448 161.551 281.683 46.1472 281.683 46.1472L184.946 45.648L184.942 45.6442Z" fill="white"/>
<path d="M196.045 72.0313C195.197 71.5205 194.527 70.8254 194.038 69.9422C193.55 69.0627 193.308 68.0912 193.315 67.0274C193.327 65.9444 193.573 64.969 194.061 64.1011C194.549 63.237 195.216 62.5612 196.056 62.0734C196.896 61.5896 197.843 61.3476 198.891 61.3592C199.455 61.363 200.012 61.436 200.553 61.5781C201.094 61.7201 201.56 61.9237 201.946 62.1771L201.5 64.6426C200.75 64.3507 200.069 64.2009 199.463 64.1971C198.626 64.1894 197.979 64.4314 197.525 64.9229C197.071 65.4145 196.84 66.1211 196.832 67.0466C196.824 67.9491 197.055 68.6557 197.529 69.1626C197.998 69.6695 198.66 69.9268 199.508 69.9345C199.834 69.9345 200.137 69.9076 200.421 69.8461C200.701 69.7847 201.049 69.6733 201.458 69.5044L201.878 72.0236C200.962 72.5574 199.963 72.8224 198.887 72.8108C197.839 72.8032 196.893 72.542 196.045 72.0274V72.0313Z" fill="#557DE0"/>
<path d="M205.421 61.655L210.195 61.6934L213.227 72.6842L209.536 72.6535L209.146 70.5452L206.353 70.5222L205.879 72.619L202.344 72.5921L205.421 61.655ZM208.787 68.5828L207.806 63.7786L206.697 68.5636L208.787 68.579V68.5828Z" fill="#557DE0"/>
<path d="M218.856 70.2148L218.478 68.5712L217.74 68.5635L217.705 72.7225L214.265 72.6918L214.355 61.7316L219.114 61.7739C220.015 61.7815 220.806 61.9198 221.487 62.2002C222.172 62.4767 222.699 62.8607 223.073 63.3522C223.444 63.8399 223.63 64.4045 223.626 65.0419C223.618 65.7524 223.444 66.3476 223.1 66.8315C222.755 67.3116 222.225 67.7033 221.51 68.0066C221.578 68.4099 221.661 68.7747 221.752 69.1088C221.873 69.512 222.044 69.7962 222.263 69.9575C222.483 70.1188 222.801 70.1994 223.221 70.2033C223.369 70.2033 223.599 70.1841 223.914 70.1495L223.891 72.7455C223.399 72.9299 222.914 73.022 222.445 73.0182C220.476 73.0028 219.28 72.0658 218.856 70.2148ZM218.357 66.3361C219.133 66.3438 219.678 66.2593 219.999 66.0904C220.321 65.9175 220.484 65.618 220.488 65.1956C220.488 64.8346 220.363 64.5696 220.102 64.4045C219.84 64.2393 219.428 64.151 218.864 64.1472L217.781 64.1356L217.762 66.3361H218.36H218.357Z" fill="#557DE0"/>
<path d="M232.756 70.334L232.378 68.6904L231.64 68.6827L231.606 72.8417L228.165 72.8148L228.255 61.8547L233.014 61.8931C233.915 61.9007 234.706 62.0429 235.387 62.3194C236.072 62.5959 236.599 62.9799 236.973 63.4714C237.344 63.963 237.53 64.5275 237.526 65.165C237.518 65.8754 237.344 66.4707 237 66.9507C236.655 67.4308 236.125 67.8225 235.41 68.1258C235.478 68.5291 235.561 68.8977 235.652 69.228C235.773 69.6312 235.944 69.9154 236.163 70.0767C236.383 70.238 236.701 70.3186 237.121 70.3225C237.269 70.3225 237.5 70.3071 237.814 70.2649L237.791 72.8609C237.299 73.0491 236.814 73.1412 236.345 73.1374C234.377 73.122 233.18 72.185 232.756 70.3302V70.334ZM232.257 66.4592C233.033 66.463 233.578 66.3824 233.899 66.2096C234.221 66.0367 234.384 65.741 234.388 65.3148C234.388 64.9538 234.263 64.6888 234.002 64.5237C233.741 64.3585 233.328 64.2702 232.764 64.2664L231.681 64.2587L231.662 66.4592H232.26H232.257Z" fill="#557DE0"/>
<path d="M239.222 61.9469L246.808 62.0122L246.785 64.4316L243.015 64.4008L243 66.3939L246.441 66.4247L246.426 68.4331L242.985 68.4024L242.966 70.5222L246.736 70.553L246.717 72.9762L239.131 72.9109L239.222 61.9507V61.9469Z" fill="#557DE0"/>
<path d="M248.565 62.0275L251.722 62.0544L255.977 68.003L256.026 62.0928L258.839 62.1158L258.748 73.076L255.606 73.0491L251.317 67.3079L251.272 73.0107L248.474 72.9877L248.565 62.0275Z" fill="#557DE0"/>
<path d="M262.541 64.5701L260.296 64.5509L260.319 62.1315L268.469 62.2007L268.45 64.62L266.205 64.6008L266.133 73.1416L262.473 73.1109L262.545 64.5701H262.541Z" fill="#557DE0"/>
<path d="M246.687 84.9462C246.687 84.9462 246.687 84.9462 246.683 84.9462L192.131 84.0591C191.73 84.0514 191.408 83.7173 191.415 83.3102C191.423 82.907 191.749 82.5805 192.15 82.5844H192.154L246.706 83.4715C247.107 83.4792 247.429 83.8133 247.421 84.2203C247.414 84.6236 247.088 84.95 246.687 84.9462Z" fill="#283044"/>
<path d="M245.967 93.3945C245.967 93.3945 245.967 93.3945 245.964 93.3945L191.388 92.5074C190.987 92.4997 190.665 92.1656 190.673 91.7586C190.681 91.3553 191.006 91.0289 191.407 91.0327H191.411L245.986 91.9199C246.388 91.9275 246.705 92.2616 246.702 92.6687C246.694 93.0719 246.369 93.3984 245.967 93.3945Z" fill="#283044"/>
<path d="M226.745 101.54C226.745 101.54 226.745 101.54 226.741 101.54L190.976 100.96C190.575 100.952 190.253 100.618 190.261 100.211C190.268 99.8078 190.594 99.4814 190.995 99.4852L226.76 100.065C227.162 100.073 227.48 100.407 227.476 100.814C227.468 101.217 227.143 101.544 226.741 101.54H226.745Z" fill="#283044"/>
<path d="M268.763 102.174L250.476 101.982C250.279 101.982 250.09 101.893 249.953 101.751C249.817 101.605 249.749 101.406 249.757 101.206L250.658 84.1358C250.676 83.7441 251.002 83.4369 251.392 83.4407C251.392 83.4407 251.392 83.4407 251.396 83.4407L269.683 83.7287C269.88 83.7326 270.069 83.8171 270.202 83.963C270.338 84.1089 270.406 84.3048 270.395 84.5044L269.494 101.478C269.471 101.87 269.15 102.177 268.76 102.174H268.763ZM251.248 100.515L268.082 100.691L268.907 85.188L252.073 84.923L251.252 100.515H251.248Z" fill="#283044"/>
<path d="M244.897 114.635C244.897 114.635 244.897 114.635 244.893 114.635L190.34 113.748C189.939 113.741 189.621 113.406 189.625 112.999C189.633 112.596 189.958 112.27 190.359 112.274C190.359 112.274 190.359 112.274 190.363 112.274L244.915 113.161C245.317 113.168 245.635 113.502 245.631 113.91C245.623 114.313 245.298 114.639 244.897 114.635Z" fill="#283044"/>
<path d="M244.177 123.084L189.602 122.197C189.201 122.189 188.883 121.855 188.886 121.448C188.894 121.045 189.219 120.719 189.621 120.722H189.625L244.2 121.609C244.601 121.617 244.919 121.951 244.915 122.358C244.907 122.762 244.582 123.088 244.181 123.084H244.177Z" fill="#283044"/>
<path d="M224.955 131.229L189.19 130.649C188.789 130.641 188.47 130.307 188.474 129.9C188.482 129.497 188.807 129.171 189.209 129.174L224.974 129.754C225.375 129.762 225.693 130.096 225.689 130.503C225.682 130.906 225.356 131.233 224.955 131.229Z" fill="#283044"/>
<path d="M266.977 131.863L248.69 131.671C248.493 131.671 248.304 131.582 248.167 131.44C248.031 131.294 247.963 131.095 247.971 130.895L248.871 113.825C248.89 113.433 249.216 113.126 249.606 113.13C249.606 113.13 249.606 113.13 249.61 113.13L267.897 113.418C268.094 113.422 268.283 113.506 268.416 113.652C268.552 113.798 268.62 113.994 268.609 114.194L267.708 131.168C267.685 131.559 267.363 131.867 266.974 131.863H266.977ZM249.462 130.204L266.296 130.38L267.121 114.877L250.287 114.612L249.466 130.204H249.462Z" fill="#283044"/>
<path d="M243.11 144.324L188.557 143.437C188.156 143.43 187.838 143.095 187.842 142.688C187.85 142.285 188.175 141.959 188.576 141.963C188.576 141.963 188.576 141.963 188.58 141.963L243.133 142.85C243.534 142.857 243.856 143.191 243.848 143.599C243.84 144.002 243.515 144.328 243.114 144.324H243.11Z" fill="#283044"/>
<path d="M242.39 152.773C242.39 152.773 242.39 152.773 242.387 152.773L187.812 151.886C187.41 151.878 187.089 151.544 187.096 151.137C187.104 150.734 187.429 150.407 187.83 150.411H187.834L242.409 151.298C242.811 151.306 243.129 151.64 243.125 152.047C243.117 152.45 242.792 152.777 242.39 152.773Z" fill="#283044"/>
<path d="M223.168 160.918L187.403 160.339C187.002 160.331 186.684 159.997 186.687 159.59C186.695 159.186 187.021 158.86 187.422 158.864L223.187 159.444C223.588 159.451 223.906 159.786 223.902 160.193C223.895 160.596 223.569 160.922 223.168 160.918Z" fill="#283044"/>
<path d="M265.187 161.552L246.899 161.36C246.702 161.36 246.513 161.272 246.377 161.13C246.241 160.984 246.173 160.784 246.184 160.584L247.085 143.514C247.104 143.123 247.429 142.815 247.819 142.819C247.819 142.819 247.819 142.819 247.823 142.819L266.111 143.107C266.307 143.111 266.497 143.195 266.629 143.341C266.765 143.487 266.834 143.683 266.822 143.883L265.921 160.857C265.899 161.249 265.577 161.556 265.187 161.552ZM247.675 159.893L264.509 160.07L265.335 144.566L248.501 144.301L247.679 159.893H247.675Z" fill="#283044"/>
<path d="M257.498 99.4469C257.498 99.4469 257.479 99.4469 257.471 99.4469C257.168 99.4354 256.888 99.2779 256.714 99.0244L253.038 93.6558C252.736 93.2103 252.842 92.5997 253.281 92.2886C253.72 91.9852 254.325 92.0889 254.628 92.5382L257.57 96.8355L265.364 87.1426C265.701 86.7202 266.31 86.6626 266.727 87.0006C267.143 87.3423 267.204 87.9645 266.867 88.3831L258.259 99.0897C258.073 99.3202 257.793 99.4546 257.498 99.4507V99.4469Z" fill="#557DE0"/>
<path d="M255.707 129.136C255.707 129.136 255.688 129.136 255.681 129.136C255.378 129.125 255.098 128.967 254.923 128.714L251.248 123.345C250.941 122.9 251.051 122.289 251.49 121.978C251.929 121.675 252.535 121.778 252.838 122.228L255.779 126.525L263.573 116.832C263.91 116.41 264.52 116.352 264.936 116.69C265.352 117.032 265.413 117.654 265.072 118.072L256.464 128.779C256.279 129.009 255.999 129.144 255.703 129.14L255.707 129.136Z" fill="#557DE0"/>
<path d="M321.029 258.437C321.029 258.437 321.01 258.437 321.002 258.437C320.7 258.426 320.419 258.268 320.245 258.015L316.57 252.646C316.263 252.201 316.373 251.59 316.812 251.279C317.251 250.976 317.857 251.079 318.159 251.529L321.101 255.826L328.895 246.133C329.232 245.711 329.841 245.653 330.258 245.991C330.674 246.333 330.735 246.955 330.398 247.374L321.79 258.08C321.604 258.311 321.324 258.445 321.029 258.441V258.437Z" fill="#557DE0"/>
<path d="M247.031 32.8679C244.911 32.2573 242.996 32.1345 242.996 30.1798V29.2274C242.996 27.9985 242.068 27 240.925 27H223.277C222.134 27 221.207 27.9985 221.207 29.2274V30.1798C221.207 32.1345 219.291 32.2573 217.171 32.8679C215.051 33.4785 215.759 37.6376 215.759 37.6376L232.101 38.371L248.443 37.6376C248.443 37.6376 249.151 33.4824 247.031 32.8679Z" fill="#283044"/>
<g style="mix-blend-mode:overlay" opacity="0.4">
<path d="M247.031 32.8679C244.911 32.2573 242.996 32.1345 242.996 30.1798V29.2274C242.996 27.9985 242.068 27 240.925 27H223.277C222.134 27 221.207 27.9985 221.207 29.2274V30.1798C221.207 32.1345 219.291 32.2573 217.171 32.8679C215.051 33.4785 215.759 37.6376 215.759 37.6376L232.101 38.371L248.443 37.6376C248.443 37.6376 249.151 33.4824 247.031 32.8679Z" fill="#283044"/>
</g>
<path d="M208.287 48.9086L207.947 38.9546C207.897 37.4992 209.048 36.2933 210.483 36.2933H252.831C254.337 36.2933 255.511 37.6182 255.352 39.1351L254.319 49.0584L208.287 48.9086Z" fill="#283044"/>
<path d="M115.711 227.325C134.752 227.325 150.24 242.526 150.717 261.467C150.285 240.683 134.776 223.981 115.711 223.981C96.6448 223.981 81.1363 240.683 80.7044 261.467C81.1811 242.526 96.6733 227.325 115.711 227.325ZM318.841 212.262C318.898 213.555 319.22 215.08 319.9 216.886C322.581 224.002 333.107 229.702 339.614 231.137C341.338 231.521 342.776 231.602 343.717 231.333C344.642 231.068 345.086 230.461 344.826 229.466C345.29 230.754 345.685 231.998 346.028 233.18H346.024C348.961 244.064 331.509 244.149 330.943 244.149H347.951C349.805 244.149 351.313 245.658 351.313 247.517V266.76C351.313 268.619 349.805 270.128 347.951 270.128H329.447C330.083 267.649 330.425 265.051 330.425 262.376C330.425 245.324 316.604 231.492 299.563 231.492C282.523 231.492 268.701 245.324 268.701 262.376C268.701 265.055 269.043 267.649 269.679 270.128H144.918C145.574 267.653 145.921 265.059 145.921 262.376C145.921 245.674 132.393 232.137 115.702 232.137C99.0122 232.137 85.484 245.674 85.484 262.376C85.484 265.059 85.8304 267.653 86.4905 270.128H73.7895C71.6951 270.128 70 268.432 70 266.34V247.937C70 246.889 70.4238 245.947 71.1083 245.258C71.7929 244.573 72.7423 244.149 73.7895 244.149H80.6799C80.6799 244.149 71.5566 233.845 82.3098 201.893C82.3098 201.889 82.3139 201.885 82.3139 201.88C82.7254 200.865 83.1451 199.866 83.573 198.888H87.5948C88.5931 198.888 89.5384 198.627 90.3697 198.158C91.4862 197.53 92.3826 196.527 92.8634 195.279L92.8879 195.226L94.64 190.696L96.0376 187.071L97.9895 182.027L100.642 175.164L102.9 169.329L104.081 166.262H104.085L98.4499 160.619C97.8468 160.015 97.5005 159.196 97.4923 158.34C97.4883 158.327 97.4883 158.307 97.4883 158.295H200.058C200.058 158.295 218.712 157.801 240.508 162.805C255.21 168.721 272.368 179.327 282.824 198.121H295.688C296.055 198.121 296.413 198.125 296.776 198.129C308.956 198.288 318.23 201.102 325.303 205.273C325.303 205.273 324.118 205.322 322.765 205.872C321.477 206.394 320.035 207.369 319.309 209.171C318.967 210.011 318.78 211.031 318.837 212.27L318.841 212.262ZM299.567 227.325C318.609 227.325 334.097 242.526 334.573 261.467C334.142 240.683 318.633 223.981 299.567 223.981C280.502 223.981 264.993 240.683 264.561 261.467C265.038 242.526 280.53 227.325 299.567 227.325ZM82.322 241.083H82.3791C82.7499 241.05 83.027 240.728 82.9984 240.353C81.4297 221.241 91.2335 202.382 91.3313 202.19L91.8529 201.195H84.5265C84.1557 201.195 83.8501 201.497 83.8501 201.872C83.8501 202.247 84.1557 202.549 84.5265 202.549H89.6444C87.6355 206.733 80.2561 223.484 81.6497 240.463C81.6782 240.814 81.9757 241.083 82.322 241.083ZM115.711 198.113H270.355C249.574 166.34 211.357 166.25 211.357 166.25H120.8C118.07 166.25 115.637 167.975 114.729 170.548L113.791 173.125L112.125 177.696L109.969 183.621L107.431 190.59L106.571 192.955C105.683 195.475 107.549 198.117 110.218 198.117H115.719L115.711 198.113ZM107.427 222.407C107.801 222.407 108.103 222.106 108.103 221.73V201.872C108.103 201.497 107.801 201.195 107.427 201.195C107.052 201.195 106.75 201.497 106.75 201.872V221.73C106.75 222.106 107.052 222.407 107.427 222.407ZM123.127 211.699H131.675C132.829 211.699 133.77 210.762 133.77 209.604C133.77 208.445 132.833 207.508 131.675 207.508H123.127C121.973 207.508 121.032 208.441 121.032 209.604C121.032 210.766 121.969 211.699 123.127 211.699ZM188.294 253.683C191.586 259.726 198.522 266.927 212.853 266.927C213.227 266.927 213.529 266.625 213.529 266.25C213.529 265.875 213.227 265.573 212.853 265.573C201.883 265.573 194.019 261.357 189.48 253.034C186.081 246.808 185.918 240.52 185.918 240.455V207.512C185.918 207.137 185.613 206.835 185.242 206.835C184.871 206.835 184.566 207.137 184.566 207.512V240.467C184.57 240.753 184.737 247.167 188.294 253.683ZM195.792 211.699H204.34C205.494 211.699 206.435 210.762 206.435 209.604C206.435 208.445 205.498 207.508 204.34 207.508H195.792C194.63 207.508 193.693 208.441 193.693 209.604C193.693 210.766 194.63 211.699 195.792 211.699ZM271.619 235.085C271.993 235.085 272.295 234.783 272.295 234.408V207.512C272.295 207.137 271.993 206.835 271.619 206.835C271.244 206.835 270.942 207.137 270.942 207.512V234.408C270.942 234.783 271.248 235.085 271.619 235.085Z" fill="#F49642"/>
<path d="M319.314 209.167C318.971 210.007 318.784 211.027 318.841 212.266L339.614 231.138C341.338 231.521 342.776 231.602 343.717 231.333L319.318 209.167H319.314Z" fill="#CED5D8"/>
<path d="M339.614 231.138L318.841 212.266C318.898 213.559 319.22 215.084 319.9 216.89C322.581 224.006 333.107 229.706 339.614 231.142V231.138Z" fill="#B8C0C4"/>
<path d="M343.717 231.333C344.642 231.068 345.086 230.461 344.826 229.466C344.821 229.458 344.821 229.449 344.817 229.437C344.748 229.258 344.687 229.074 344.614 228.891C344.61 228.879 344.606 228.866 344.601 228.854C343.966 227.158 343.204 225.392 342.299 223.606L322.773 205.864C321.485 206.386 320.043 207.361 319.318 209.163L343.717 231.329V231.333Z" fill="#B8C0C4"/>
<path d="M342.299 223.606C341.884 222.782 341.431 221.959 340.955 221.131C337.601 215.357 332.642 209.587 325.312 205.265C325.312 205.265 324.126 205.314 322.773 205.864L342.299 223.606Z" fill="#CED5D8"/>
<path d="M128.591 249.483C135.701 256.602 135.701 268.142 128.591 275.266C121.476 282.381 109.945 282.381 102.83 275.266C95.7158 268.146 95.7158 256.606 102.83 249.483C109.941 242.367 121.472 242.367 128.591 249.483ZM127.544 274.218C134.08 267.677 134.08 257.075 127.544 250.531C121.012 243.994 110.413 243.994 103.873 250.531C97.3416 257.071 97.3416 267.673 103.873 274.218C110.409 280.758 121.008 280.758 127.544 274.218Z" fill="#1D3260"/>
<path d="M115.711 246.853C115.711 246.853 111.122 246.853 111.937 248.945C112.76 251.04 114.297 255.591 115.711 255.591C117.124 255.591 118.665 251.04 119.484 248.945C120.307 246.853 115.711 246.853 115.711 246.853Z" fill="#65727A"/>
<path d="M104.745 251.395C104.745 251.395 101.498 254.645 103.556 255.55C105.617 256.447 109.92 258.58 110.919 257.577C111.921 256.578 109.79 252.268 108.893 250.209C107.993 248.149 104.745 251.395 104.745 251.395Z" fill="#65727A"/>
<path d="M102.296 258.596C100.202 257.773 100.202 262.372 100.202 262.372C100.202 262.372 100.202 266.968 102.296 266.148C104.387 265.333 108.938 263.787 108.938 262.372C108.938 260.957 104.387 259.416 102.296 258.596Z" fill="#65727A"/>
<path d="M103.556 269.194C101.498 270.095 104.745 273.349 104.745 273.349C104.745 273.349 107.989 276.595 108.893 274.536C109.79 272.477 111.921 268.167 110.919 267.167C109.92 266.164 105.617 268.297 103.556 269.194Z" fill="#65727A"/>
<path d="M111.937 275.8C111.122 277.892 115.711 277.892 115.711 277.892C115.711 277.892 120.303 277.892 119.484 275.8C118.669 273.704 117.124 269.153 115.711 269.153C114.297 269.153 112.76 273.704 111.937 275.8Z" fill="#65727A"/>
<path d="M120.502 267.167C119.504 268.167 121.631 272.477 122.532 274.536C123.428 276.595 126.68 273.349 126.68 273.349C126.68 273.349 129.923 270.099 127.866 269.194C125.808 268.297 121.505 266.164 120.502 267.167Z" fill="#65727A"/>
<path d="M129.129 258.596C127.034 259.412 122.487 260.957 122.487 262.372C122.487 263.787 127.034 265.328 129.129 266.148C131.223 266.972 131.223 262.372 131.223 262.372C131.223 262.372 131.223 257.777 129.129 258.596Z" fill="#65727A"/>
<path d="M122.532 250.209C121.631 252.268 119.504 256.578 120.502 257.577C121.505 258.58 125.808 256.447 127.866 255.55C129.923 254.649 126.68 251.395 126.68 251.395C126.68 251.395 123.432 248.149 122.532 250.209Z" fill="#65727A"/>
<path d="M119.484 275.8C118.669 273.704 117.124 269.153 115.711 269.153C114.297 269.153 112.76 273.704 111.937 275.8C111.122 277.892 115.711 277.892 115.711 277.892C115.711 277.892 120.303 277.892 119.484 275.8ZM111.937 248.945C112.76 251.04 114.297 255.591 115.711 255.591C117.124 255.591 118.665 251.04 119.484 248.945C120.307 246.853 115.711 246.853 115.711 246.853C115.711 246.853 111.122 246.853 111.937 248.945ZM127.866 269.194C125.808 268.297 121.505 266.164 120.502 267.167C119.504 268.167 121.631 272.477 122.532 274.536C123.428 276.595 126.68 273.349 126.68 273.349C126.68 273.349 129.923 270.099 127.866 269.194ZM129.129 258.596C127.034 259.412 122.487 260.957 122.487 262.372C122.487 263.787 127.034 265.328 129.129 266.148C131.223 266.972 131.223 262.372 131.223 262.372C131.223 262.372 131.223 257.777 129.129 258.596ZM120.502 257.577C121.505 258.58 125.808 256.447 127.866 255.55C129.923 254.649 126.68 251.395 126.68 251.395C126.68 251.395 123.432 248.149 122.532 250.209C121.631 252.268 119.504 256.578 120.502 257.577ZM102.296 266.148C104.387 265.333 108.938 263.787 108.938 262.372C108.938 260.957 104.387 259.416 102.296 258.596C100.202 257.773 100.202 262.372 100.202 262.372C100.202 262.372 100.202 266.968 102.296 266.148ZM127.544 250.531C134.08 257.071 134.08 267.673 127.544 274.218C121.012 280.758 110.413 280.758 103.873 274.218C97.3416 267.677 97.3416 257.075 103.873 250.531C110.409 243.994 121.008 243.994 127.544 250.531ZM110.919 257.577C111.921 256.578 109.79 252.268 108.894 250.209C107.993 248.149 104.745 251.395 104.745 251.395C104.745 251.395 101.498 254.645 103.556 255.55C105.617 256.447 109.92 258.58 110.919 257.577ZM108.894 274.536C109.79 272.477 111.921 268.167 110.919 267.167C109.92 266.164 105.617 268.297 103.556 269.194C101.498 270.095 104.745 273.349 104.745 273.349C104.745 273.349 107.989 276.595 108.894 274.536ZM115.711 267.412C118.494 267.412 120.747 265.153 120.747 262.372C120.747 259.591 118.494 257.332 115.711 257.332C112.928 257.332 110.674 259.591 110.674 262.372C110.674 265.153 112.932 267.412 115.711 267.412Z" fill="#ABB4B9"/>
<path d="M119.269 265.935C121.236 263.967 121.236 260.776 119.269 258.808C117.302 256.84 114.114 256.84 112.147 258.808C110.18 260.776 110.18 263.967 112.147 265.935C114.114 267.904 117.302 267.904 119.269 265.935Z" fill="#B8C0C4"/>
<path d="M87.6315 190.439C87.0243 191.593 86.4213 192.787 85.8223 194.015L90.3738 198.15C91.4902 197.522 92.3867 196.518 92.8675 195.271L92.892 195.218L87.6315 190.439Z" fill="#0C193B"/>
<path d="M91.7469 183.156C91.1235 184.18 90.496 185.244 89.8685 186.349L94.6441 190.687L96.0417 187.062L91.7469 183.156Z" fill="#0C193B"/>
<path d="M94.4893 178.834L97.9935 182.018L100.646 175.156L98.454 173.17C97.2438 174.797 95.9032 176.693 94.4893 178.838V178.834Z" fill="#0C193B"/>
<path d="M102.904 169.321L104.085 166.254C104.012 166.332 103.274 167.123 102.072 168.566L102.904 169.321Z" fill="#0C193B"/>
<path d="M83.5811 198.879H87.6029C88.6012 198.879 89.5465 198.618 90.3778 198.149L85.8263 194.015C85.0684 195.581 84.3146 197.203 83.5852 198.883L83.5811 198.879Z" fill="#192D59"/>
<path d="M87.6315 190.439L92.892 195.218L94.6441 190.687L89.8685 186.349C89.1228 187.654 88.3731 189.016 87.6315 190.439Z" fill="#192D59"/>
<path d="M94.4893 178.834C93.5969 180.175 92.6801 181.619 91.7469 183.156L96.0417 187.062L97.9935 182.018L94.4893 178.834Z" fill="#192D59"/>
<path d="M100.65 175.156L102.908 169.321L102.076 168.566C101.123 169.704 99.8842 171.249 98.4581 173.166L100.65 175.152V175.156Z" fill="#192D59"/>
<path d="M255.299 165.198L258.571 168.171C261.949 169.443 265.307 170.874 268.583 172.493L266.574 170.674C263.176 168.754 259.427 166.911 255.299 165.202V165.198Z" fill="#264172"/>
<path d="M266.574 170.67L268.583 172.489C270.637 173.5 272.658 174.585 274.634 175.747C272.201 174.03 269.52 172.322 266.574 170.666V170.67Z" fill="#192D59"/>
<path d="M212.853 155.563C212.853 155.563 225.386 156.7 240.516 162.796C246.408 164.142 252.528 165.899 258.571 168.171L255.299 165.198C244.122 160.562 230.158 156.908 212.853 155.563Z" fill="#192D59"/>
<path d="M258.571 168.171L291.528 198.117H295.696C295.696 198.117 295.346 197.375 294.559 196.094L268.583 172.493C265.307 170.878 261.949 169.447 258.571 168.171Z" fill="#192D59"/>
<path d="M173.959 166.25L181.848 198.113H189.182L181.302 166.25H173.959Z" fill="#F9CAB1"/>
<path d="M128.456 186.451L130.319 193.982L131.345 198.113H138.684L133.868 178.638L131.667 169.765L130.799 166.25H123.457L128.456 186.451Z" fill="#F9CAB1"/>
<path d="M109.965 183.621L107.427 190.585L115.711 198.113H125.918L109.965 183.621Z" fill="#192D59"/>
<path d="M113.787 173.125L112.125 177.696L130.107 194.035L130.319 193.982L128.456 186.451L113.787 173.125Z" fill="#192D59"/>
<path d="M131.667 169.765L133.868 178.638L155.297 198.113H162.872L131.667 169.765Z" fill="#192D59"/>
<path d="M134.238 166.25L169.31 198.113H180.405L145.334 166.25H134.238Z" fill="#192D59"/>
<path d="M182.532 166.25L217.604 198.113H225.175L190.103 166.25H182.532Z" fill="#192D59"/>
<path d="M196.545 166.25L231.617 198.113H242.712L207.641 166.25H196.545Z" fill="#192D59"/>
<path d="M268.583 172.489L294.559 196.09C292.261 192.347 286.288 183.967 274.634 175.751C272.658 174.585 270.637 173.504 268.583 172.493V172.489Z" fill="#0C193B"/>
<path d="M258.571 168.171C252.524 165.9 246.408 164.142 240.516 162.796C255.218 168.713 272.376 179.319 282.832 198.113H291.528L258.571 168.167V168.171Z" fill="#0C193B"/>
<path d="M106.563 192.955C105.674 195.475 107.541 198.117 110.21 198.117H115.711L107.427 190.59L106.567 192.955H106.563Z" fill="#0C193B"/>
<path d="M112.125 177.696L109.965 183.621L125.918 198.113H131.345L130.319 193.982L130.107 194.035L112.125 177.696Z" fill="#0C193B"/>
<path d="M114.724 170.548L113.787 173.125L128.456 186.451L123.457 166.25H120.8C118.07 166.25 115.637 167.975 114.728 170.548H114.724Z" fill="#0C193B"/>
<path d="M133.868 178.638L138.684 198.113H155.297L133.868 178.638Z" fill="#0C193B"/>
<path d="M130.799 166.25L131.667 169.765L162.872 198.113H169.31L134.238 166.25H130.799Z" fill="#0C193B"/>
<path d="M145.334 166.25L180.405 198.113H181.848L173.959 166.25H145.334Z" fill="#0C193B"/>
<path d="M181.302 166.25L189.182 198.113H217.604L182.532 166.25H181.302Z" fill="#0C193B"/>
<path d="M190.103 166.25L225.175 198.113H231.617L196.545 166.25H190.103Z" fill="#0C193B"/>
<path d="M211.357 166.25C211.357 166.25 249.574 166.34 270.355 198.113H242.712L207.641 166.25H211.357ZM244.554 193.725C245.019 195.132 246.335 196.086 247.822 196.086H260.482C263.078 196.086 264.37 192.971 262.56 191.107C259.59 188.045 254.488 184.62 246.323 184.139C243.914 183.996 242.13 186.353 242.884 188.645L244.554 193.725Z" fill="#0C193B"/>
<path d="M299.567 257.332C296.788 257.332 294.531 259.591 294.531 262.372C294.531 265.153 296.788 267.412 299.567 267.412C302.346 267.412 304.604 265.153 304.604 262.372C304.604 259.591 302.346 257.332 299.567 257.332Z" fill="#B8C0C4"/>
<path d="M288.598 251.395C288.598 251.395 285.355 254.645 287.412 255.55C289.47 256.447 293.777 258.58 294.775 257.577C295.778 256.578 293.647 252.268 292.75 250.209C291.85 248.149 288.598 251.395 288.598 251.395Z" fill="#65727A"/>
<path d="M286.149 258.596C284.059 257.773 284.059 262.372 284.059 262.372C284.059 262.372 284.059 266.968 286.149 266.148C288.244 265.333 292.791 263.787 292.791 262.372C292.791 260.957 288.244 259.416 286.149 258.596Z" fill="#65727A"/>
<path d="M287.412 269.194C285.355 270.095 288.598 273.349 288.598 273.349C288.598 273.349 291.846 276.595 292.75 274.536C293.647 272.477 295.778 268.167 294.775 267.167C293.777 266.164 289.47 268.297 287.412 269.194Z" fill="#65727A"/>
<path d="M295.794 275.8C294.971 277.892 299.567 277.892 299.567 277.892C299.567 277.892 304.156 277.892 303.341 275.8C302.526 273.704 300.981 269.153 299.567 269.153C298.153 269.153 296.613 273.704 295.794 275.8Z" fill="#65727A"/>
<path d="M304.359 267.167C303.357 268.167 305.488 272.477 306.384 274.536C307.285 276.595 310.532 273.349 310.532 273.349C310.532 273.349 313.78 270.099 311.722 269.194C309.664 268.297 305.358 266.164 304.359 267.167Z" fill="#65727A"/>
<path d="M312.981 258.596C310.891 259.412 306.344 260.957 306.344 262.372C306.344 263.787 310.891 265.328 312.981 266.148C315.076 266.972 315.076 262.372 315.076 262.372C315.076 262.372 315.076 257.777 312.981 258.596Z" fill="#65727A"/>
<path d="M306.384 250.209C305.488 252.268 303.357 256.578 304.359 257.577C305.358 258.58 309.664 256.447 311.722 255.55C313.78 254.649 310.532 251.395 310.532 251.395C310.532 251.395 307.289 248.149 306.384 250.209Z" fill="#65727A"/>
<path d="M299.567 246.853C299.567 246.853 294.975 246.853 295.794 248.945C296.609 251.04 298.153 255.591 299.567 255.591C300.981 255.591 302.521 251.04 303.341 248.945C304.155 246.853 299.567 246.853 299.567 246.853Z" fill="#65727A"/>
<path d="M312.448 249.483C319.558 256.602 319.558 268.142 312.448 275.266C305.333 282.381 293.802 282.381 286.683 275.266C279.572 268.146 279.572 256.606 286.683 249.483C293.797 242.367 305.329 242.367 312.448 249.483ZM311.4 274.218C317.932 267.677 317.932 257.075 311.4 250.531C304.864 243.994 294.27 243.994 287.73 250.531C281.194 257.071 281.194 267.673 287.73 274.218C294.266 280.758 304.86 280.758 311.4 274.218Z" fill="#1D3260"/>
<path d="M286.149 266.148C288.244 265.333 292.791 263.787 292.791 262.372C292.791 260.957 288.244 259.416 286.149 258.596C284.059 257.773 284.059 262.372 284.059 262.372C284.059 262.372 284.059 266.968 286.149 266.148ZM304.359 257.577C305.358 258.58 309.665 256.447 311.722 255.55C313.78 254.649 310.532 251.395 310.532 251.395C310.532 251.395 307.289 248.149 306.384 250.209C305.488 252.268 303.357 256.578 304.359 257.577ZM312.981 258.596C310.891 259.412 306.344 260.957 306.344 262.372C306.344 263.787 310.891 265.328 312.981 266.148C315.076 266.972 315.076 262.372 315.076 262.372C315.076 262.372 315.076 257.777 312.981 258.596ZM303.336 275.8C302.522 273.704 300.977 269.153 299.563 269.153C298.149 269.153 296.609 273.704 295.79 275.8C294.967 277.892 299.563 277.892 299.563 277.892C299.563 277.892 304.151 277.892 303.336 275.8ZM295.794 248.945C296.609 251.04 298.153 255.591 299.567 255.591C300.981 255.591 302.522 251.04 303.341 248.945C304.155 246.853 299.567 246.853 299.567 246.853C299.567 246.853 294.975 246.853 295.794 248.945ZM311.722 269.194C309.665 268.297 305.358 266.164 304.359 267.167C303.357 268.167 305.488 272.477 306.384 274.536C307.285 276.595 310.532 273.349 310.532 273.349C310.532 273.349 313.78 270.099 311.722 269.194ZM287.73 250.531C294.266 243.994 304.86 243.994 311.4 250.531C317.932 257.071 317.932 267.673 311.4 274.218C304.864 280.758 294.27 280.758 287.73 274.218C281.194 267.677 281.194 257.075 287.73 250.531ZM294.775 257.577C295.778 256.578 293.647 252.268 292.75 250.209C291.85 248.149 288.598 251.395 288.598 251.395C288.598 251.395 285.355 254.645 287.412 255.55C289.47 256.447 293.777 258.58 294.775 257.577ZM292.75 274.536C293.647 272.477 295.778 268.167 294.775 267.167C293.777 266.164 289.47 268.297 287.412 269.194C285.355 270.095 288.598 273.349 288.598 273.349C288.598 273.349 291.846 276.595 292.75 274.536ZM299.567 267.412C302.346 267.412 304.604 265.153 304.604 262.372C304.604 259.591 302.346 257.332 299.567 257.332C296.788 257.332 294.531 259.591 294.531 262.372C294.531 265.153 296.788 267.412 299.567 267.412Z" fill="#ABB4B9"/>
<path d="M143.655 262.372C143.655 277.818 131.142 290.341 115.706 290.341C100.271 290.341 87.7659 277.818 87.7659 262.372C87.7659 246.926 100.279 234.404 115.706 234.404C131.133 234.404 143.655 246.926 143.655 262.372ZM128.591 275.262C135.701 268.142 135.701 256.602 128.591 249.479C121.476 242.363 109.945 242.363 102.83 249.479C95.7158 256.598 95.7158 268.138 102.83 275.262C109.941 282.377 121.472 282.377 128.591 275.262Z" fill="#0C193B"/>
<path d="M299.567 290.341C284.132 290.341 271.619 277.818 271.619 262.372C271.619 246.926 284.132 234.404 299.567 234.404C315.002 234.404 327.516 246.926 327.516 262.372C327.516 277.818 315.007 290.341 299.567 290.341ZM312.448 275.262C319.558 268.142 319.558 256.602 312.448 249.479C305.333 242.363 293.802 242.363 286.683 249.479C279.573 256.598 279.573 268.138 286.683 275.262C293.797 282.377 305.329 282.377 312.448 275.262Z" fill="#0C193B"/>
<path d="M123.127 207.508C121.973 207.508 121.032 208.441 121.032 209.604C121.032 210.766 121.969 211.699 123.127 211.699H131.675C132.829 211.699 133.77 210.762 133.77 209.604C133.77 208.445 132.833 207.508 131.675 207.508H123.127Z" fill="#F49642"/>
<path d="M195.792 207.508C194.63 207.508 193.693 208.441 193.693 209.604C193.693 210.766 194.63 211.699 195.792 211.699H204.34C205.494 211.699 206.435 210.762 206.435 209.604C206.435 208.445 205.498 207.508 204.34 207.508H195.792Z" fill="#F49642"/>
<path d="M200.066 158.287C200.066 158.287 218.72 157.793 240.516 162.796C225.386 156.7 212.853 155.563 212.853 155.563C208.154 155.192 203.212 155 198.012 155H100.781C98.9674 155 97.4964 156.472 97.4964 158.287H200.066Z" fill="#F9CAB1"/>
<path d="M82.318 201.889C77.4975 213.763 73.7977 228.104 73.7977 244.145H80.6881C80.6881 244.145 71.5647 233.841 82.318 201.889Z" fill="#F49642"/>
<path d="M115.711 223.985C96.6448 223.985 81.1363 240.687 80.7043 261.471C81.1811 242.53 96.6733 227.329 115.711 227.329C134.748 227.329 150.24 242.53 150.717 261.471C150.285 240.687 134.776 223.985 115.711 223.985Z" fill="#F49642"/>
<path d="M299.567 223.985C280.502 223.985 264.993 240.687 264.561 261.471C265.038 242.53 280.53 227.329 299.567 227.329C318.605 227.329 334.097 242.53 334.574 261.471C334.142 240.687 318.633 223.985 299.567 223.985Z" fill="#F49642"/>
<path d="M347.951 244.145C347.951 244.145 347.825 239.509 346.024 233.176H346.019C348.957 244.06 331.505 244.145 330.939 244.145H347.947H347.951Z" fill="#F49642"/>
<path d="M270.942 207.508V234.404C270.942 234.779 271.248 235.081 271.619 235.081C271.989 235.081 272.295 234.779 272.295 234.404V207.508C272.295 207.132 271.993 206.831 271.619 206.831C271.244 206.831 270.942 207.132 270.942 207.508Z" fill="#F49642"/>
<path d="M89.6444 202.553C87.6355 206.737 80.2562 223.488 81.6497 240.467C81.6782 240.818 81.9757 241.087 82.3221 241.087H82.3791C82.7499 241.054 83.027 240.732 82.9985 240.357C81.4297 221.245 91.2335 202.386 91.3313 202.195L91.8529 201.2H84.5265C84.1557 201.2 83.8501 201.501 83.8501 201.876C83.8501 202.252 84.1557 202.553 84.5265 202.553H89.6444Z" fill="#F49642"/>
<path d="M246.323 184.139C243.914 183.996 242.13 186.353 242.883 188.645L244.554 193.725C245.019 195.132 246.335 196.086 247.822 196.086H260.482C263.078 196.086 264.37 192.971 262.56 191.107C259.59 188.045 254.488 184.62 246.323 184.139Z" fill="#F9CAB1"/>
<path d="M188.294 253.683C191.586 259.726 198.522 266.927 212.853 266.927C213.227 266.927 213.529 266.625 213.529 266.25C213.529 265.875 213.227 265.573 212.853 265.573C201.883 265.573 194.019 261.357 189.48 253.034C186.081 246.808 185.918 240.52 185.918 240.455V207.512C185.918 207.137 185.613 206.835 185.242 206.835C184.871 206.835 184.566 207.137 184.566 207.512V240.467C184.57 240.753 184.737 247.167 188.294 253.683Z" fill="#F49642"/>
<path d="M106.75 201.876V221.735C106.75 222.11 107.052 222.411 107.427 222.411C107.801 222.411 108.103 222.11 108.103 221.735V201.876C108.103 201.501 107.801 201.2 107.427 201.2C107.052 201.2 106.75 201.501 106.75 201.876Z" fill="#F49642"/>
<path d="M254.633 158.665C254.633 158.665 254.614 158.665 254.607 158.665C254.304 158.654 254.024 158.496 253.85 158.243L250.174 152.874C249.867 152.429 249.977 151.818 250.416 151.507C250.855 151.204 251.461 151.307 251.764 151.757L254.705 156.054L262.499 146.361C262.836 145.939 263.446 145.881 263.862 146.219C264.279 146.561 264.339 147.183 264.002 147.602L255.394 158.308C255.209 158.539 254.929 158.673 254.633 158.669V158.665Z" fill="#557DE0"/>
</g>
<defs>
<clipPath id="clip0_9_580">
<rect width="418" height="287" fill="white" transform="translate(1 3)"/>
</clipPath>
</defs>
</svg>
