<svg width="420" height="293" viewBox="0 0 420 293" fill="none" xmlns="http://www.w3.org/2000/svg">
<path d="M31.8788 140.816C46.2704 64.8203 137.322 87.8427 177.203 61.5015C206.473 42.1667 253.173 -18.5509 319.18 5.58683C410.913 39.1347 417.718 190.203 329.678 244.834C284.291 273 178.007 290.378 100.852 255.833C64.1373 239.393 20.3537 201.68 31.8788 140.816Z" fill="#9FC4F8"/>
<path d="M215.922 293C313.156 293 391.98 282.62 391.98 269.815C391.98 257.01 313.156 246.629 215.922 246.629C118.688 246.629 39.8643 257.01 39.8643 269.815C39.8643 282.62 118.688 293 215.922 293Z" fill="#557DE0"/>
<path d="M257.669 60.5661L367.957 61.7736C374.019 62.0088 378.745 67.1825 378.513 73.333L372.513 249.283C372.281 255.433 367.181 260.227 361.118 259.992L247.028 253.981C240.965 253.746 236.24 248.573 236.471 242.422L246.279 71.2707C246.51 65.1202 251.61 60.3265 257.673 60.5616L257.669 60.5661Z" fill="#F49642"/>
<g style="mix-blend-mode:overlay" opacity="0.4">
<path d="M257.669 60.5661L367.957 61.7736C374.019 62.0088 378.745 67.1825 378.513 73.333L372.513 249.283C372.281 255.433 367.181 260.227 361.118 259.992L247.028 253.981C240.965 253.746 236.24 248.573 236.471 242.422L246.279 71.2707C246.51 65.1202 251.61 60.3265 257.673 60.5616L257.669 60.5661Z" fill="#283044"/>
</g>
<path d="M374.849 72.5782L368.853 248.532C368.617 254.683 363.522 259.477 357.455 259.237L342.432 258.45L327.502 257.663H327.457L320.369 257.288L310.749 256.786L291.037 255.746L269.692 254.628L243.364 253.236C239.236 253.077 235.723 250.635 233.98 247.139C233.169 245.498 232.732 243.634 232.808 241.672L242.606 70.5204C242.842 64.3699 247.938 59.5762 254.005 59.8159L364.293 61.0143C370.356 61.254 375.081 66.4231 374.845 72.5782H374.849Z" fill="#F49642"/>
<path d="M252.484 66.9558C252.484 66.9558 244.201 234.548 229 239.165C229 239.165 262.902 241.535 295.842 242.634C322.83 243.534 349.167 244.941 355.675 232.02C366.134 203.452 366.41 67.5482 366.41 67.5482L252.489 66.9603L252.484 66.9558Z" fill="white"/>
<path d="M265.559 98.0297C264.56 97.4282 263.771 96.6097 263.196 95.5695C262.621 94.5339 262.336 93.3897 262.345 92.137C262.358 90.8617 262.648 89.7129 263.223 88.6909C263.798 87.6733 264.582 86.8774 265.572 86.3031C266.562 85.7332 267.676 85.4483 268.911 85.4619C269.575 85.4664 270.231 85.5523 270.868 85.7197C271.506 85.887 272.054 86.1267 272.509 86.4252L271.983 89.3286C271.1 88.9849 270.297 88.8085 269.584 88.8039C268.599 88.7949 267.837 89.0798 267.302 89.6587C266.767 90.2376 266.495 91.0697 266.486 92.1596C266.477 93.2224 266.749 94.0545 267.306 94.6515C267.859 95.2484 268.639 95.5514 269.638 95.5604C270.021 95.5604 270.378 95.5288 270.712 95.4564C271.042 95.3841 271.452 95.2529 271.933 95.0539L272.428 98.0207C271.35 98.6493 270.173 98.9613 268.907 98.9478C267.672 98.9387 266.557 98.6312 265.559 98.0252V98.0297Z" fill="#557DE0"/>
<path d="M276.601 85.8101L282.222 85.8553L285.793 98.7985L281.447 98.7623L280.988 96.2795L277.698 96.2524L277.14 98.7216L272.977 98.69L276.601 85.8101ZM280.564 93.9685L279.41 88.311L278.103 93.9459L280.564 93.964V93.9685Z" fill="#557DE0"/>
<path d="M292.422 95.8904L291.976 93.9548L291.107 93.9457L291.067 98.8435L287.015 98.8074L287.122 85.9003L292.725 85.9501C293.786 85.9591 294.718 86.1219 295.52 86.4521C296.327 86.7777 296.947 87.2299 297.388 87.8088C297.825 88.3832 298.044 89.0479 298.039 89.7987C298.03 90.6353 297.825 91.3363 297.419 91.9061C297.014 92.4714 296.39 92.9327 295.547 93.29C295.627 93.7648 295.725 94.1945 295.832 94.5879C295.975 95.0628 296.176 95.3974 296.434 95.5874C296.693 95.7773 297.067 95.8723 297.562 95.8768C297.736 95.8768 298.008 95.8542 298.378 95.8135L298.351 98.8707C297.772 99.0877 297.201 99.1963 296.648 99.1918C294.33 99.1737 292.921 98.0702 292.422 95.8904ZM291.834 91.3227C292.748 91.3318 293.389 91.2323 293.768 91.0333C294.147 90.8298 294.339 90.477 294.343 89.9796C294.343 89.5545 294.196 89.2424 293.889 89.0479C293.581 88.8535 293.095 88.7495 292.431 88.745L291.156 88.7314L291.134 91.3227H291.838H291.834Z" fill="#557DE0"/>
<path d="M308.792 96.0308L308.346 94.0951L307.477 94.0861L307.437 98.9839L303.384 98.9522L303.491 86.0452L309.095 86.0904C310.156 86.0995 311.088 86.2668 311.89 86.5925C312.697 86.9181 313.316 87.3703 313.758 87.9492C314.195 88.528 314.413 89.1928 314.409 89.9436C314.4 90.7802 314.195 91.4812 313.789 92.0465C313.383 92.6118 312.759 93.0731 311.917 93.4304C311.997 93.9052 312.095 94.3394 312.202 94.7283C312.345 95.2031 312.545 95.5378 312.804 95.7277C313.062 95.9177 313.437 96.0127 313.932 96.0172C314.105 96.0172 314.377 95.9991 314.747 95.9494L314.721 99.0065C314.141 99.2281 313.571 99.3366 313.018 99.3321C310.7 99.314 309.291 98.2106 308.792 96.0262V96.0308ZM308.203 91.4676C309.117 91.4721 309.759 91.3772 310.138 91.1737C310.517 90.9702 310.709 90.6219 310.713 90.1199C310.713 89.6948 310.566 89.3828 310.258 89.1883C309.951 88.9939 309.465 88.8898 308.801 88.8853L307.526 88.8763L307.503 91.4676H308.208H308.203Z" fill="#557DE0"/>
<path d="M316.406 86.1539L325.339 86.2308L325.312 89.08L320.872 89.0438L320.854 91.3909L324.907 91.4271L324.889 93.7923L320.837 93.7561L320.814 96.2525L325.254 96.2887L325.232 99.1424L316.299 99.0655L316.406 86.1585V86.1539Z" fill="#557DE0"/>
<path d="M327.408 86.2488L331.126 86.2804L336.136 93.2857L336.194 86.3257L339.507 86.3528L339.4 99.2598L335.7 99.2282L330.649 92.4671L330.595 99.1829L327.301 99.1558L327.408 86.2488Z" fill="#557DE0"/>
<path d="M343.867 89.243L341.223 89.2204L341.25 86.3713L350.848 86.4527L350.825 89.3018L348.182 89.2792L348.097 99.3371L343.786 99.3009L343.871 89.243H343.867Z" fill="#557DE0"/>
<path d="M325.197 113.239C325.197 113.239 325.197 113.239 325.193 113.239L260.95 112.194C260.478 112.185 260.099 111.792 260.108 111.312C260.116 110.838 260.5 110.453 260.972 110.458H260.977L325.219 111.502C325.692 111.511 326.071 111.905 326.062 112.384C326.053 112.859 325.67 113.244 325.197 113.239Z" fill="#283044"/>
<path d="M324.349 123.188C324.349 123.188 324.349 123.188 324.345 123.188L260.076 122.143C259.603 122.134 259.224 121.741 259.233 121.261C259.242 120.787 259.625 120.402 260.098 120.407H260.102L324.372 121.451C324.844 121.46 325.219 121.854 325.214 122.333C325.205 122.808 324.822 123.192 324.349 123.188Z" fill="#283044"/>
<path d="M301.713 132.78C301.713 132.78 301.713 132.78 301.708 132.78L259.59 132.097C259.118 132.088 258.739 131.695 258.748 131.216C258.757 130.741 259.14 130.356 259.613 130.361L301.731 131.044C302.203 131.053 302.578 131.446 302.573 131.926C302.564 132.4 302.181 132.785 301.708 132.78H301.713Z" fill="#283044"/>
<path d="M351.195 133.526L329.658 133.3C329.427 133.3 329.204 133.196 329.043 133.029C328.883 132.857 328.803 132.622 328.812 132.387L329.872 112.285C329.895 111.823 330.278 111.461 330.737 111.466C330.737 111.466 330.737 111.466 330.742 111.466L352.278 111.805C352.51 111.81 352.733 111.909 352.889 112.081C353.049 112.253 353.129 112.484 353.116 112.719L352.055 132.708C352.028 133.169 351.649 133.531 351.19 133.526H351.195ZM330.568 131.573L350.392 131.781L351.364 113.524L331.54 113.212L330.572 131.573H330.568Z" fill="#283044"/>
<path d="M323.088 148.202C323.088 148.202 323.088 148.202 323.084 148.202L258.841 147.157C258.369 147.148 257.994 146.755 257.999 146.275C258.008 145.8 258.391 145.416 258.864 145.42C258.864 145.42 258.864 145.42 258.868 145.42L323.111 146.465C323.583 146.474 323.958 146.868 323.953 147.347C323.944 147.822 323.561 148.206 323.088 148.202Z" fill="#283044"/>
<path d="M322.241 158.151L257.971 157.107C257.499 157.098 257.124 156.704 257.129 156.225C257.138 155.75 257.521 155.365 257.994 155.37H257.998L322.268 156.415C322.74 156.424 323.114 156.817 323.11 157.297C323.101 157.771 322.718 158.156 322.245 158.151H322.241Z" fill="#283044"/>
<path d="M299.604 167.743L257.486 167.06C257.014 167.051 256.639 166.658 256.644 166.178C256.652 165.703 257.036 165.319 257.508 165.323L299.627 166.006C300.099 166.015 300.473 166.409 300.469 166.888C300.46 167.363 300.077 167.748 299.604 167.743Z" fill="#283044"/>
<path d="M349.091 168.489L327.555 168.263C327.323 168.263 327.1 168.159 326.94 167.992C326.779 167.82 326.699 167.585 326.708 167.35L327.769 147.248C327.791 146.786 328.175 146.425 328.634 146.429C328.634 146.429 328.634 146.429 328.638 146.429L350.174 146.768C350.406 146.773 350.629 146.872 350.785 147.044C350.946 147.216 351.026 147.447 351.013 147.682L349.952 167.671C349.925 168.132 349.546 168.494 349.087 168.489H349.091ZM328.465 166.536L348.289 166.744L349.261 148.487L329.436 148.175L328.469 166.536H328.465Z" fill="#283044"/>
<path d="M320.984 183.165L256.741 182.12C256.269 182.111 255.894 181.717 255.899 181.238C255.908 180.763 256.291 180.379 256.764 180.383C256.764 180.383 256.764 180.383 256.768 180.383L321.011 181.428C321.483 181.437 321.862 181.83 321.853 182.31C321.844 182.785 321.461 183.169 320.988 183.165H320.984Z" fill="#283044"/>
<path d="M320.137 193.114C320.137 193.114 320.137 193.114 320.132 193.114L255.863 192.069C255.39 192.06 255.011 191.667 255.02 191.187C255.029 190.712 255.413 190.328 255.885 190.332H255.89L320.159 191.377C320.631 191.386 321.006 191.78 321.002 192.259C320.993 192.734 320.609 193.118 320.137 193.114Z" fill="#283044"/>
<path d="M297.5 202.706L255.382 202.023C254.909 202.014 254.534 201.621 254.539 201.141C254.548 200.666 254.931 200.282 255.404 200.287L297.522 200.969C297.994 200.978 298.369 201.372 298.364 201.851C298.355 202.326 297.972 202.711 297.5 202.706Z" fill="#283044"/>
<path d="M346.983 203.452L325.447 203.226C325.215 203.226 324.992 203.122 324.832 202.955C324.671 202.783 324.591 202.548 324.604 202.313L325.665 182.21C325.687 181.749 326.071 181.387 326.53 181.392C326.53 181.392 326.53 181.392 326.534 181.392L348.071 181.731C348.302 181.736 348.525 181.835 348.681 182.007C348.842 182.179 348.922 182.409 348.909 182.645L347.848 202.634C347.821 203.095 347.442 203.457 346.983 203.452ZM326.361 201.499L346.185 201.707L347.157 183.45L327.332 183.137L326.365 201.499H326.361Z" fill="#283044"/>
<path d="M337.929 130.316C337.929 130.316 337.907 130.316 337.898 130.316C337.541 130.302 337.211 130.117 337.006 129.818L332.678 123.496C332.321 122.971 332.446 122.252 332.963 121.886C333.48 121.529 334.193 121.651 334.55 122.18L338.014 127.24L347.192 115.826C347.589 115.328 348.307 115.261 348.797 115.659C349.288 116.061 349.359 116.794 348.962 117.287L338.825 129.895C338.607 130.167 338.277 130.325 337.929 130.32V130.316Z" fill="#557DE0"/>
<path d="M335.82 165.279C335.82 165.279 335.798 165.279 335.789 165.279C335.432 165.265 335.102 165.08 334.897 164.781L330.569 158.459C330.208 157.934 330.337 157.215 330.854 156.849C331.371 156.492 332.084 156.614 332.441 157.143L335.905 162.203L345.084 150.789C345.48 150.291 346.198 150.224 346.688 150.621C347.179 151.024 347.25 151.757 346.849 152.25L336.712 164.858C336.493 165.129 336.163 165.288 335.816 165.283L335.82 165.279Z" fill="#557DE0"/>
<path d="M325.603 51.9103C323.106 51.1912 320.85 51.0465 320.85 48.7446V47.623C320.85 46.1758 319.758 45 318.412 45H297.629C296.283 45 295.191 46.1758 295.191 47.623V48.7446C295.191 51.0465 292.935 51.1912 290.439 51.9103C287.942 52.6293 288.776 57.5271 288.776 57.5271L308.021 58.3909L327.265 57.5271C327.265 57.5271 328.099 52.6339 325.603 51.9103Z" fill="#283044"/>
<g style="mix-blend-mode:overlay" opacity="0.4">
<path d="M325.603 51.9103C323.106 51.1912 320.85 51.0465 320.85 48.7446V47.623C320.85 46.1758 319.758 45 318.412 45H297.629C296.283 45 295.191 46.1758 295.191 47.623V48.7446C295.191 51.0465 292.935 51.1912 290.439 51.9103C287.942 52.6293 288.776 57.5271 288.776 57.5271L308.021 58.3909L327.265 57.5271C327.265 57.5271 328.099 52.6339 325.603 51.9103Z" fill="#283044"/>
</g>
<path d="M279.976 70.8004L279.575 59.0783C279.517 57.3643 280.872 55.9443 282.562 55.9443H332.432C334.206 55.9443 335.588 57.5045 335.401 59.2909L334.184 70.9768L279.976 70.8004Z" fill="#283044"/>
<path d="M334.555 200.053C334.555 200.053 334.533 200.053 334.524 200.053C334.167 200.04 333.837 199.854 333.632 199.556L329.304 193.234C328.943 192.709 329.072 191.99 329.589 191.624C330.106 191.266 330.819 191.388 331.176 191.917L334.64 196.978L343.819 185.563C344.215 185.066 344.933 184.998 345.423 185.396C345.914 185.799 345.985 186.531 345.588 187.024L335.451 199.633C335.233 199.904 334.903 200.062 334.555 200.058V200.053Z" fill="#557DE0"/>
<path d="M254.349 282.07H276.348C278.314 282.07 279.909 280.476 279.909 278.509V236.75C279.909 234.784 278.314 233.19 276.348 233.19H254.349C252.382 233.19 250.788 234.784 250.788 236.75V278.509C250.788 280.476 252.382 282.07 254.349 282.07Z" fill="#283044"/>
<path d="M88.2126 242.439V272.815C88.2126 275.758 86.8384 278.384 84.6947 280.075C83.1257 281.327 81.1339 282.067 78.9637 282.067H68.3407C66.0252 282.067 63.9145 281.218 62.2926 279.811C60.3272 278.12 59.0919 275.616 59.0919 272.818V242.442C59.0919 239.654 60.3272 237.147 62.2926 235.449C63.9145 234.042 66.0252 233.193 68.3407 233.193H78.9637C81.1339 233.193 83.1257 233.94 84.6947 235.185C86.8384 236.883 88.2126 239.502 88.2126 242.445V242.439Z" fill="#283044"/>
<g style="mix-blend-mode:overlay" opacity="0.3">
<path d="M276.552 235.182V280.078C274.983 281.33 272.991 282.07 270.821 282.07H260.198C257.883 282.07 255.772 281.221 254.15 279.814V235.449C255.772 234.042 257.883 233.193 260.198 233.193H270.821C272.991 233.193 274.983 233.94 276.552 235.185V235.182Z" fill="white"/>
</g>
<g style="mix-blend-mode:overlay" opacity="0.3">
<path d="M84.6949 235.182V280.078C83.1259 281.33 81.1341 282.07 78.9639 282.07H68.341C66.0255 282.07 63.9147 281.221 62.2929 279.814V235.449C63.9147 234.042 66.0255 233.193 68.341 233.193H78.9639C81.1341 233.193 83.1259 233.94 84.6949 235.185V235.182Z" fill="white"/>
</g>
<path d="M282.429 218.266C282.353 220.119 282.247 221.794 282.121 223.244C281.107 234.973 282.062 248.979 263.458 253.029C256.192 254.598 240.221 255.364 223.48 255.698C198.294 256.213 171.343 255.757 169.507 255.731C167.66 255.757 140.716 256.21 115.533 255.698C98.7825 255.364 82.815 254.601 75.5448 253.029C56.9513 248.979 57.8927 234.973 56.8819 223.244C56.763 221.82 56.6573 220.172 56.5813 218.368C56.0165 205.258 56.6243 183.606 59.1049 176.854C59.3031 176.313 59.5244 175.817 59.7755 175.361C62.4279 170.436 67.4983 170.238 70.2432 165.125C70.3291 164.953 70.4249 164.781 70.5108 164.603C70.6231 164.372 70.7255 164.13 70.8279 163.873C71.1549 163.067 71.429 162.149 71.6437 161.101C73.6686 151.139 88.9589 99.6692 94.0128 90.1726C99.4002 79.7974 114.093 80.4085 124.802 80.4085C135.51 80.4085 166.497 79.8601 169.398 79.8073V79.7974C169.398 79.7974 169.441 79.7974 169.51 79.8073C169.579 79.7974 169.612 79.7974 169.612 79.7974V79.8073C172.512 79.8601 203.995 80.4085 214.208 80.4085C224.927 80.4085 239.616 79.7974 244.997 90.1726C250.051 99.6725 265.351 151.139 267.376 161.101C267.591 162.182 267.881 163.126 268.218 163.959C268.4 164.388 268.588 164.791 268.793 165.168C271.796 170.71 277.537 170.446 279.905 176.854C282.386 183.589 283.003 205.156 282.435 218.266H282.429Z" fill="#F49642"/>
<g style="mix-blend-mode:overlay" opacity="0.2">
<path d="M220.19 195.279L220.877 202.486C220.877 202.486 263.524 201.192 270.554 197.33C275.479 194.618 278.098 182.416 279.221 175.364C276.569 170.439 271.498 170.241 268.753 165.128C268.667 164.956 268.572 164.784 268.489 164.606C267.28 167.688 265.16 171.599 261.546 174.859C254.355 181.346 233.71 190.357 230.81 191.867C227.92 193.36 220.194 195.282 220.194 195.282L220.19 195.279Z" fill="#283044"/>
</g>
<g style="mix-blend-mode:overlay" opacity="0.2">
<path d="M118.797 195.279L118.11 202.486C118.11 202.486 75.4624 201.192 68.4332 197.33C63.5082 194.618 60.8921 182.416 59.7657 175.364C62.4182 170.439 67.4885 170.241 70.2334 165.128C70.3193 164.956 70.4151 164.784 70.501 164.606C71.71 167.688 73.8306 171.599 77.4442 174.859C84.6352 181.346 105.28 190.357 108.18 191.867C111.07 193.36 118.797 195.282 118.797 195.282V195.279Z" fill="#283044"/>
</g>
<g style="mix-blend-mode:overlay" opacity="0.2">
<path d="M169.503 145.914L82.7358 154.555C82.7358 154.555 103.384 165.769 115.999 169.217C128.617 172.663 151.438 173.142 169.5 173.142C187.562 173.142 210.387 172.663 223.001 169.217C235.619 165.772 256.264 154.555 256.264 154.555L169.497 145.914H169.503Z" fill="#283044"/>
</g>
<g style="mix-blend-mode:overlay" opacity="0.2">
<path d="M282.429 218.266C282.353 220.119 282.247 221.794 282.122 223.244C281.107 234.974 282.062 248.979 263.459 253.029C256.192 254.598 240.221 255.364 223.48 255.698C198.294 256.213 171.343 255.757 169.507 255.731C167.66 255.757 140.716 256.21 115.533 255.698C98.7827 255.364 82.8152 254.601 75.545 253.029C56.9515 248.979 57.8929 234.974 56.8821 223.244C56.7632 221.821 56.6575 220.172 56.5815 218.369C60.1423 219.416 66.4844 220.661 77.7779 221.837C104.963 224.678 121.489 224.522 122.777 225.167C124.065 225.811 124.921 226.821 126.262 229.457C127.6 232.083 130.5 236.321 130.5 236.321L211.411 232.014C211.411 232.014 213.479 225.219 216.841 225.005C220.204 224.79 235.788 224.575 241.228 224.077C246.573 223.578 272.404 220.988 282.435 218.266H282.429Z" fill="#283044"/>
</g>
<g style="mix-blend-mode:overlay" opacity="0.2">
<path d="M226.007 248.374C225.079 246.894 222.427 242.851 220.874 241.031C219.322 239.211 218.383 237.279 214.809 237.279H208.867L169.5 237.592L130.133 237.279H124.19C120.616 237.279 119.678 239.211 118.126 241.031C116.573 242.851 113.921 246.894 112.993 248.374C112.444 249.246 114.083 252.863 115.523 255.691C140.71 256.206 167.657 255.757 169.5 255.724C171.34 255.757 198.29 256.206 223.477 255.691C224.917 252.86 226.559 249.246 226.007 248.374Z" fill="#283044"/>
</g>
<path d="M221.822 194.642C221.822 194.642 221.531 197.172 221.204 199.92C221.195 199.963 221.188 200.006 221.188 200.049C220.92 202.203 220.646 204.469 220.468 205.694C220.372 206.388 219.368 207.461 217.842 208.707C216.253 210.011 214.093 211.488 211.8 212.879C207.262 215.66 202.231 218.094 200.259 218.094H138.751C136.779 218.094 131.748 215.657 127.2 212.879C124.917 211.488 122.754 210.011 121.158 208.707C119.632 207.461 118.628 206.391 118.532 205.694C118.351 204.465 118.076 202.209 117.819 200.056V200.046L117.802 199.917C117.475 197.172 117.184 194.639 117.184 194.639C117.184 194.639 118.301 193.909 119.768 193.007C119.844 192.957 119.923 192.911 119.999 192.861C120.111 192.792 120.23 192.716 120.352 192.657C120.55 192.528 120.745 192.409 120.953 192.297C122.876 191.154 125.029 189.988 126.077 189.789C128.171 189.396 167.214 189.763 169.507 189.789C171.789 189.763 210.832 189.396 212.927 189.789C213.984 189.988 216.127 191.154 218.06 192.297C218.265 192.409 218.463 192.528 218.661 192.657C218.78 192.716 218.902 192.792 219.014 192.861C219.084 192.914 219.17 192.957 219.239 193.007C220.716 193.909 221.832 194.639 221.832 194.639L221.822 194.642Z" fill="#283044"/>
<path d="M262.306 174.225C262.306 174.225 252.664 181.307 243.636 185.753C234.609 190.199 230.43 190.807 229.756 193.132C229.082 195.458 236.376 199.788 239.071 199.924C241.767 200.059 264.069 199.154 268.248 195.246C272.426 191.339 274.415 179.504 273.203 177.347C271.99 175.19 263.812 173.125 262.309 174.225H262.306Z" fill="white"/>
<g style="mix-blend-mode:multiply" opacity="0.1">
<path d="M238.936 199.92C241.631 200.058 263.931 199.147 268.112 195.242C268.74 194.658 269.305 193.905 269.837 193.029C263.709 195.741 247.415 197.835 243.596 197.971C239.451 198.116 234.731 193.68 234.731 193.68C252.211 187.724 263.914 175.318 265.107 174.029C263.752 173.841 262.636 173.874 262.173 174.218C262.173 174.218 252.528 181.306 243.501 185.749C234.473 190.195 230.295 190.803 229.617 193.128C228.947 195.454 236.244 199.778 238.936 199.916V199.92Z" fill="#283044"/>
</g>
<path d="M99.9158 199.92C97.2204 200.058 74.9207 199.147 70.7389 195.242C70.1113 194.658 69.5465 193.905 69.0147 193.029C66.0385 188.025 64.7569 179.179 65.7875 177.343C66.6199 175.859 70.7555 174.416 73.7415 174.029C75.0958 173.841 76.2123 173.874 76.6747 174.218C76.6747 174.218 86.32 181.306 95.3475 185.749C104.375 190.195 108.554 190.803 109.231 193.128C109.901 195.454 102.605 199.778 99.9125 199.916L99.9158 199.92Z" fill="white"/>
<g style="mix-blend-mode:multiply" opacity="0.1">
<path d="M99.916 199.92C97.2206 200.058 74.921 199.147 70.7391 195.242C70.1115 194.658 69.5467 193.905 69.0149 193.029C75.1423 195.741 91.4368 197.835 95.2552 197.971C99.4007 198.116 104.121 193.68 104.121 193.68C86.6406 187.724 74.9375 175.318 73.745 174.029C75.0993 173.841 76.2158 173.874 76.6782 174.218C76.6782 174.218 86.3235 181.306 95.351 185.749C104.379 190.195 108.557 190.803 109.234 193.128C109.905 195.454 102.608 199.778 99.916 199.916V199.92Z" fill="#283044"/>
</g>
<path d="M75.1253 226.052L103.575 235.796C105.772 236.549 106.661 239.175 105.376 241.108L103.427 244.034C102.71 245.114 101.458 245.712 100.167 245.6L73.0773 243.195C72.0963 243.109 71.1945 242.614 70.59 241.834L67.2307 237.491C66.2992 236.288 66.2431 234.627 67.0854 233.362L71.0326 227.439C71.9245 226.101 73.6058 225.533 75.1253 226.055V226.052Z" fill="#283044"/>
<path d="M83.0499 235.98C83.1767 233.186 81.0148 230.819 78.221 230.692C75.4273 230.565 73.0596 232.727 72.9328 235.521C72.8059 238.315 74.9679 240.682 77.7616 240.809C80.5554 240.936 82.923 238.774 83.0499 235.98Z" fill="white"/>
<path d="M127.745 233.378L124.917 227.604C124.276 226.296 122.972 225.461 121.512 225.421C116.382 225.282 104.094 224.942 100.827 224.783C96.8866 224.592 61.5758 220.658 56.588 219.013L56.5682 218.118C61.5097 219.749 96.9428 223.736 100.867 223.928C104.124 224.086 116.405 224.427 121.535 224.565C123.315 224.612 124.907 225.632 125.69 227.228L128.518 233.002L127.748 233.378H127.745Z" fill="#283044"/>
<path d="M117.895 194.447L117.707 195.279C117.482 195.227 112.336 194.044 110.72 193.539C109.964 193.307 108.643 192.637 106.816 191.712C104.609 190.589 101.59 189.053 98.0196 187.497C91.8229 184.812 82.0422 179.243 76.4037 174.559C72.4036 171.239 70.8082 167.143 70.2334 165.128C70.4382 164.742 70.6364 164.329 70.8181 163.876C70.9799 164.709 72.1922 169.944 76.9521 173.898C82.5311 178.532 92.2193 184.049 98.3632 186.711C101.957 188.273 104.996 189.816 107.209 190.942C108.993 191.851 110.291 192.511 110.975 192.726C112.554 193.225 117.839 194.434 117.891 194.45L117.895 194.447Z" fill="#283044"/>
<path d="M68.4001 162.05C68.3671 164.881 49.3342 161.647 47.9832 160.973C47.4646 160.715 46.6587 159.559 46.0112 158.079C45.6875 157.326 45.4035 156.504 45.2185 155.661C44.8155 153.825 44.8948 151.949 46.1004 150.865C48.9312 148.302 63.7525 145.002 66.3158 146.145C68.8724 147.294 68.4034 162.05 68.4034 162.05H68.4001Z" fill="#F49642"/>
<path d="M67.4586 155.714L75.1385 155.43L72.6446 163.193H64.8293L67.4586 155.714Z" fill="#F49642"/>
<path d="M55.1508 158.888L47.7286 158.079C47.4049 157.326 47.1208 156.503 46.9358 155.661L54.6652 156.503C54.8436 156.52 54.9955 156.632 55.0616 156.8L55.643 158.214C55.7883 158.554 55.5141 158.924 55.1508 158.885V158.888Z" fill="white"/>
<path d="M211.708 231.198C210.898 229.447 204.566 225.671 202.138 225.671H136.855C134.43 225.671 128.095 229.444 127.285 231.198C126.476 232.948 132.002 240.361 134.965 242.518C137.832 244.602 167.524 244.166 169.493 244.136C171.462 244.166 201.154 244.602 204.021 242.518C206.987 240.361 212.51 232.948 211.701 231.198H211.708Z" fill="#283044"/>
<path d="M263.875 226.052L235.425 235.796C233.228 236.549 232.34 239.175 233.625 241.108L235.573 244.034C236.29 245.114 237.542 245.712 238.834 245.6L265.923 243.195C266.904 243.109 267.806 242.614 268.41 241.834L271.769 237.491C272.701 236.288 272.757 234.627 271.915 233.362L267.968 227.439C267.076 226.101 265.394 225.533 263.875 226.055V226.052Z" fill="#283044"/>
<path d="M266.682 235.736C266.682 238.531 264.417 240.8 261.619 240.8C258.821 240.8 256.555 238.534 256.555 235.736C256.555 232.939 258.821 230.673 261.619 230.673C264.417 230.673 266.682 232.939 266.682 235.736Z" fill="white"/>
<path d="M211.212 233.378L210.443 233.002L213.273 227.228C214.056 225.632 215.648 224.612 217.429 224.565C222.562 224.427 234.85 224.086 238.107 223.928C242.034 223.736 277.487 219.756 282.432 218.124L282.382 219.036C277.394 220.681 242.09 224.595 238.146 224.787C234.879 224.945 222.585 225.285 217.449 225.424C215.985 225.464 214.681 226.299 214.04 227.608L211.209 233.381L211.212 233.378Z" fill="#283044"/>
<path d="M268.783 165.168C268.182 167.193 266.56 171.252 262.587 174.555C256.948 179.239 247.174 184.808 240.981 187.494C237.403 189.046 234.381 190.582 232.178 191.709C230.351 192.634 229.037 193.304 228.273 193.535C226.662 194.041 221.512 195.19 221.297 195.243L221.109 194.401C221.162 194.391 226.437 193.218 228.026 192.719C228.713 192.505 229.998 191.844 231.791 190.936C234.004 189.813 237.043 188.267 240.637 186.704C246.781 184.045 256.459 178.526 262.048 173.891C266.646 170.073 267.971 165.052 268.209 163.956C268.39 164.385 268.579 164.788 268.783 165.164V165.168Z" fill="#283044"/>
<path d="M259.148 153.154C259.148 154.911 253.569 155.463 244.518 155.42C231.93 155.377 212.64 154.191 192.243 153.557C189.745 153.471 187.232 153.402 184.708 153.342C180.916 153.256 177.104 153.197 173.312 153.171C172.044 153.161 170.772 153.154 169.504 153.154C168.757 153.154 168.02 153.154 167.274 153.164C157.414 153.207 147.382 153.498 137.8 153.868C106.446 155.07 79.8623 156.999 79.8623 153.154C79.8623 148.031 96.5697 91.527 98.5945 90.1793C99.1098 89.8357 103.896 89.5781 110.78 89.3733C117.063 89.185 125.093 89.0463 133.175 88.9538C135.57 88.9274 137.972 88.9009 140.333 88.8778C142.375 88.8613 144.393 88.8448 146.348 88.825C150.451 88.7919 154.296 88.7655 157.642 88.749C160.559 88.7325 163.092 88.7226 165.064 88.716C167.337 88.7061 168.873 88.6995 169.404 88.6995H169.609C172.133 88.7094 197.138 88.7688 216.736 89.119C229.307 89.3337 239.656 89.6772 240.419 90.1826C242.437 91.5303 259.151 148.034 259.151 153.157L259.148 153.154Z" fill="#283044"/>
<g style="mix-blend-mode:overlay" opacity="0.3">
<path d="M184.708 153.342C180.916 153.256 177.104 153.197 173.312 153.171L146.341 88.8216C150.444 88.7886 154.289 88.7622 157.635 88.7457L184.708 153.342Z" fill="white"/>
<path d="M244.518 155.42C231.93 155.377 212.639 154.192 192.242 153.557L165.057 88.7096C167.33 88.6997 168.866 88.6931 169.398 88.6931H169.603C172.126 88.703 197.131 88.7624 216.729 89.1126L244.515 155.417L244.518 155.42Z" fill="white"/>
<path d="M167.271 153.164C157.411 153.207 147.379 153.498 137.796 153.868L110.773 89.3736C117.056 89.1853 125.086 89.0466 133.169 88.9541C135.563 88.9277 137.965 88.9012 140.327 88.8781L167.271 153.168V153.164Z" fill="white"/>
</g>
<path d="M270.6 162.05C270.633 164.881 289.666 161.647 291.017 160.973C291.535 160.715 292.341 159.559 292.989 158.079C293.312 157.326 293.596 156.504 293.781 155.661C294.184 153.825 294.105 151.949 292.899 150.865C290.069 148.302 275.247 145.002 272.684 146.145C270.127 147.294 270.596 162.05 270.596 162.05H270.6Z" fill="#F49642"/>
<path d="M271.541 155.714L263.861 155.43L266.355 163.193H274.17L271.541 155.714Z" fill="#F49642"/>
<path d="M283.849 158.888L291.271 158.079C291.595 157.326 291.879 156.503 292.064 155.661L284.334 156.503C284.156 156.52 284.004 156.632 283.938 156.8L283.357 158.214C283.211 158.554 283.485 158.924 283.849 158.885V158.888Z" fill="white"/>
<g style="mix-blend-mode:overlay" opacity="0.3">
<path d="M218.654 192.66C217.908 193.225 217.135 193.757 216.355 194.265C215.791 194.625 215.213 194.969 214.631 195.312C214.34 195.468 214.046 195.656 213.746 195.791C213.429 195.91 213.095 195.98 212.775 196.092C211.496 196.505 210.182 196.872 208.768 197.06C207.258 197.248 206.03 197.146 204.718 197.162H184.252L173.484 199.6H165.52L154.741 197.162H134.285C132.974 197.146 131.745 197.248 130.235 197.06C128.818 196.872 127.507 196.502 126.219 196.092C125.902 195.98 125.575 195.91 125.257 195.791C124.947 195.653 124.656 195.464 124.366 195.312C123.791 194.969 123.216 194.625 122.648 194.265C121.868 193.76 121.095 193.228 120.349 192.66C120.547 192.531 120.742 192.412 120.95 192.3C121.723 192.488 122.486 192.67 123.249 192.842C123.883 192.997 124.511 193.132 125.155 193.261C125.466 193.331 125.783 193.364 126.09 193.449C126.39 193.552 126.681 193.681 126.975 193.783C128.168 194.17 129.376 194.497 130.546 194.648C131.619 194.804 133 194.724 134.288 194.744H204.722C206.01 194.728 207.391 194.804 208.454 194.648C209.63 194.493 210.832 194.17 212.032 193.783C212.322 193.681 212.616 193.552 212.907 193.449C213.217 193.364 213.541 193.331 213.852 193.261C214.486 193.132 215.12 192.997 215.748 192.842C216.511 192.67 217.284 192.488 218.057 192.3C218.261 192.412 218.46 192.531 218.658 192.66H218.654Z" fill="white"/>
<path d="M221.201 199.921C221.191 199.964 221.185 200.006 221.185 200.049C221.132 200.092 221.082 200.135 221.029 200.168C220.078 200.941 219.074 201.635 218.053 202.305C217.468 202.675 216.871 203.035 216.269 203.386C215.969 203.557 215.668 203.746 215.351 203.891C215.018 204.02 214.674 204.079 214.347 204.198C213.016 204.628 211.662 205.004 210.195 205.202C208.626 205.401 207.354 205.288 206 205.315H184.797L173.632 207.838H165.368L154.213 205.315H133.01C131.646 205.288 130.374 205.401 128.805 205.202C127.345 205.004 125.981 204.628 124.653 204.198C124.326 204.079 123.982 204.017 123.659 203.891C123.342 203.746 123.041 203.557 122.74 203.386C122.133 203.032 121.538 202.672 120.957 202.305C119.936 201.635 118.922 200.941 117.971 200.168C117.918 200.135 117.875 200.092 117.825 200.056V200.046L117.809 199.917C117.947 199.95 118.076 199.987 118.205 200.02C119.338 200.304 120.461 200.578 121.588 200.836C122.238 200.991 122.892 201.136 123.553 201.265C123.87 201.334 124.204 201.367 124.531 201.463C124.841 201.566 125.138 201.704 125.439 201.807C126.684 202.21 127.926 202.553 129.145 202.708C130.245 202.87 131.675 202.784 133.016 202.804H206.007C207.338 202.788 208.771 202.874 209.878 202.708C211.097 202.553 212.342 202.21 213.584 201.807C213.885 201.704 214.185 201.566 214.492 201.463C214.809 201.367 215.143 201.334 215.463 201.265C216.124 201.136 216.785 200.991 217.435 200.836C218.552 200.578 219.675 200.304 220.808 200.02C220.947 199.987 221.082 199.95 221.211 199.917L221.201 199.921Z" fill="white"/>
<path d="M215.457 209.242C215.143 209.308 214.803 209.337 214.486 209.426C214.172 209.539 213.871 209.678 213.571 209.773C212.326 210.176 211.08 210.517 209.868 210.678C208.761 210.84 207.328 210.751 205.993 210.768H133.003C131.669 210.751 130.239 210.84 129.129 210.678C127.917 210.517 126.671 210.176 125.426 209.773C125.125 209.678 124.828 209.539 124.511 209.426C124.197 209.337 123.857 209.304 123.54 209.242C122.876 209.103 122.222 208.957 121.574 208.806C121.436 208.772 121.29 208.743 121.155 208.71C122.747 210.011 124.907 211.491 127.196 212.882C127.722 213.004 128.257 213.11 128.805 213.182C130.374 213.367 131.642 213.261 133 213.288H154.2L165.364 215.812H173.622L184.787 213.288H205.987C207.344 213.265 208.616 213.367 210.182 213.182C210.733 213.11 211.265 213.004 211.79 212.882C214.08 211.491 216.237 210.011 217.829 208.71C217.69 208.743 217.545 208.776 217.409 208.806C216.762 208.961 216.108 209.106 215.444 209.242H215.457Z" fill="white"/>
</g>
<path d="M86.0092 109.585C82.0784 104.584 79.7266 98.2786 79.7266 91.4246C79.7266 75.173 92.8996 62 109.151 62C125.403 62 138.576 75.173 138.576 91.4246C138.576 107.676 125.403 120.849 109.151 120.849C104.259 120.849 99.648 119.647 95.5884 117.536L82.3955 120.516L86.0092 109.589V109.585Z" fill="#557DE0"/>
<path d="M104.653 109.704L89.8279 96.68L93.3953 92.6171L103.999 101.929L124.27 76.9535L128.468 80.3591L104.653 109.704Z" fill="white"/>
<path d="M189.244 199.247C197.984 204.166 201.098 215.297 196.19 224.059C191.283 232.817 180.179 235.942 171.439 231.022C162.699 226.103 159.585 214.972 164.493 206.211C169.4 197.449 180.504 194.328 189.244 199.247ZM190.816 196.444C180.517 190.646 167.483 194.314 161.7 204.635C155.916 214.959 159.575 228.024 169.871 233.822C180.169 239.62 193.203 235.952 198.987 225.631C204.77 215.307 201.111 202.242 190.816 196.444Z" fill="white"/>
<path d="M123.192 261.126C122.544 261.17 121.961 261.543 121.644 262.114L120.563 264.052C120.399 264.342 120.164 264.589 119.877 264.763L115.423 267.464C115.096 267.665 114.714 267.761 114.325 267.74L113.79 267.717C112.896 267.676 112.095 268.25 111.843 269.108L111.781 269.32C111.645 269.788 111.331 270.192 110.912 270.445L103.723 274.707C102.884 275.2 101.813 274.998 101.213 274.229L100.408 273.196C99.8116 272.431 99.8763 271.337 100.555 270.643L106.421 264.681C106.765 264.336 107.232 264.127 107.72 264.107L107.941 264.096C108.835 264.059 109.585 263.416 109.759 262.538L109.865 262.011C109.94 261.632 110.124 261.283 110.4 261.013L114.093 257.335C114.332 257.099 114.625 256.928 114.949 256.839L117.088 256.258C117.718 256.087 118.22 255.608 118.421 254.989L118.779 253.882C118.898 253.519 119.12 253.202 119.417 252.962L135.172 240.492C135.987 239.842 137.177 239.962 137.849 240.762L139.834 243.12L139.864 243.161L141.665 245.664C142.275 246.512 142.105 247.698 141.276 248.334L125.391 260.64C125.088 260.873 124.73 261.013 124.348 261.04L123.188 261.122L123.192 261.126Z" fill="white"/>
<g style="mix-blend-mode:multiply" opacity="0.2">
<path d="M133.532 248.723L101.118 274.109L100.507 273.326L132.921 247.94C133.136 247.773 133.446 247.811 133.613 248.026C133.781 248.241 133.746 248.556 133.532 248.723Z" fill="#F28135"/>
</g>
<path d="M169.151 241.883C172.95 237.682 173.533 232.014 170.662 228.325L161.648 216.76C158.774 213.075 153.147 212.268 148.161 214.948C143.489 217.461 137.965 221.785 134.404 225.724C130.606 229.925 130.022 235.593 132.894 239.281L141.907 250.846C144.782 254.531 150.409 255.338 155.394 252.658C160.066 250.145 165.591 245.821 169.151 241.883ZM165.182 231.374L157.372 221.355C156.69 220.48 156.908 219.167 157.856 218.425C158.804 217.683 160.124 217.789 160.806 218.664L168.616 228.684C169.298 229.559 169.083 230.868 168.135 231.61C167.187 232.352 165.864 232.246 165.182 231.374Z" fill="#F7B34A"/>
<g style="mix-blend-mode:overlay" opacity="0.4">
<path d="M161.925 239.818C164.37 237.114 164.745 233.466 162.897 231.091L157.096 223.649C155.248 221.276 151.623 220.756 148.414 222.483C145.406 224.1 142.664 226.247 140.372 228.78C137.927 231.484 137.552 235.131 139.4 237.507L145.201 244.949C147.049 247.322 150.674 247.841 153.883 246.115C156.891 244.498 159.633 242.351 161.925 239.818Z" fill="white"/>
</g>
<path d="M144.443 225.026L143.811 225.521L157.836 243.516L158.468 243.021L144.443 225.026Z" fill="#F7B34A"/>
<path d="M205.207 234.906C202.912 229.723 197.981 226.893 193.449 228.034L179.255 231.614C174.727 232.755 171.715 237.589 172.138 243.243C172.537 248.542 177.769 269.392 179.917 274.249C182.212 279.432 187.143 282.262 191.675 281.121L205.869 277.541C210.397 276.4 213.408 271.566 212.986 265.912C212.587 260.613 207.355 239.763 205.207 234.906ZM194.049 234.451L181.752 237.552C180.677 237.822 179.569 237.094 179.276 235.924C178.983 234.755 179.613 233.583 180.688 233.313L192.985 230.212C194.059 229.942 195.167 230.674 195.461 231.843C195.754 233.012 195.12 234.178 194.049 234.451Z" fill="#F7B34A"/>
<path d="M199.791 274.926C200.068 276.031 199.399 277.152 198.298 277.432C197.196 277.709 196.078 277.039 195.798 275.935C195.518 274.831 196.19 273.709 197.292 273.429C198.393 273.152 199.512 273.822 199.791 274.926Z" fill="white"/>
<g style="mix-blend-mode:overlay" opacity="0.4">
<path d="M200.491 241.087C199.014 237.75 195.839 235.928 192.923 236.663L183.784 238.967C180.868 239.702 178.931 242.813 179.204 246.454C179.46 249.865 183.242 264.941 184.627 268.069C186.103 271.405 189.278 273.227 192.194 272.492L201.333 270.188C204.249 269.453 206.186 266.343 205.913 262.702C205.657 259.29 201.875 244.215 200.491 241.087Z" fill="white"/>
</g>
<path d="M201.928 244.918L179.837 250.489L180.032 251.268L202.124 245.697L201.928 244.918Z" fill="#F7B34A"/>
<path d="M205.12 257.645L183.028 263.216L183.224 263.995L205.316 258.425L205.12 257.645Z" fill="#F7B34A"/>
<path d="M194.779 226.202C192.995 228.544 190.714 230.352 188.173 231.566C189.315 232.185 190.475 232.776 191.648 233.333C194.127 231.788 196.316 229.71 198.039 227.16C196.951 226.845 195.866 226.52 194.779 226.206V226.202Z" fill="white"/>
<path d="M162.18 215.352C161.14 214.778 160.1 214.196 159.002 213.742C158.856 216.073 159.087 218.401 159.677 220.637C161.154 221.358 162.528 222.291 163.981 223.05C162.832 220.654 162.218 218.022 162.18 215.352Z" fill="white"/>
</svg>
