<svg width="340" height="280" viewBox="0 0 340 280" fill="none" xmlns="http://www.w3.org/2000/svg">
<path d="M64 126.58V153.258C64 155.576 64.915 157.8 66.5437 159.439C68.1725 161.079 70.3815 162 72.6848 162H167.717C170.02 161.998 172.227 161.076 173.855 159.437C175.482 157.798 176.397 155.575 176.397 153.258V130.718L188.23 118.208L72.7182 117.844C71.5754 117.839 70.4429 118.062 69.3857 118.499C68.3285 118.936 67.3674 119.578 66.5575 120.39C65.7476 121.202 65.1047 122.166 64.6659 123.228C64.227 124.29 64.0007 125.429 64 126.58Z" fill="#F5F5F5"/>
<path d="M162.388 134.005L76.1567 133.602L76.1623 130.936L162.399 131.334L162.388 134.005Z" fill="#E0E0E0"/>
<path d="M162.388 142.78L76.1567 142.383L76.1623 139.712L162.399 140.115L162.388 142.78Z" fill="#E0E0E0"/>
<path d="M128.273 148.498L128.26 151.164L162.382 151.331L162.395 148.666L128.273 148.498Z" fill="#E0E0E0"/>
<path d="M152.056 218.756V245.434C152.056 247.752 152.971 249.976 154.599 251.615C156.228 253.255 158.437 254.176 160.741 254.176H255.762C258.064 254.174 260.272 253.252 261.899 251.613C263.527 249.974 264.441 247.751 264.441 245.434V222.894L276.275 210.384L160.757 210.02C159.616 210.017 158.485 210.242 157.43 210.68C156.375 211.118 155.415 211.761 154.607 212.572C153.799 213.383 153.158 214.347 152.72 215.408C152.282 216.469 152.056 217.607 152.056 218.756Z" fill="#F5F5F5"/>
<path d="M250.86 225.487L164.624 225.089L164.63 222.418L250.866 222.821L250.86 225.487Z" fill="#E0E0E0"/>
<path d="M250.86 234.262L164.624 233.864L164.63 231.193L250.866 231.596L250.86 234.262Z" fill="#E0E0E0"/>
<path d="M216.738 239.974L216.725 242.64L250.846 242.808L250.859 240.142L216.738 239.974Z" fill="#E0E0E0"/>
<path d="M114.796 26.0932H170.844C172.172 26.0932 173.446 26.6242 174.385 27.5693C175.324 28.5145 175.851 29.7965 175.851 31.1332V58.7244C175.851 60.0611 175.324 61.343 174.385 62.2882C173.446 63.2334 172.172 63.7644 170.844 63.7644H123.286C121.958 63.7644 120.684 63.2334 119.745 62.2882C118.806 61.343 118.279 60.0611 118.279 58.7244V29.582L114.796 26.0932Z" fill="#F5F5F5"/>
<path d="M147.271 52.9172V70.6132C147.271 72.1503 146.664 73.6246 145.584 74.7115C144.504 75.7985 143.04 76.4092 141.512 76.4092H78.4986C77.7407 76.4114 76.9899 76.2631 76.289 75.9729C75.5881 75.6827 74.951 75.2562 74.4141 74.7178C73.8771 74.1795 73.451 73.5398 73.1599 72.8355C72.8689 72.1312 72.7187 71.376 72.718 70.6132V55.6612L64.8955 47.362L141.512 47.1212C143.04 47.1212 144.504 47.7318 145.584 48.8188C146.664 49.9057 147.271 51.38 147.271 52.9172Z" fill="#E0E0E0"/>
<path d="M82.0319 57.8396L139.226 57.5763L139.221 55.8067L82.0264 56.0755L82.0319 57.8396Z" fill="#F5F5F5"/>
<path d="M82.0319 63.6636L139.226 63.3948L139.221 61.6308L82.0264 61.894L82.0319 63.6636Z" fill="#F5F5F5"/>
<path d="M104.336 67.802H81.7036V69.5716H104.336V67.802Z" fill="#F5F5F5"/>
<path d="M259.1 134.788V152.721C259.1 154.279 258.551 155.773 257.574 156.874C256.597 157.976 255.272 158.595 253.89 158.595H196.86C195.478 158.595 194.152 157.976 193.174 156.875C192.197 155.773 191.647 154.279 191.645 152.721V137.569L184.547 129.159L253.87 128.915C254.556 128.913 255.235 129.063 255.869 129.357C256.503 129.651 257.08 130.083 257.565 130.629C258.051 131.174 258.437 131.822 258.7 132.536C258.964 133.25 259.099 134.015 259.1 134.788Z" fill="#E0E0E0"/>
<path d="M201.243 139.555L250.755 139.333L250.745 137.875L201.238 138.096L201.243 139.555Z" fill="#F5F5F5"/>
<path d="M200.687 145.715L250.754 145.497L250.745 144.035L200.682 144.252L200.687 145.715Z" fill="#F5F5F5"/>
<path d="M223.337 150.441H200.704V152.211H223.337V150.441Z" fill="#F5F5F5"/>
<path d="M178.37 221.564C168.95 212.33 168.795 198.044 171.243 185.64C171.654 183.568 171.799 181.334 173.068 179.665C174.336 177.996 176.845 177.128 178.559 178.315C179.978 179.295 180.356 181.205 180.974 182.834C181.796 185.01 183.217 186.905 185.068 188.3C186.276 189.207 187.85 189.896 189.252 189.392C191.199 188.692 191.817 186.245 192.14 184.173C192.741 180.305 193.345 176.439 193.953 172.575C194.276 170.498 194.616 168.381 195.572 166.522C196.529 164.662 198.249 163.066 200.296 162.837C202.343 162.607 204.58 164.142 204.663 166.242C204.6 167.111 204.48 167.975 204.302 168.829C204.218 169.697 204.463 170.716 205.237 171.069C206.01 171.422 206.939 170.996 207.651 170.509C210.116 168.767 211.996 166.314 213.771 163.856C215.546 161.398 217.31 158.866 219.613 156.901C221.916 154.935 224.871 153.569 227.847 153.888C230.824 154.207 233.672 156.554 233.939 159.6C234.206 162.646 232.037 165.329 229.811 167.39C226.507 170.447 222.782 173.008 218.751 174.994C218.027 175.353 217.243 175.734 216.87 176.462C216.197 177.772 217.276 179.357 218.539 180.034C219.991 180.802 221.677 180.914 223.252 181.373C224.826 181.832 226.451 182.823 226.812 184.453C227.307 186.693 225.188 188.636 223.218 189.806C219.276 192.148 214.962 193.788 210.466 194.656C208.864 194.964 207.189 195.188 205.793 196.062C204.396 196.935 203.362 198.671 203.862 200.25C204.363 201.83 206.177 202.614 207.812 202.58C209.448 202.546 211.006 201.908 212.614 201.583C215.618 200.978 219.24 201.774 220.648 204.534C221.577 206.349 221.315 208.617 220.397 210.448C219.401 212.235 218.058 213.803 216.447 215.057C211.039 219.66 204.536 223.014 197.598 224.224C190.66 225.434 184.484 225.053 178.353 221.575" fill="#F28135"/>
<path d="M176.701 230.793C178.211 225.1 180.26 219.566 182.821 214.267C185.985 207.809 189.515 201.537 193.392 195.485L196.418 190.708C197.414 189.14 198.399 187.583 199.462 186.127C201.506 183.324 203.703 180.638 206.043 178.08C208.269 175.622 210.439 173.376 212.503 171.287C214.567 169.198 216.525 167.3 218.389 165.642C221.311 163.007 224.436 160.611 227.736 158.474C228.904 157.718 229.828 157.158 230.457 156.794L231.18 156.374C231.264 156.321 231.354 156.276 231.447 156.24C231.374 156.303 231.296 156.359 231.213 156.408L230.512 156.856C229.895 157.242 228.988 157.819 227.836 158.598C224.574 160.774 221.481 163.196 218.584 165.844C216.737 167.524 214.795 169.422 212.742 171.511C210.689 173.6 208.519 175.862 206.321 178.315C204.005 180.867 201.828 183.544 199.801 186.334C198.749 187.785 197.77 189.33 196.774 190.898C195.778 192.466 194.777 194.062 193.753 195.675C189.888 201.718 186.359 207.971 183.182 214.407C180.61 219.679 178.535 225.181 176.984 230.843" fill="#263238"/>
<path d="M199.589 186.127C199.54 185.824 199.522 185.516 199.534 185.209C199.534 184.621 199.534 183.764 199.534 182.711C199.578 180.6 199.74 177.671 199.923 174.474C200.107 171.276 200.235 168.358 200.246 166.247C200.246 165.194 200.246 164.343 200.246 163.755C200.222 163.449 200.233 163.141 200.279 162.837C200.348 163.136 200.388 163.442 200.396 163.75C200.452 164.31 200.491 165.189 200.519 166.247C200.574 168.358 200.519 171.287 200.307 174.496C200.096 177.705 199.94 180.533 199.801 182.722C199.751 183.708 199.706 184.542 199.667 185.214C199.677 185.521 199.651 185.827 199.589 186.127Z" fill="#263238"/>
<path d="M226.868 185.511C226.51 185.532 226.15 185.517 225.795 185.466C225.105 185.416 224.125 185.332 222.874 185.276C220.403 185.142 216.993 185.074 213.221 185.164C209.449 185.254 206.044 185.494 203.579 185.724C202.349 185.836 201.354 185.954 200.669 186.032C200.313 186.094 199.951 186.122 199.59 186.116C199.935 186.006 200.288 185.927 200.647 185.881C201.331 185.758 202.316 185.601 203.551 185.45C206.016 185.136 209.432 184.862 213.215 184.761C216.442 184.672 219.671 184.748 222.89 184.99C224.125 185.086 225.116 185.203 225.811 185.304C226.17 185.338 226.524 185.408 226.868 185.511Z" fill="#263238"/>
<path d="M183.249 213.83C183.249 213.83 183.194 213.713 183.121 213.478C183.049 213.242 182.943 212.856 182.821 212.436C182.57 211.534 182.237 210.196 181.847 208.589C181.068 205.324 180.134 200.788 179.166 195.759C178.197 190.73 177.302 186.194 176.59 182.918C176.239 181.328 175.95 180.018 175.738 179.043C175.644 178.623 175.571 178.27 175.51 177.985C175.475 177.863 175.456 177.737 175.455 177.61C175.517 177.722 175.562 177.842 175.588 177.968C175.666 178.248 175.761 178.59 175.883 179.004C176.133 179.906 176.467 181.244 176.857 182.857C177.636 186.116 178.576 190.658 179.538 195.686C180.501 200.715 181.402 205.251 182.114 208.527C182.465 210.118 182.754 211.428 182.965 212.402C183.06 212.822 183.132 213.17 183.194 213.455C183.228 213.577 183.247 213.703 183.249 213.83Z" fill="#263238"/>
<path d="M220.275 208.219C220.155 208.264 220.03 208.292 219.903 208.303L218.823 208.482L214.856 209.087C211.518 209.602 206.895 210.37 201.793 211.215C196.691 212.061 192.062 212.789 188.702 213.231C187.033 213.455 185.658 213.623 184.718 213.718L183.605 213.825C183.48 213.844 183.352 213.844 183.227 213.825C183.348 213.784 183.473 213.755 183.6 213.741L184.674 213.562L188.64 212.957C191.979 212.442 196.608 211.68 201.709 210.829C206.811 209.978 211.44 209.255 214.801 208.813C216.47 208.589 217.838 208.421 218.784 208.326L219.897 208.225C220.022 208.203 220.15 208.201 220.275 208.219Z" fill="#263238"/>
<path d="M84.7786 95.6424C83.9398 94.9385 83.3009 94.0238 82.9267 92.9911C82.5525 91.9585 82.4562 90.8446 82.6477 89.7624C82.8589 88.6858 83.2805 87.6621 83.8879 86.7508C84.4954 85.8395 85.2766 85.0586 86.1862 84.4536C87.0152 83.8936 88.0444 83.4232 89.0125 83.7088C89.4562 83.8716 89.8487 84.1504 90.1499 84.5166C90.4511 84.8827 90.65 85.3229 90.7261 85.792C90.8668 86.7376 90.7554 87.7039 90.4034 88.592C89.3463 91.6608 87.7662 94.4384 84.7786 95.6592" fill="#455A64"/>
<path d="M81.9578 100.884C80.2438 99.3403 78.1889 98.2303 75.9634 97.6459C73.738 97.0616 71.4061 97.0198 69.1614 97.524C68.0487 97.7872 66.7412 98.392 66.5576 99.5512C66.374 100.71 67.3978 101.702 68.4103 102.295C70.5476 103.49 72.9883 104.02 75.4248 103.821C77.8613 103.622 80.1848 102.701 82.1024 101.175" fill="#455A64"/>
<path d="M65.6507 76.6136C66.5957 76.394 67.5749 76.3672 68.5304 76.5345C69.4859 76.7018 70.3985 77.0601 71.2143 77.588C72.8529 78.6639 74.2235 80.1048 75.2202 81.7992C77.2342 85.0024 77.9463 89.3144 78.0354 93.1056C73.8515 92.9376 70.2796 89.628 68.5772 87.8304C65.8732 84.9968 62.702 78.2264 65.6173 76.6304" fill="#455A64"/>
<path d="M88.2836 106.613C87.9028 106.105 87.5535 105.574 87.2376 105.022C86.155 102.886 85.3634 100.612 84.8842 98.2632C84.4124 95.8832 84.5932 93.4188 85.4072 91.1344C85.6615 90.4506 85.9998 89.8016 86.4142 89.2024C86.555 88.9737 86.7294 88.7679 86.9316 88.592C86.4481 89.4389 86.0314 90.3227 85.6854 91.2352C84.9797 93.4843 84.8458 95.8757 85.2959 98.1904C85.7811 100.508 86.5278 102.763 87.5214 104.91" fill="#263238"/>
<path d="M88.3224 106.663L86.1414 103.835C84.311 101.444 81.7684 98.1456 78.9087 94.5392C76.049 90.9328 73.4285 87.7072 71.5257 85.3776L69.3003 82.5776C69.0072 82.2523 68.7429 81.9019 68.5103 81.5304C68.8385 81.8194 69.1436 82.134 69.4227 82.4712C69.9791 83.0984 70.7969 84.0112 71.7817 85.1536C73.7456 87.4384 76.4106 90.6416 79.2703 94.248C82.13 97.8544 84.6281 101.186 86.4029 103.628C87.2931 104.849 87.9997 105.868 88.4781 106.534" fill="#263238"/>
<path d="M71.7705 100.005C71.9981 99.8914 72.2423 99.8158 72.4938 99.7808C72.78 99.7014 73.0721 99.6453 73.3673 99.6128C73.7559 99.5481 74.1478 99.5051 74.5412 99.484C75.5681 99.4189 76.5989 99.4583 77.6179 99.6016C78.8632 99.7885 80.0849 100.11 81.2621 100.559C82.4339 101.031 83.5529 101.626 84.6003 102.334C85.446 102.922 86.2308 103.593 86.9425 104.339C87.2205 104.621 87.4824 104.918 87.727 105.23C87.9281 105.456 88.1139 105.695 88.2834 105.946C88.556 106.355 88.517 106.546 88.4948 106.562C87.9522 105.862 87.3727 105.191 86.7589 104.552C86.033 103.853 85.2474 103.22 84.4111 102.659C83.3804 101.992 82.2864 101.429 81.1452 100.979C79.9946 100.54 78.8038 100.215 77.5901 100.01C76.5968 99.8511 75.5912 99.7836 74.5857 99.8088C72.8276 99.8256 71.7705 100.083 71.7705 100.005Z" fill="#263238"/>
<path d="M165.095 242.894L100.835 242.592C97.1283 242.57 93.5814 241.068 90.9735 238.415C88.3657 235.763 86.9101 232.178 86.9264 228.446L87.6052 66.2872C87.6214 62.5533 89.1094 58.9786 91.7425 56.3483C94.3755 53.718 97.9381 52.2473 101.648 52.2592L165.908 52.556C169.615 52.5812 173.161 54.085 175.768 56.7377C178.376 59.3905 179.832 62.9757 179.817 66.7072L179.149 228.861C179.133 232.597 177.644 236.174 175.008 238.806C172.373 241.437 168.808 242.908 165.095 242.894Z" fill="#263238"/>
<path d="M165.796 58.156L153.334 58.0944C152.928 58.1017 152.527 58.1895 152.154 58.3527C151.782 58.516 151.445 58.7515 151.163 59.0458C150.88 59.3402 150.659 59.6875 150.51 60.0681C150.361 60.4488 150.289 60.8551 150.296 61.264V63.5376C150.303 63.9465 150.231 64.3529 150.082 64.7335C149.933 65.1141 149.712 65.4615 149.429 65.7558C149.147 66.0501 148.81 66.2857 148.438 66.4489C148.065 66.6121 147.665 66.6999 147.258 66.7072L122.973 66.5952C122.153 66.5718 121.376 66.222 120.811 65.6226C120.247 65.0232 119.942 64.2231 119.963 63.3976V61.124C119.984 60.2976 119.678 59.4967 119.113 58.8971C118.547 58.2975 117.769 57.9484 116.948 57.9264H112.569L101.664 57.876C99.0633 57.8656 96.5646 58.8948 94.717 60.7376C92.8695 62.5804 91.8243 65.086 91.8111 67.704L91.149 225.977C91.1386 228.593 92.1606 231.107 93.9904 232.965C95.8202 234.824 98.3081 235.875 100.908 235.889L165.04 236.186C166.327 236.192 167.603 235.942 168.795 235.452C169.986 234.961 171.07 234.239 171.985 233.327C172.899 232.415 173.626 231.331 174.124 230.136C174.622 228.941 174.881 227.659 174.887 226.363L175.549 68.0848C175.559 66.7877 175.314 65.5014 174.829 64.2998C174.343 63.0981 173.627 62.0048 172.721 61.0823C171.815 60.1599 170.737 59.4266 169.548 58.9244C168.36 58.4223 167.085 58.1611 165.796 58.156Z" fill="#FAFAFA"/>
<path d="M129.522 221.01C129.563 221.282 129.519 221.561 129.398 221.809C129.277 222.056 129.083 222.26 128.843 222.393C128.603 222.526 128.328 222.582 128.056 222.553C127.783 222.525 127.526 222.412 127.319 222.232C127.111 222.051 126.964 221.811 126.896 221.544C126.829 221.277 126.844 220.995 126.941 220.737C127.037 220.478 127.21 220.256 127.435 220.1C127.661 219.943 127.929 219.86 128.203 219.862C128.528 219.841 128.848 219.95 129.095 220.165C129.341 220.379 129.495 220.683 129.522 221.01Z" fill="#455A64"/>
<path d="M133.622 221.032C133.662 221.305 133.618 221.583 133.496 221.83C133.373 222.077 133.179 222.28 132.939 222.412C132.699 222.544 132.424 222.599 132.152 222.57C131.879 222.54 131.623 222.427 131.416 222.247C131.209 222.066 131.062 221.826 130.995 221.558C130.928 221.291 130.944 221.009 131.041 220.752C131.138 220.494 131.31 220.272 131.536 220.116C131.762 219.96 132.03 219.877 132.303 219.878C132.63 219.858 132.951 219.968 133.197 220.184C133.444 220.399 133.596 220.704 133.622 221.032Z" fill="#455A64"/>
<path d="M137.722 221.049C137.763 221.322 137.72 221.6 137.599 221.848C137.478 222.095 137.284 222.299 137.044 222.432C136.804 222.565 136.529 222.621 136.256 222.593C135.984 222.564 135.727 222.452 135.519 222.271C135.312 222.091 135.165 221.851 135.097 221.583C135.029 221.316 135.045 221.034 135.141 220.776C135.238 220.518 135.41 220.295 135.636 220.139C135.862 219.982 136.13 219.899 136.404 219.901C136.729 219.879 137.05 219.988 137.297 220.202C137.544 220.417 137.697 220.721 137.722 221.049Z" fill="#455A64"/>
<path d="M111.006 134.456C112.052 134.607 175.088 147.05 175.088 147.05V134.456H111.006Z" fill="#EBEBEB"/>
<path d="M91.1714 214.424C91.1714 214.424 159.749 204.658 159.148 204.96C158.547 205.262 91.1714 204.96 91.1714 204.96V214.424Z" fill="#EBEBEB"/>
<path d="M170.804 29.6296C170.882 29.6296 170.949 33.1184 170.949 37.4192C170.949 41.72 170.882 45.2144 170.804 45.2144C170.726 45.2144 170.659 41.7256 170.659 37.4192C170.659 33.1128 170.726 29.6296 170.804 29.6296Z" fill="#263238"/>
<path d="M198.249 47.5664C198.282 47.6392 195.133 49.1064 191.222 50.8424C187.311 52.5784 184.112 53.9336 184.078 53.8552C184.045 53.7768 187.194 52.3152 191.105 50.5792C195.017 48.8432 198.216 47.488 198.249 47.5664Z" fill="#263238"/>
<path d="M197.554 20.3616C197.521 20.4691 197.472 20.5711 197.409 20.664C197.281 20.8768 197.126 21.1512 196.931 21.4872C196.514 22.204 195.896 23.2288 195.117 24.4832C193.559 27.0032 191.317 30.4192 188.775 34.1488C186.232 37.8784 183.973 41.2776 182.371 43.764C181.586 44.9792 180.946 46.004 180.479 46.7096L179.956 47.5048C179.901 47.6024 179.833 47.6926 179.756 47.7736C179.797 47.6686 179.847 47.5674 179.906 47.4712C180.034 47.2584 180.19 46.984 180.385 46.648C180.796 45.9312 181.419 44.912 182.198 43.652C183.756 41.132 185.998 37.716 188.535 33.9864C191.072 30.2568 193.342 26.88 194.945 24.3768L196.836 21.4256L197.359 20.6304C197.417 20.5356 197.482 20.4457 197.554 20.3616Z" fill="#263238"/>
<path d="M219.818 75.04H107.323C106.746 75.04 106.174 75.1677 105.64 75.4158C105.106 75.6639 104.621 76.0275 104.213 76.4859C103.805 76.9443 103.481 77.4884 103.26 78.0871C103.04 78.6859 102.927 79.3276 102.927 79.9754V119.106C102.927 119.754 103.04 120.396 103.26 120.994C103.481 121.593 103.805 122.137 104.213 122.596C104.621 123.054 105.106 123.418 105.64 123.666C106.174 123.914 106.746 124.042 107.323 124.042H115.706C116.38 128.126 117.168 133.28 117.168 133.28L124.753 124.042H219.818C220.396 124.042 220.968 123.914 221.502 123.666C222.036 123.418 222.52 123.054 222.929 122.596C223.337 122.137 223.661 121.593 223.881 120.994C224.102 120.396 224.215 119.754 224.215 119.106V79.9754C224.215 79.3276 224.102 78.6859 223.881 78.0871C223.661 77.4884 223.337 76.9443 222.929 76.4859C222.52 76.0275 222.036 75.6639 221.502 75.4158C220.968 75.1677 220.396 75.04 219.818 75.04Z" fill="#F28135"/>
<path d="M139.89 94.6686L141.06 96.7486L137.498 98.0746L141.06 99.4006L139.864 101.533L136.9 99.1926L137.446 102.963H135.054L135.548 99.1926L132.584 101.585L131.336 99.3746L134.872 98.0486L131.336 96.7746L132.532 94.6426L135.574 96.9826L135.054 93.1866H137.472L136.9 96.9826L139.89 94.6686ZM152.992 94.6686L154.162 96.7486L150.6 98.0746L154.162 99.4006L152.966 101.533L150.002 99.1926L150.548 102.963H148.156L148.65 99.1926L145.686 101.585L144.438 99.3746L147.974 98.0486L144.438 96.7746L145.634 94.6426L148.676 96.9826L148.156 93.1866H150.574L150.002 96.9826L152.992 94.6686ZM166.093 94.6686L167.263 96.7486L163.701 98.0746L167.263 99.4006L166.067 101.533L163.103 99.1926L163.649 102.963H161.257L161.751 99.1926L158.787 101.585L157.539 99.3746L161.075 98.0486L157.539 96.7746L158.735 94.6426L161.777 96.9826L161.257 93.1866H163.675L163.103 96.9826L166.093 94.6686ZM179.195 94.6686L180.365 96.7486L176.803 98.0746L180.365 99.4006L179.169 101.533L176.205 99.1926L176.751 102.963H174.359L174.853 99.1926L171.889 101.585L170.641 99.3746L174.177 98.0486L170.641 96.7746L171.837 94.6426L174.879 96.9826L174.359 93.1866H176.777L176.205 96.9826L179.195 94.6686ZM192.296 94.6686L193.466 96.7486L189.904 98.0746L193.466 99.4006L192.27 101.533L189.306 99.1926L189.852 102.963H187.46L187.954 99.1926L184.99 101.585L183.742 99.3746L187.278 98.0486L183.742 96.7746L184.938 94.6426L187.98 96.9826L187.46 93.1866H189.878L189.306 96.9826L192.296 94.6686ZM205.398 94.6686L206.568 96.7486L203.006 98.0746L206.568 99.4006L205.372 101.533L202.408 99.1926L202.954 102.963H200.562L201.056 99.1926L198.092 101.585L196.844 99.3746L200.38 98.0486L196.844 96.7746L198.04 94.6426L201.082 96.9826L200.562 93.1866H202.98L202.408 96.9826L205.398 94.6686Z" fill="white"/>
<path d="M171.627 166.83C171.627 166.908 156.7 166.975 138.284 166.975C119.869 166.975 104.941 166.908 104.941 166.83C104.941 166.751 119.869 166.684 138.284 166.684C156.7 166.684 171.627 166.729 171.627 166.83Z" fill="#F5F5F5"/>
<path d="M171.627 160.793C171.627 160.871 156.7 160.938 138.284 160.938C119.869 160.938 104.941 160.871 104.941 160.793C104.941 160.714 119.869 160.647 138.284 160.647C156.7 160.647 171.627 160.709 171.627 160.793Z" fill="#F5F5F5"/>
<path d="M171.627 172.766C171.627 172.844 156.7 172.911 138.284 172.911C119.869 172.911 104.941 172.844 104.941 172.766C104.941 172.687 119.869 172.62 138.284 172.62C156.7 172.62 171.627 172.687 171.627 172.766Z" fill="#F5F5F5"/>
<path d="M148.622 178.931C148.622 179.015 138.846 179.077 126.784 179.077C114.722 179.077 104.941 179.015 104.941 178.931C104.941 178.847 114.722 178.786 126.784 178.786C138.846 178.786 148.622 178.853 148.622 178.931Z" fill="#F5F5F5"/>
</svg>
