<?xml version="1.0" encoding="iso-8859-1"?>
<!-- Uploaded to: SVG Repo, www.svgrepo.com, Generator: SVG Repo Mixer Tools -->
<svg fill="#000000" height="800px" width="800px" version="1.1" id="Layer_1" xmlns="http://www.w3.org/2000/svg" xmlns:xlink="http://www.w3.org/1999/xlink" 
	 viewBox="0 0 512 512" xml:space="preserve">
<g>
	<g>
		<g>
			<path d="M497.625,133.174h-2.117c0.093-1.793,0.159-3.58,0.159-5.355c0-54.806-44.588-99.394-99.394-99.394
				s-99.393,44.588-99.393,99.394c0,1.775,0.065,3.564,0.159,5.355h-64.286L126.199,75.858c-4.264-2.294-9.355-2.293-13.619,0
				L7.566,132.346C2.899,134.856,0,139.707,0,145.005v319.938c0,5.107,2.617,9.72,7.002,12.341c4.384,2.62,9.687,2.738,14.183,0.319
				l98.205-52.824l106.117,57.081c2.086,1.121,4.44,1.714,6.808,1.714h265.31c7.927,0,14.375-6.449,14.375-14.375V147.549
				C512,139.622,505.551,133.174,497.625,133.174z M111.334,410.819l-95.223,51.221V146.043l95.223-51.22v13.926l-74.096,39.857
				c-3.094,1.666-5.017,4.884-5.017,8.398v266.484c0,3.337,1.78,6.474,4.644,8.186c2.863,1.712,6.469,1.794,9.41,0.213
				l65.059-34.996V410.819z M111.335,378.598h-0.001l-63.002,33.89v-59.022l63.003-33.888V378.598z M111.335,301.282h-0.001
				l-63.002,33.89v-18.294l63.003-33.89V301.282z M111.335,264.695h-0.001l-63.002,33.89v-53.61l63.003-33.89V264.695z
				 M111.335,192.791h-0.001l-63.002,33.89v-18.293l63.003-33.89V192.791z M111.335,156.205h-0.001l-63.002,33.89v-29.162
				l63.003-33.89V156.205z M127.445,211.085l23.445,12.613v54.15l-23.445-13.071V211.085z M222.668,462.041l-95.223-51.221v-13.928
				l95.223,51.221V462.041z M222.668,429.819l-95.223-51.221v-59.253l95.223,49.354V429.819z M222.668,350.552l-95.223-49.354
				v-17.976l27.578,15.375c2.496,1.392,5.54,1.358,8.003-0.09c2.463-1.447,3.975-4.09,3.975-6.946v-72.678
				c0-2.964-1.628-5.689-4.239-7.094l-35.317-18.999v-18.293l55.667,29.943v105.084c0,2.921,1.581,5.614,4.133,7.036l35.423,19.749
				V350.552z M222.668,317.865l-23.445-13.071V199.627c0-2.964-1.628-5.689-4.239-7.094l-67.538-36.329v-29.162l95.223,51.222
				V317.865z M222.668,159.97l-95.223-51.222V94.821l95.223,51.22V159.97z M396.274,44.536c45.922,0,83.283,37.361,83.283,83.283
				c0,36.048-23.35,78.033-37.268,99.851c-21.022,32.954-39.965,51.683-46.014,55.508c-6.049-3.825-24.992-22.554-46.015-55.508
				c-13.919-21.818-37.268-63.803-37.268-99.851C312.991,81.895,350.352,44.536,396.274,44.536z M463.669,223.529v39.032
				l-60.961,60.961h-88.464V195.36c8.093,17.757,17.493,33.452,24.673,44.442c10.093,15.447,21.309,30.131,31.582,41.348
				c17.044,18.608,23.162,18.608,25.775,18.608c2.612,0,8.73,0,25.775-18.608c10.273-11.216,21.49-25.901,31.583-41.348
				C456.668,235.155,460.104,229.659,463.669,223.529z M238.779,149.284h60.222c1.003,5.384,2.326,10.772,3.9,16.112h-64.122
				V149.284z M238.779,181.506h27.132v142.017h-27.132V181.506z M238.779,339.634h35.187c4.449,0,8.055-3.607,8.055-8.055V181.506
				h16.111v150.073c0,4.449,3.607,8.055,8.055,8.055h99.856c2.136,0,4.186-0.849,5.696-2.36l51.929-51.929v22.784l-33.865,33.865
				c-1.511,1.51-2.36,3.559-2.36,5.696s0.849,4.186,2.36,5.696l33.865,33.864v22.784l-45.256-45.256
				c-3.146-3.146-8.247-3.146-11.392,0l-70.466,70.466h-22.784l65.747-65.747c2.304-2.304,2.993-5.769,1.746-8.778
				c-1.247-3.011-4.183-4.973-7.442-4.973H238.779V339.634z M463.669,330.913v33.553l-16.777-16.777L463.669,330.913z
				 M463.669,432.818v2.426H359.338l53.378-53.378L463.669,432.818z M238.778,371.856h0.001h115.595l-63.388,63.388h-52.207V371.856
				z M238.779,467.464v-16.111h231.463c5.259,0,9.536-4.278,9.536-9.536V192.066c5.963-13.557,11.05-28.187,13.768-42.782h2.342
				v318.18H238.779z"/>
			<path d="M396.274,168.164c22.247,0,40.346-18.1,40.346-40.346s-18.1-40.346-40.346-40.346c-22.247,0-40.346,18.099-40.346,40.346
				C355.929,150.065,374.027,168.164,396.274,168.164z M396.274,103.583c13.363,0,24.235,10.872,24.235,24.235
				s-10.873,24.235-24.235,24.235c-13.362,0-24.235-10.872-24.235-24.235S382.911,103.583,396.274,103.583z"/>
		</g>
	</g>
</g>
</svg>